<svg width="36" height="36" viewBox="0 0 36 36" fill="none" xmlns="http://www.w3.org/2000/svg">
<g clip-path="url(#clip0_582_11967)">
<path fill-rule="evenodd" clip-rule="evenodd" d="M31.5798 9.45132C31.392 9.902 31.3182 10.4043 31.4533 10.8739C32.8683 15.7922 31.0266 22.0705 26.2977 26.7994C21.6816 31.4155 15.589 33.2805 10.7263 32.0506C10.2438 31.9285 9.73469 32.0238 9.2873 32.241C7.62305 33.049 5.50696 32.7174 4.06404 31.2745C2.62111 29.8316 2.28957 27.7154 3.09757 26.0512C3.31478 25.6038 3.41003 25.0947 3.288 24.6122C2.05817 19.7495 3.92313 13.6569 8.53921 9.04086C13.2681 4.31201 19.5464 2.47034 24.4647 3.88533C24.9343 4.02043 25.4366 3.9466 25.8873 3.75879C27.4137 3.12268 29.286 3.46346 30.5806 4.75802C31.8751 6.05258 32.2159 7.92486 31.5798 9.45132Z" fill="#FFFEEE"/>
<path fill-rule="evenodd" clip-rule="evenodd" d="M25.2355 25.7042C29.6702 21.2696 31.2433 15.5381 30.0165 11.2655C29.7601 10.3728 29.9219 9.50575 30.2023 8.83351C30.5963 7.8893 30.4017 6.67121 29.5346 5.80404C28.6674 4.93687 27.4493 4.74231 26.5051 5.13626C25.8328 5.41674 24.9658 5.57847 24.0731 5.32214C19.8005 4.09531 14.069 5.66844 9.63436 10.1031C5.30826 14.4292 3.70126 19.9969 4.77076 24.2353C5.00221 25.1526 4.80323 26.0343 4.47225 26.7153C3.95559 27.7785 4.14551 29.1986 5.14273 30.1958C6.13994 31.193 7.56001 31.3829 8.62315 30.8663C9.30423 30.5353 10.1859 30.3363 11.1032 30.5678C15.3416 31.6374 20.9094 30.0304 25.2355 25.7042ZM31.4827 10.8445C31.3478 10.3747 31.422 9.872 31.6102 9.42092C32.2476 7.89313 31.9078 6.01991 30.6132 4.72535C29.3187 3.43079 27.4455 3.09095 25.9177 3.72839C25.4666 3.91659 24.9639 3.99078 24.4941 3.85589C19.5737 2.44305 13.2904 4.28972 8.55567 9.02441C3.9339 13.6462 2.06404 19.7437 3.29163 24.6086C3.41344 25.0913 3.31781 25.6008 3.10019 26.0486C2.29067 27.7143 2.62111 29.8316 4.06404 31.2745C5.50696 32.7174 7.62415 33.0479 9.28992 32.2384C9.73772 32.0207 10.2472 31.9251 10.7299 32.0469C15.5948 33.2746 21.6924 31.4047 26.3142 26.7829C31.0489 22.0482 32.8955 15.7649 31.4827 10.8445Z" fill="#FFCE00"/>
</g>
<defs>
<clipPath id="clip0_582_11967">
<rect width="36" height="36" fill="white"/>
</clipPath>
</defs>
</svg>
