<svg width="36" height="36" viewBox="0 0 36 36" fill="none" xmlns="http://www.w3.org/2000/svg">
<path fill-rule="evenodd" clip-rule="evenodd" d="M0 36H36V0H0V36Z" fill="white" fill-opacity="0.01"/>
<path fill-rule="evenodd" clip-rule="evenodd" d="M8.41653 18.9871L6.24518 17.6197C4.95448 16.7743 3.2053 16.9637 2.00689 17.9939L0.993092 18.8377C0.623887 19.1195 0.716189 19.6831 1.08539 19.8695L4.50811 22.1808L8.41653 18.9871Z" fill="#FFE7E1"/>
<path fill-rule="evenodd" clip-rule="evenodd" d="M8.41653 18.9871L6.24518 17.6197C4.95448 16.7743 3.2053 16.9637 2.00689 17.9939L0.993092 18.8377C0.623887 19.1195 0.716189 19.6831 1.08539 19.8695L4.5081 22.1808L8.41653 18.9871Z" stroke="#FF4848" stroke-width="1.5"/>
<path fill-rule="evenodd" clip-rule="evenodd" d="M6.64422 16.9649L9.388 18.6431L7.35753 20.2935C6.77724 20.7651 6.22815 21.2797 5.7164 21.8298C5.71624 21.83 5.71656 21.8297 5.7164 21.8298L4.52422 23.116L0.698016 20.5314C-0.0850909 20.0901 -0.299402 18.8775 0.524755 18.2326L1.52367 17.4026C2.94677 16.1813 5.0494 15.929 6.64422 16.9649ZM5.83638 18.267C4.85297 17.6241 3.46631 17.7471 2.49565 18.5828L2.48556 18.5915L1.62302 19.308L4.29856 21.1153L4.6161 20.7728C5.17548 20.1713 5.77714 19.6072 6.41321 19.0903C6.41318 19.0903 6.41323 19.0903 6.41321 19.0903L6.74323 18.8221L5.84589 18.2732L5.83638 18.267Z" fill="#FF4848"/>
<path fill-rule="evenodd" clip-rule="evenodd" d="M23.6623 8.33521C15.7408 12.7222 8.1751 18.8817 4.58625 22.402C4.12625 22.9641 3.29706 24.0897 4.03395 25.5911C4.77085 27.1849 6.15386 27.1849 6.89075 27.1849C12.3274 26.6213 28.9144 20.6204 28.9144 20.6204C29.0067 20.6204 29.0067 20.5264 29.099 20.5264C29.1913 20.4325 29.2836 20.4325 29.4667 20.3386C32.6004 18.8387 31.6789 15.8375 30.1128 12.5545C28.5467 9.273 26.7945 6.83383 23.6623 8.33521Z" fill="#FFE7E1"/>
<path fill-rule="evenodd" clip-rule="evenodd" d="M27.9466 8.04901C29.1185 9.00026 30.0099 10.5762 30.7933 12.2178C31.5741 13.8545 32.2693 15.5619 32.3085 17.0949C32.3286 17.884 32.1769 18.6579 31.7536 19.3554C31.3321 20.0501 30.6788 20.6073 29.7974 21.0308C29.7321 21.0639 29.6751 21.0888 29.6274 21.1083C29.6088 21.1159 29.5914 21.1228 29.5771 21.1284L29.4124 21.296H29.3042C29.2577 21.32 29.2059 21.3412 29.149 21.3574C29.133 21.362 29.1169 21.3661 29.1009 21.3696L28.9785 21.4136C28.855 21.458 28.6736 21.5229 28.4408 21.6058C27.9753 21.7714 27.3045 22.0086 26.4828 22.2949C24.8396 22.8674 22.5912 23.6369 20.1718 24.4243C15.37 25.987 9.78106 27.6588 6.96738 27.9505L6.92915 27.9545L6.86721 27.9545C6.50106 27.9546 5.85793 27.9548 5.20016 27.7076C4.49606 27.4429 3.81057 26.9109 3.35312 25.9267C2.39875 23.9718 3.5294 22.4899 4.00487 21.9089L4.03136 21.8766L4.06117 21.8473C7.69263 18.2852 15.3123 12.0825 23.3007 7.65857L23.32 7.64787L23.3399 7.63832C24.2201 7.21644 25.0566 7.04672 25.8522 7.13374C26.6501 7.221 27.3437 7.5596 27.9466 8.04901ZM28.7441 19.8331C28.8303 19.7761 28.909 19.7413 28.967 19.7176C29 19.7042 29.0228 19.6953 29.0407 19.6883C29.0749 19.675 29.0913 19.6686 29.1261 19.6507L29.1446 19.6412C29.8256 19.3153 30.2294 18.9366 30.4662 18.5464C30.7026 18.1567 30.8101 17.694 30.7959 17.1349C30.7661 15.9716 30.2175 14.5367 29.4322 12.8905C28.6496 11.2506 27.8819 9.9662 27.0031 9.25284C26.5806 8.90994 26.151 8.71516 25.6905 8.6648C25.2321 8.61466 24.6811 8.70095 24.004 9.02219C16.1787 13.3591 8.69714 19.4457 5.14156 22.9263C4.70363 23.4667 4.20838 24.2232 4.71075 25.2467L4.71867 25.2629C4.99812 25.8673 5.37055 26.13 5.72446 26.2631C6.09898 26.4039 6.48774 26.414 6.85183 26.4146C9.48887 26.1313 14.8832 24.5287 19.7109 22.9576C22.1177 22.1743 24.3559 21.4083 25.9927 20.838C26.8109 20.553 27.4785 20.3169 27.9413 20.1522C28.1727 20.0698 28.3529 20.0053 28.4751 19.9615L28.6014 19.9161C28.6176 19.9044 28.6355 19.8924 28.6549 19.8806C28.6825 19.8637 28.7122 19.8477 28.7441 19.8331Z" fill="#FF4848"/>
<path fill-rule="evenodd" clip-rule="evenodd" d="M29.3759 11.6173L30.4805 13.8686C30.6666 14.1504 31.0343 14.2443 31.3112 14.0549C32.325 13.305 33.7065 11.8052 33.3388 11.0552C32.9696 10.3038 30.942 10.4932 29.7451 10.8674C29.3759 10.9613 29.1913 11.3355 29.3759 11.6173Z" fill="#FF4848"/>
<path fill-rule="evenodd" clip-rule="evenodd" d="M34.3515 19.1192C33.9823 18.3693 31.4947 12.3669 31.8624 12.1805C32.2316 11.9927 35.3653 17.6194 35.7345 18.3693C36.1022 19.1192 36.1022 19.8691 35.6422 20.057C35.1807 20.2449 34.7207 19.7752 34.3515 19.1192Z" fill="#FF4848"/>
<path fill-rule="evenodd" clip-rule="evenodd" d="M28.8221 4.02042C29.1913 4.77034 31.6789 10.7728 31.3112 10.9607C30.942 11.1485 27.8083 5.52181 27.4391 4.77034C27.0714 4.02042 27.0714 3.2705 27.4391 3.08263C27.9006 2.80084 28.4529 3.2705 28.8221 4.02042Z" fill="#FF4848"/>
<path fill-rule="evenodd" clip-rule="evenodd" d="M16.7504 19.3073L23.0178 16.1182C23.3855 15.9319 23.8455 16.3061 23.6624 16.6803L19.4226 26.7157C18.8703 27.9353 17.9488 28.9655 16.7504 29.623L11.6814 32.1545C11.1291 32.4363 10.5768 31.8743 10.7614 31.3107L15.3674 20.7148C15.7366 20.0572 16.1981 19.5891 16.7504 19.3073Z" fill="#FFE7E1"/>
<path fill-rule="evenodd" clip-rule="evenodd" d="M22.6292 17.1767L17.0896 19.9954C17.0894 19.9955 17.0897 19.9954 17.0896 19.9954C16.7027 20.1929 16.3485 20.5312 16.043 21.0638L11.5707 31.352L16.4038 28.9383C17.4439 28.3641 18.2469 27.4675 18.7316 26.402L22.6292 17.1767ZM24.351 16.9997C24.6157 16.4302 24.3685 15.8834 24.0309 15.5973C23.7002 15.317 23.1747 15.1785 22.6807 15.4288L16.4121 18.6185C15.7025 18.9806 15.1391 19.5694 14.7106 20.3326L14.6913 20.367L10.0551 31.0324L10.0438 31.0671C9.85044 31.6572 10.0463 32.247 10.4275 32.6109C10.8203 32.986 11.4328 33.1407 12.0171 32.8444L17.0968 30.3075L17.1095 30.3005C18.4574 29.561 19.4914 28.4034 20.1098 27.0378L24.351 16.9997Z" fill="#FF4848"/>
<path fill-rule="evenodd" clip-rule="evenodd" d="M25.5762 25.8107C25.5762 27.5116 24.2213 28.8905 22.55 28.8905C20.8786 28.8905 19.5237 27.5116 19.5237 25.8107C19.5237 24.1098 20.8786 22.731 22.55 22.731C24.2213 22.731 25.5762 24.1098 25.5762 25.8107ZM22.55 27.3506C23.3856 27.3506 24.0631 26.6612 24.0631 25.8107C24.0631 24.9603 23.3856 24.2708 22.55 24.2708C21.7143 24.2708 21.0368 24.9603 21.0368 25.8107C21.0368 26.6612 21.7143 27.3506 22.55 27.3506Z" fill="#FF4848"/>
<path d="M24.0631 25.8104C24.0631 26.6608 23.3857 27.3503 22.55 27.3503C21.7143 27.3503 21.0369 26.6608 21.0369 25.8104C21.0369 24.9599 21.7143 24.2705 22.55 24.2705C23.3857 24.2705 24.0631 24.9599 24.0631 25.8104Z" fill="#FFE7E1"/>
</svg>
