<svg width="36" height="36" viewBox="0 0 36 36" fill="none" xmlns="http://www.w3.org/2000/svg">
<path fill-rule="evenodd" clip-rule="evenodd" d="M25.2112 32.1346H10.7884C6.98068 32.1346 3.86523 29.0192 3.86523 25.2114V10.7887C3.86523 6.97916 6.98068 3.86545 10.7884 3.86545H25.2112C29.019 3.86545 32.1344 6.97916 32.1344 10.7887V25.2114C32.1344 29.0192 29.019 32.1346 25.2112 32.1346Z" fill="#FBEAFF"/>
<path fill-rule="evenodd" clip-rule="evenodd" d="M10.7886 4.7308C7.45865 4.7308 4.7308 7.4572 4.7308 10.7886V25.2114C4.7308 28.5412 7.45879 31.2692 10.7886 31.2692H25.2114C28.5412 31.2692 31.2692 28.5412 31.2692 25.2114V10.7886C31.2692 7.4572 28.5413 4.7308 25.2114 4.7308H10.7886ZM3 10.7886C3 6.50103 6.50304 3 10.7886 3H25.2114C29.497 3 33 6.50103 33 10.7886V25.2114C33 29.4971 29.4971 33 25.2114 33H10.7886C6.5029 33 3 29.4971 3 25.2114V10.7886Z" fill="#E269FF"/>
<path fill-rule="evenodd" clip-rule="evenodd" d="M24.5833 8.43073C26.2553 8.43073 27.6123 9.78594 27.6123 11.4596C27.6123 13.1316 26.2553 14.4885 24.5833 14.4885C22.9097 14.4885 21.5544 13.1316 21.5544 11.4596C21.5544 9.78594 22.9097 8.43073 24.5833 8.43073Z" fill="#E269FF"/>
<path fill-rule="evenodd" clip-rule="evenodd" d="M24.6163 21.5107C26.2883 21.5107 27.6452 22.8659 27.6452 24.5396C27.6452 26.2115 26.2883 27.5685 24.6163 27.5685C22.9426 27.5685 21.5874 26.2115 21.5874 24.5396C21.5874 22.8659 22.9426 21.5107 24.6163 21.5107Z" fill="#E269FF"/>
<path fill-rule="evenodd" clip-rule="evenodd" d="M11.3836 21.5107C13.0556 21.5107 14.4125 22.8659 14.4125 24.5396C14.4125 26.2115 13.0556 27.5685 11.3836 27.5685C9.70995 27.5685 8.35474 26.2115 8.35474 24.5396C8.35474 22.8659 9.70995 21.5107 11.3836 21.5107Z" fill="#E269FF"/>
<path fill-rule="evenodd" clip-rule="evenodd" d="M11.5362 8.43073C13.2082 8.43073 14.5651 9.78594 14.5651 11.4596C14.5651 13.1316 13.2082 14.4885 11.5362 14.4885C9.86254 14.4885 8.50732 13.1316 8.50732 11.4596C8.50732 9.78594 9.86254 8.43073 11.5362 8.43073Z" fill="#E269FF"/>
</svg>
