<svg width="24" height="24" viewBox="0 0 24 24" fill="none" xmlns="http://www.w3.org/2000/svg">
<path d="M4.54407 4.576L11.9798 12.0117V1.49609C9.07571 1.49609 6.44681 2.67326 4.54407 4.576Z" fill="#FFE7E1"/>
<path d="M1.47827 12.022H11.9939L4.55817 4.58691C2.50471 6.63979 1.47827 9.3312 1.47827 12.022Z" fill="#E4F5FF"/>
<path d="M4.57575 19.4557L12.0115 12.02H1.49585C1.49585 14.9241 2.67301 17.553 4.57575 19.4557Z" fill="#FFE7E1"/>
<path d="M12.0219 22.5215V12.0059L4.58618 19.4416C6.63964 21.495 9.33047 22.5215 12.0219 22.5215Z" fill="#E4F5FF"/>
<path d="M19.4558 19.4245L12.0201 11.9888V22.5044C14.9242 22.5044 17.5531 21.3272 19.4558 19.4245Z" fill="#FFE7E1"/>
<path d="M22.5218 11.978H12.0062L19.4419 19.4137C21.4954 17.3603 22.5218 14.6694 22.5218 11.978Z" fill="#E4F5FF"/>
<path d="M19.4242 4.54395L11.9885 11.9796H22.5041C22.5041 9.07559 21.327 6.44669 19.4242 4.54395Z" fill="#FFE7E1"/>
<path d="M11.978 1.47803V11.9936L19.4137 4.55793C17.3603 2.50447 14.6689 1.47803 11.978 1.47803Z" fill="#E4F5FF"/>
<path fill-rule="evenodd" clip-rule="evenodd" d="M11.978 1H11.4998V10.8517L4.5582 3.91064L4.22003 4.24872C2.0732 6.39493 1 9.20961 1 12.0221V12.5003H10.8514L3.90979 19.4419L4.24797 19.7801C6.39473 21.9268 9.20879 23 12.0219 23H12.5001V13.1485L19.4419 20.0903L19.7801 19.7521C21.9268 17.6054 23 14.7913 23 11.9783V11.5H13.1482L20.0901 4.55816L19.7519 4.21998C17.6051 2.07321 14.7905 1 11.978 1ZM12.4563 10.8392V1.96785C14.7152 2.07488 16.9442 2.94077 18.7294 4.56608L12.4563 10.8392ZM10.8392 11.5438H1.96785C2.07488 9.28484 2.94078 7.05591 4.56604 5.27116L10.8392 11.5438ZM11.5436 22.0322C9.28422 21.9252 7.05563 21.0593 5.27042 19.434L11.5436 13.1608V22.0322ZM13.1608 12.4565L19.434 18.7297C21.0593 16.9445 21.9252 14.7159 22.0322 12.4565H13.1608Z" fill="#41B7F9"/>
<path fill-rule="evenodd" clip-rule="evenodd" d="M12 21.9C17.4676 21.9 21.9 17.4676 21.9 12C21.9 6.53238 17.4676 2.1 12 2.1C6.53238 2.1 2.1 6.53238 2.1 12C2.1 17.4676 6.53238 21.9 12 21.9ZM12 23C18.0751 23 23 18.0751 23 12C23 5.92487 18.0751 1 12 1C5.92487 1 1 5.92487 1 12C1 18.0751 5.92487 23 12 23Z" fill="#FF4848"/>
<path d="M15 12C15 13.6569 13.6569 15 12 15C10.3431 15 9 13.6569 9 12C9 10.6938 9.83481 9.58257 11 9.17074C11.2402 9.08583 11.7013 7.85089 11.9023 7.28254C11.9344 7.19195 12.0656 7.19195 12.0977 7.28254C12.2987 7.85089 12.7598 9.08583 13 9.17074C14.1652 9.58257 15 10.6938 15 12Z" fill="#FF4848"/>
<path d="M13 12C13 12.5523 12.5523 13 12 13C11.4477 13 11 12.5523 11 12C11 11.4477 11.4477 11 12 11C12.5523 11 13 11.4477 13 12Z" fill="#FF4848"/>
<path fill-rule="evenodd" clip-rule="evenodd" d="M14 12C14 13.1046 13.1046 14 12 14C10.8954 14 10 13.1046 10 12C10 10.8954 10.8954 10 12 10C13.1046 10 14 10.8954 14 12ZM12 13C12.5523 13 13 12.5523 13 12C13 11.4477 12.5523 11 12 11C11.4477 11 11 11.4477 11 12C11 12.5523 11.4477 13 12 13Z" fill="#FFE7E1"/>
<path fill-rule="evenodd" clip-rule="evenodd" d="M12 4.5C7.85786 4.5 4.5 7.85786 4.5 12C4.5 12.2761 4.27614 12.5 4 12.5C3.72386 12.5 3.5 12.2761 3.5 12C3.5 7.30558 7.30558 3.5 12 3.5V4.5Z" fill="#FF4848"/>
<path d="M13.6346 3.79783C13.968 3.99028 13.968 4.47141 13.6346 4.66386L11.327 5.9962C10.9936 6.18865 10.577 5.94809 10.577 5.56319L10.577 2.8985C10.577 2.5136 10.9936 2.27303 11.327 2.46548L13.6346 3.79783Z" fill="#FF4848"/>
<path fill-rule="evenodd" clip-rule="evenodd" d="M12 19.5425C16.1421 19.5425 19.5 16.1846 19.5 12.0425C19.5 11.7663 19.7239 11.5425 20 11.5425C20.2761 11.5425 20.5 11.7663 20.5 12.0425C20.5 16.7369 16.6944 20.5425 12 20.5425V19.5425Z" fill="#FF4848"/>
<path d="M10.3654 20.2446C10.032 20.0522 10.032 19.5711 10.3654 19.3786L12.673 18.0463C13.0064 17.8538 13.423 18.0944 13.423 18.4793L13.423 21.144C13.423 21.5289 13.0064 21.7694 12.673 21.577L10.3654 20.2446Z" fill="#FF4848"/>
</svg>
