<svg width="24" height="24" viewBox="0 0 24 24" fill="none" xmlns="http://www.w3.org/2000/svg">
<path d="M21 14C21 18.9706 16.9706 23 12 23C7.02944 23 3 18.9706 3 14C3 9.02944 7.02944 5 12 5C16.9706 5 21 9.02944 21 14Z" fill="#FBE9FF"/>
<path fill-rule="evenodd" clip-rule="evenodd" d="M12 22C16.4183 22 20 18.4183 20 14C20 9.58172 16.4183 6 12 6C7.58172 6 4 9.58172 4 14C4 18.4183 7.58172 22 12 22ZM12 23C16.9706 23 21 18.9706 21 14C21 9.02944 16.9706 5 12 5C7.02944 5 3 9.02944 3 14C3 18.9706 7.02944 23 12 23Z" fill="#E269FF"/>
<path d="M11.4832 11.3871C11.6402 10.871 12.3598 10.871 12.5168 11.3871L12.84 12.4488C12.91 12.679 13.1196 12.8359 13.3568 12.8359H14.458C14.9754 12.8359 15.1976 13.5027 14.7864 13.8217L13.8496 14.5483C13.6694 14.688 13.5942 14.927 13.6611 15.1469L14.0078 16.2861C14.1633 16.797 13.5811 17.2094 13.1626 16.8847L12.3284 16.2377C12.1345 16.0873 11.8655 16.0873 11.6716 16.2377L10.8374 16.8847C10.4189 17.2094 9.83669 16.797 9.99219 16.2861L10.3389 15.1469C10.4058 14.927 10.3306 14.688 10.1504 14.5483L9.21362 13.8217C8.80243 13.5027 9.02457 12.8359 9.54202 12.8359H10.6432C10.8804 12.8359 11.09 12.6789 11.16 12.4488L11.4832 11.3871Z" fill="#E269FF"/>
<path fill-rule="evenodd" clip-rule="evenodd" d="M12 20C15.3137 20 18 17.3137 18 14C18 10.6863 15.3137 8 12 8C8.68629 8 6 10.6863 6 14C6 17.3137 8.68629 20 12 20ZM12 21C15.866 21 19 17.866 19 14C19 10.134 15.866 7 12 7C8.13401 7 5 10.134 5 14C5 17.866 8.13401 21 12 21Z" fill="#E269FF"/>
<path d="M11.5 0.5C11.5 0.223858 11.7239 0 12 0C12.2761 0 12.5 0.223858 12.5 0.5V3.5C12.5 3.77614 12.2761 4 12 4C11.7239 4 11.5 3.77614 11.5 3.5V0.5Z" fill="#E269FF"/>
<path d="M6 2.5C6 2.22386 6.22386 2 6.5 2V2C6.77614 2 7 2.22386 7 2.5V5.5C7 5.77614 6.77614 6 6.5 6V6C6.22386 6 6 5.77614 6 5.5V2.5Z" fill="#E269FF"/>
<path d="M17 2.5C17 2.22386 17.2239 2 17.5 2V2C17.7761 2 18 2.22386 18 2.5V5.5C18 5.77614 17.7761 6 17.5 6V6C17.2239 6 17 5.77614 17 5.5V2.5Z" fill="#E269FF"/>
</svg>
