<svg viewBox="8 8 80 36" fill="none" xmlns="http://www.w3.org/2000/svg"><g filter="url(#filter0_d_46243_50172)"><g filter="url(#filter1_d_46243_50172)"><g clip-path="url(#clip0_46243_50172)"><path d="M88 26C88 35.9411 79.9411 44 70 44C60.0589 44 52 35.9411 52 26C52 16.0589 60.0589 8 70 8C79.9411 8 88 16.0589 88 26Z" fill="url(#paint0_linear_46243_50172)"></path><path fill-rule="evenodd" clip-rule="evenodd" d="M70.0004 39.7279C77.5822 39.7279 83.7284 33.5817 83.7284 25.9999C83.7284 18.4181 77.5822 12.2719 70.0004 12.2719C62.4186 12.2719 56.2724 18.4181 56.2724 25.9999C56.2724 33.5817 62.4186 39.7279 70.0004 39.7279ZM70.0004 41.5999C78.616 41.5999 85.6004 34.6155 85.6004 25.9999C85.6004 17.3843 78.616 10.3999 70.0004 10.3999C61.3847 10.3999 54.4004 17.3843 54.4004 25.9999C54.4004 34.6155 61.3847 41.5999 70.0004 41.5999Z" fill="url(#paint1_linear_46243_50172)"></path><path fill-rule="evenodd" clip-rule="evenodd" d="M70.0004 41.2879C78.4437 41.2879 85.2884 34.4432 85.2884 25.9999C85.2884 17.5566 78.4437 10.7119 70.0004 10.7119C61.5571 10.7119 54.7124 17.5566 54.7124 25.9999C54.7124 34.4432 61.5571 41.2879 70.0004 41.2879ZM70.0004 41.5999C78.616 41.5999 85.6004 34.6155 85.6004 25.9999C85.6004 17.3843 78.616 10.3999 70.0004 10.3999C61.3847 10.3999 54.4004 17.3843 54.4004 25.9999C54.4004 34.6155 61.3847 41.5999 70.0004 41.5999Z" fill="url(#paint2_linear_46243_50172)"></path><path fill-rule="evenodd" clip-rule="evenodd" d="M58.2726 12.3442C59.3273 11.4377 60.9036 11.6777 61.8293 12.7155C63.5845 14.683 66.8843 13.3886 66.7342 10.7562C66.6548 9.36257 67.6204 8.10175 69.0143 8.02653C69.3406 8.00892 69.6693 8 70 8C70.443 8 70.8823 8.01601 71.3173 8.04747C72.6903 8.14679 73.6294 9.40429 73.551 10.7786C73.4019 13.3937 76.6315 14.7621 78.3751 12.8075C79.2926 11.779 80.8444 11.5665 81.8796 12.4765C82.4621 12.9887 83.0113 13.5379 83.5235 14.1205C84.4335 15.1556 84.221 16.7074 83.1925 17.625C81.2379 19.3686 82.6064 22.5981 85.2214 22.449C86.5957 22.3706 87.8532 23.3097 87.9525 24.6826C87.984 25.1177 88 25.557 88 26C88 26.3308 87.9911 26.6594 87.9735 26.9858C87.8982 28.3797 86.6375 29.3452 85.2438 29.2658C82.6117 29.1157 81.3175 32.4154 83.2848 34.1705C84.3224 35.0963 84.5624 36.6726 83.656 37.7271C83.1651 38.2983 82.639 38.8382 82.081 39.3437C81.0298 40.296 79.4287 40.0856 78.4845 39.0272C76.7047 37.032 73.4106 38.4715 73.5628 41.1407C73.6433 42.5522 72.6802 43.8576 71.2699 43.9559C70.8504 43.9851 70.4269 44 70 44C69.6855 44 69.3729 43.9919 69.0624 43.976C67.631 43.9025 66.6401 42.607 66.7217 41.176C66.8759 38.4713 63.5142 37.1093 61.7108 39.1308C60.7583 40.1986 59.1409 40.4275 58.0698 39.4788C57.5231 38.9946 57.0062 38.4776 56.5219 37.931C55.573 36.8599 55.8019 35.2423 56.8697 34.2896C58.8913 32.486 57.529 29.1241 54.8242 29.2783C53.3931 29.3599 52.0974 28.3689 52.024 26.9374C52.0081 26.6269 52 26.3144 52 26C52 25.573 52.0149 25.1495 52.0441 24.73C52.1424 23.3197 53.4477 22.3567 54.8591 22.4372C57.5283 22.5894 58.9675 19.2954 56.9725 17.5156C55.9142 16.5714 55.7038 14.9704 56.6561 13.9192C57.1615 13.3612 57.7015 12.8351 58.2726 12.3442ZM73.9741 25.856C73.9741 26.8718 73.5697 27.8468 72.8515 28.565C72.1333 29.2832 71.1583 29.6876 70.1426 29.6876C69.1269 29.6876 68.1527 29.284 67.4344 28.5658C66.7161 27.8475 66.3124 26.8726 66.3124 25.8567C66.3124 24.8408 66.716 23.8661 67.4343 23.1478C68.1527 22.4294 69.1274 22.0259 70.1433 22.0259C71.1592 22.0259 72.1339 22.4295 72.8523 23.1479C73.5705 23.8661 73.9741 24.8403 73.9741 25.856Z" fill="url(#paint3_linear_46243_50172)"></path><path fill-rule="evenodd" clip-rule="evenodd" d="M70 8.6C69.6801 8.6 69.3622 8.60863 69.0466 8.62566C68.0364 8.68017 67.2696 9.6054 67.3333 10.7221C67.5178 13.9583 63.4904 15.4789 61.3816 13.1149C60.6335 12.2762 59.427 12.1431 58.6637 12.7992C58.1116 13.2739 57.5895 13.7826 57.1008 14.322C56.4078 15.087 56.5207 16.3084 57.372 17.0679C59.8188 19.2508 58.0238 23.2186 54.8249 23.0362C53.6799 22.9709 52.7141 23.7473 52.6427 24.7717C52.6144 25.1774 52.6 25.587 52.6 26C52.6 26.3042 52.6078 26.6064 52.6232 26.9067C52.6769 27.9524 53.635 28.7451 54.79 28.6793C58.0771 28.4918 59.7034 32.5656 57.2691 34.7374C56.4043 35.5089 56.2782 36.751 56.971 37.5332C57.4392 38.0617 57.9391 38.5615 58.4676 39.0296C59.2497 39.7224 60.4917 39.5962 61.263 38.7314C63.4346 36.2971 67.5082 37.9232 67.3207 41.2102C67.2549 42.3651 68.0475 43.3231 69.0932 43.3768C69.3935 43.3922 69.6958 43.4 70 43.4C70.413 43.4 70.8225 43.3856 71.2282 43.3573C72.2527 43.2859 73.0291 42.32 72.9638 41.1749C72.7814 37.976 76.7493 36.1806 78.9322 38.6278C79.6917 39.4791 80.9132 39.592 81.6782 38.8991C82.2176 38.4103 82.7263 37.8882 83.201 37.336C83.857 36.5728 83.7239 35.3664 82.8853 34.6182C80.5218 32.5095 82.0418 28.4822 85.278 28.6668C86.3946 28.7304 87.3198 27.9637 87.3743 26.9535C87.3914 26.6379 87.4 26.32 87.4 26C87.4 25.5714 87.3845 25.1466 87.3541 24.7259C87.2823 23.7332 86.3587 22.9851 85.2555 23.048C82.0891 23.2286 80.4027 19.3095 82.7931 17.1772C83.6156 16.4435 83.7315 15.2658 83.0729 14.5166C82.5777 13.9534 82.0467 13.4223 81.4834 12.9272C80.7343 12.2685 79.5566 12.3844 78.8228 13.2069C76.6905 15.5973 72.7715 13.911 72.952 10.7445C73.0149 9.6413 72.2668 8.71772 71.2741 8.64591C70.8534 8.61548 70.4286 8.6 70 8.6ZM73.2766 22.7236C74.1073 23.5543 74.5741 24.6812 74.5741 25.856C74.5741 27.0311 74.1063 28.1587 73.2757 28.9893C72.4452 29.8199 71.3176 30.2876 70.1426 30.2876C68.9677 30.2876 67.8409 29.8208 67.0102 28.9901C66.1793 28.1592 65.7124 27.0317 65.7124 25.8567C65.7124 24.6818 66.1792 23.5544 67.0101 22.7235C67.841 21.8926 68.9683 21.4259 70.1433 21.4259C71.3182 21.4259 72.4457 21.8927 73.2766 22.7236ZM61.8293 12.7155C60.9036 11.6777 59.3273 11.4377 58.2726 12.3442C57.7015 12.8351 57.1615 13.3612 56.6561 13.9192C55.7038 14.9704 55.9142 16.5714 56.9725 17.5156C58.9675 19.2954 57.5283 22.5894 54.8591 22.4372C53.4477 22.3567 52.1424 23.3197 52.0441 24.73C52.0149 25.1495 52 25.573 52 26C52 26.3144 52.0081 26.6269 52.024 26.9374C52.0974 28.3689 53.3931 29.3599 54.8242 29.2783C57.529 29.1241 58.8913 32.486 56.8697 34.2896C55.8019 35.2423 55.573 36.8599 56.5219 37.931C57.0062 38.4776 57.5231 38.9946 58.0698 39.4788C59.1409 40.4275 60.7583 40.1986 61.7108 39.1308C63.5142 37.1093 66.8759 38.4713 66.7217 41.176C66.6401 42.607 67.631 43.9025 69.0624 43.976C69.3729 43.9919 69.6855 44 70 44C70.4269 44 70.8504 43.9851 71.2699 43.9559C72.6802 43.8576 73.6433 42.5522 73.5628 41.1407C73.4106 38.4715 76.7047 37.032 78.4845 39.0272C79.4287 40.0856 81.0298 40.296 82.081 39.3437C82.639 38.8382 83.1651 38.2983 83.656 37.7271C84.5624 36.6726 84.3224 35.0963 83.2848 34.1705C81.3175 32.4154 82.6117 29.1157 85.2438 29.2658C86.6375 29.3452 87.8982 28.3797 87.9735 26.9858C87.9911 26.6594 88 26.3308 88 26C88 25.557 87.984 25.1177 87.9525 24.6826C87.8532 23.3097 86.5957 22.3706 85.2214 22.449C82.6064 22.5981 81.2379 19.3686 83.1925 17.625C84.221 16.7074 84.4335 15.1556 83.5235 14.1205C83.0113 13.5379 82.4621 12.9887 81.8796 12.4765C80.8444 11.5665 79.2926 11.779 78.3751 12.8075C76.6315 14.7621 73.4019 13.3937 73.551 10.7786C73.6294 9.40429 72.6903 8.14679 71.3173 8.04747C70.8823 8.01601 70.443 8 70 8C69.6693 8 69.3406 8.00892 69.0143 8.02653C67.6204 8.10175 66.6548 9.36257 66.7342 10.7562C66.8843 13.3886 63.5845 14.683 61.8293 12.7155ZM72.8515 28.565C73.5697 27.8468 73.9741 26.8718 73.9741 25.856C73.9741 24.8403 73.5705 23.8661 72.8523 23.1479C72.1339 22.4295 71.1592 22.0259 70.1433 22.0259C69.1274 22.0259 68.1527 22.4294 67.4343 23.1478C66.716 23.8661 66.3124 24.8408 66.3124 25.8567C66.3124 26.8726 66.7161 27.8475 67.4344 28.5658C68.1527 29.284 69.1269 29.6876 70.1426 29.6876C71.1583 29.6876 72.1333 29.2832 72.8515 28.565Z" fill="url(#paint4_linear_46243_50172)"></path><path d="M60.4 15.2C60.4 15.8627 59.8627 16.4 59.2 16.4C58.5373 16.4 58 15.8627 58 15.2C58 14.5373 58.5373 14 59.2 14C59.8627 14 60.4 14.5373 60.4 15.2Z" fill="url(#paint5_linear_46243_50172)"></path><path d="M60.4 36.8001C60.4 37.4628 59.8627 38.0001 59.2 38.0001C58.5373 38.0001 58 37.4628 58 36.8001C58 36.1374 58.5373 35.6001 59.2 35.6001C59.8627 35.6001 60.4 36.1374 60.4 36.8001Z" fill="url(#paint6_linear_46243_50172)"></path><path d="M81.9996 15.2C81.9996 15.8627 81.4624 16.4 80.7996 16.4C80.1369 16.4 79.5996 15.8627 79.5996 15.2C79.5996 14.5373 80.1369 14 80.7996 14C81.4624 14 81.9996 14.5373 81.9996 15.2Z" fill="url(#paint7_linear_46243_50172)"></path><path d="M81.9996 36.8001C81.9996 37.4628 81.4624 38.0001 80.7996 38.0001C80.1369 38.0001 79.5996 37.4628 79.5996 36.8001C79.5996 36.1374 80.1369 35.6001 80.7996 35.6001C81.4624 35.6001 81.9996 36.1374 81.9996 36.8001Z" fill="url(#paint8_linear_46243_50172)"></path><path d="M70.8996 10.7C70.8996 11.1971 70.4967 11.6 69.9996 11.6C69.5026 11.6 69.0996 11.1971 69.0996 10.7C69.0996 10.203 69.5026 9.80005 69.9996 9.80005C70.4967 9.80005 70.8996 10.203 70.8996 10.7Z" fill="url(#paint9_radial_46243_50172)"></path><path fill-rule="evenodd" clip-rule="evenodd" d="M71.1988 10.7C71.1988 11.3627 70.6616 11.9 69.9988 11.9C69.3361 11.9 68.7988 11.3627 68.7988 10.7C68.7988 10.0373 69.3361 9.5 69.9988 9.5C70.6616 9.5 71.1988 10.0373 71.1988 10.7ZM69.9988 11.6C70.4959 11.6 70.8988 11.1971 70.8988 10.7C70.8988 10.2029 70.4959 9.8 69.9988 9.8C69.5018 9.8 69.0988 10.2029 69.0988 10.7C69.0988 11.1971 69.5018 11.6 69.9988 11.6Z" fill="url(#paint10_linear_46243_50172)"></path><path d="M55.5988 25.7C55.5988 26.1971 55.1959 26.6 54.6988 26.6C54.2018 26.6 53.7988 26.1971 53.7988 25.7C53.7988 25.203 54.2018 24.8 54.6988 24.8C55.1959 24.8 55.5988 25.203 55.5988 25.7Z" fill="url(#paint11_radial_46243_50172)"></path><path fill-rule="evenodd" clip-rule="evenodd" d="M55.9 25.7C55.9 26.3627 55.3627 26.9 54.7 26.9C54.0373 26.9 53.5 26.3627 53.5 25.7C53.5 25.0373 54.0373 24.5 54.7 24.5C55.3627 24.5 55.9 25.0373 55.9 25.7ZM54.7 26.6C55.1971 26.6 55.6 26.1971 55.6 25.7C55.6 25.2029 55.1971 24.8 54.7 24.8C54.2029 24.8 53.8 25.2029 53.8 25.7C53.8 26.1971 54.2029 26.6 54.7 26.6Z" fill="url(#paint12_linear_46243_50172)"></path><path d="M86.2004 25.7C86.2004 26.1971 85.7974 26.6 85.3004 26.6C84.8033 26.6 84.4004 26.1971 84.4004 25.7C84.4004 25.203 84.8033 24.8 85.3004 24.8C85.7974 24.8 86.2004 25.203 86.2004 25.7Z" fill="url(#paint13_radial_46243_50172)"></path><path fill-rule="evenodd" clip-rule="evenodd" d="M86.4996 25.7C86.4996 26.3627 85.9624 26.9 85.2996 26.9C84.6369 26.9 84.0996 26.3627 84.0996 25.7C84.0996 25.0373 84.6369 24.5 85.2996 24.5C85.9624 24.5 86.4996 25.0373 86.4996 25.7ZM85.2996 26.6C85.7967 26.6 86.1996 26.1971 86.1996 25.7C86.1996 25.2029 85.7967 24.8 85.2996 24.8C84.8026 24.8 84.3996 25.2029 84.3996 25.7C84.3996 26.1971 84.8026 26.6 85.2996 26.6Z" fill="url(#paint14_linear_46243_50172)"></path><path fill-rule="evenodd" clip-rule="evenodd" d="M86.7992 26C86.7992 16.7222 79.277 9.19995 69.9992 9.19995C60.7215 9.19995 53.1992 16.7222 53.1992 26H86.7992Z" fill="url(#paint15_linear_46243_50172)"></path><path d="M70.8996 41.2999C70.8996 41.797 70.4967 42.1999 69.9996 42.1999C69.5026 42.1999 69.0996 41.797 69.0996 41.2999C69.0996 40.8028 69.5026 40.3999 69.9996 40.3999C70.4967 40.3999 70.8996 40.8028 70.8996 41.2999Z" fill="url(#paint16_radial_46243_50172)"></path><path fill-rule="evenodd" clip-rule="evenodd" d="M71.1988 41.3001C71.1988 41.9628 70.6616 42.5001 69.9988 42.5001C69.3361 42.5001 68.7988 41.9628 68.7988 41.3001C68.7988 40.6374 69.3361 40.1001 69.9988 40.1001C70.6616 40.1001 71.1988 40.6374 71.1988 41.3001ZM69.9988 42.2001C70.4959 42.2001 70.8988 41.7972 70.8988 41.3001C70.8988 40.803 70.4959 40.4001 69.9988 40.4001C69.5018 40.4001 69.0988 40.803 69.0988 41.3001C69.0988 41.7972 69.5018 42.2001 69.9988 42.2001Z" fill="url(#paint17_linear_46243_50172)"></path><path fill-rule="evenodd" clip-rule="evenodd" d="M70 43.0526C79.4179 43.0526 87.0526 35.4179 87.0526 26C87.0526 16.5821 79.4179 8.94737 70 8.94737C60.5821 8.94737 52.9474 16.5821 52.9474 26C52.9474 35.4179 60.5821 43.0526 70 43.0526ZM70 44C79.9411 44 88 35.9411 88 26C88 16.0589 79.9411 8 70 8C60.0589 8 52 16.0589 52 26C52 35.9411 60.0589 44 70 44Z" fill="url(#paint18_linear_46243_50172)"></path><path d="M83.8012 25.9999C83.8012 33.6215 77.6227 39.7999 70.0012 39.7999C62.3796 39.7999 56.2012 33.6215 56.2012 25.9999C56.2012 18.3784 62.3796 12.2 70.0012 12.2C77.6227 12.2 83.8012 18.3784 83.8012 25.9999Z" fill="url(#paint19_linear_46243_50172)"></path><path fill-rule="evenodd" clip-rule="evenodd" d="M70.0008 15.8L77.2008 18.8L80.2008 26L77.2008 33.2L70.0008 36.2L62.8008 33.2L59.8008 26L62.8008 18.8L70.0008 15.8ZM76.497 19.5038L70.0008 16.797L63.5045 19.5038L60.7978 26L63.5045 32.4963L70.0008 35.2031L76.497 32.4963L79.2038 26L76.497 19.5038Z" fill="url(#paint20_linear_46243_50172)"></path><path d="M70.0001 26.0001L63.5039 19.5039L70.0001 16.7971V26.0001Z" fill="url(#paint21_linear_46243_50172)"></path><path d="M70.0021 25.9999L63.5059 32.4961L70.0021 35.2029V25.9999Z" fill="url(#paint22_linear_46243_50172)"></path><path d="M69.9999 25.9999L63.5036 32.4961L60.7969 25.9999L69.9999 25.9999Z" fill="url(#paint23_linear_46243_50172)"></path><path d="M70.0021 26.0001L76.4983 19.5039L79.2051 26.0001L70.0021 26.0001Z" fill="url(#paint24_linear_46243_50172)"></path><path d="M70.0018 26.0001L76.498 19.5039L70.0018 16.7971V26.0001Z" fill="url(#paint25_linear_46243_50172)"></path><path d="M70.0018 25.9999L76.498 32.4961L70.0018 35.2029V25.9999Z" fill="url(#paint26_linear_46243_50172)"></path><path d="M69.9999 26.0001L63.5036 19.5039L60.7969 26.0001L69.9999 26.0001Z" fill="url(#paint27_linear_46243_50172)"></path><path d="M70.0021 26.0001L76.4983 32.4963L79.2051 26.0001L70.0021 26.0001Z" fill="url(#paint28_linear_46243_50172)"></path><path d="M70.0011 18.6377L75.1981 20.8031L77.3635 26.0001L75.1981 31.1971L70.0011 33.3625L64.8041 31.1971L62.6387 26.0001L64.8041 20.8031L70.0011 18.6377Z" fill="url(#paint29_linear_46243_50172)"></path><path d="M75.7419 25.855C75.7419 29.0261 73.1712 31.5969 70 31.5969C66.8288 31.5969 64.2581 29.0261 64.2581 25.855C64.2581 22.6838 66.8288 20.1131 70 20.1131C73.1712 20.1131 75.7419 22.6838 75.7419 25.855Z" fill="url(#paint30_linear_46243_50172)" stroke="url(#paint31_linear_46243_50172)" stroke-width="0.516234"></path><path d="M70.0012 29.5999C69.5327 29.5999 69.1167 29.5143 68.7532 29.3432C68.3918 29.1721 68.1081 28.9383 67.9022 28.6417C67.6984 28.3429 67.5976 28.0041 67.5997 27.6254C67.5976 27.3311 67.6564 27.0607 67.7762 26.8144C67.8959 26.568 68.0577 26.3626 68.2615 26.1984C68.4674 26.0318 68.6964 25.9258 68.9486 25.8801V25.8322C68.6166 25.7524 68.3477 25.5687 68.1417 25.2813C67.9379 24.9915 67.8371 24.6573 67.8392 24.2786C67.8371 23.9182 67.9295 23.5965 68.1165 23.3136C68.3035 23.0307 68.5599 22.8083 68.8855 22.6463C69.2112 22.482 69.5831 22.3999 70.0012 22.3999C70.4151 22.3999 70.7839 22.482 71.1074 22.6463C71.4331 22.8083 71.6894 23.0307 71.8764 23.3136C72.0655 23.5965 72.1601 23.9182 72.1601 24.2786C72.1601 24.6573 72.0561 24.9915 71.8481 25.2813C71.6422 25.5687 71.3764 25.7524 71.0507 25.8322V25.8801C71.3028 25.9258 71.5298 26.0318 71.7315 26.1984C71.9353 26.3626 72.0971 26.568 72.2168 26.8144C72.3387 27.0607 72.3996 27.3311 72.3996 27.6254C72.3996 28.0041 72.2967 28.3429 72.0907 28.6417C71.8848 28.9383 71.6012 29.1721 71.2398 29.3432C70.8805 29.5143 70.4677 29.5999 70.0012 29.5999ZM70.0012 28.6212C70.2428 28.6212 70.4529 28.5767 70.6315 28.4877C70.8101 28.3965 70.9488 28.2687 71.0476 28.1045C71.1463 27.9402 71.1967 27.7509 71.1988 27.5364C71.1967 27.3128 71.1432 27.1155 71.0381 26.9444C70.9351 26.771 70.7933 26.6353 70.6126 26.5372C70.434 26.4391 70.2302 26.39 70.0012 26.39C69.7701 26.39 69.5642 26.4391 69.3835 26.5372C69.2028 26.6353 69.0599 26.771 68.9549 26.9444C68.8519 27.1155 68.8015 27.3128 68.8036 27.5364C68.8015 27.7509 68.8498 27.9402 68.9486 28.1045C69.0473 28.2664 69.186 28.3931 69.3646 28.4843C69.5453 28.5756 69.7575 28.6212 70.0012 28.6212ZM70.0012 25.4284C70.1987 25.4284 70.3731 25.3851 70.5244 25.2984C70.6778 25.2117 70.7986 25.0908 70.8868 24.9356C70.9751 24.7805 71.0202 24.6014 71.0223 24.3984C71.0202 24.1976 70.9761 24.022 70.89 23.8714C70.8038 23.7185 70.6841 23.601 70.5307 23.5189C70.3773 23.4345 70.2008 23.3923 70.0012 23.3923C69.7974 23.3923 69.6178 23.4345 69.4623 23.5189C69.3089 23.601 69.1891 23.7185 69.103 23.8714C69.019 24.022 68.978 24.1976 68.9801 24.3984C68.978 24.6014 69.02 24.7805 69.1061 24.9356C69.1944 25.0885 69.3152 25.2094 69.4686 25.2984C69.6241 25.3851 69.8016 25.4284 70.0012 25.4284Z" fill="url(#paint32_linear_46243_50172)"></path><path fill-rule="evenodd" clip-rule="evenodd" d="M74.7992 25.9107C74.7992 23.2353 72.65 21.0662 69.9992 21.0662C67.3484 21.0662 65.1992 23.2353 65.1992 25.9107H74.7992Z" fill="url(#paint33_linear_46243_50172)"></path><path fill-rule="evenodd" clip-rule="evenodd" d="M83.6015 28.3999C83.7328 27.6333 83.8012 26.845 83.8012 26.0408C83.8012 18.3967 77.6227 12.2 70.0012 12.2C62.3796 12.2 56.2012 18.3967 56.2012 26.0408C56.2012 26.845 56.2696 27.6333 56.4008 28.3999C57.5172 21.8797 63.1815 16.9182 70.0012 16.9182C76.8208 16.9182 82.4851 21.8797 83.6015 28.3999Z" fill="url(#paint34_linear_46243_50172)"></path><path fill-rule="evenodd" clip-rule="evenodd" d="M83.3307 25.9999C83.3307 33.3617 77.3629 39.3295 70.0012 39.3295C62.6395 39.3295 56.6716 33.3617 56.6716 25.9999C56.6716 18.6382 62.6395 12.6704 70.0012 12.6704C77.3629 12.6704 83.3307 18.6382 83.3307 25.9999ZM83.8012 25.9999C83.8012 33.6215 77.6227 39.7999 70.0012 39.7999C62.3796 39.7999 56.2012 33.6215 56.2012 25.9999C56.2012 18.3784 62.3796 12.2 70.0012 12.2C77.6227 12.2 83.8012 18.3784 83.8012 25.9999Z" fill="url(#paint35_linear_46243_50172)"></path><path fill-rule="evenodd" clip-rule="evenodd" d="M82 26C82 19.373 76.627 14 70 14C63.373 14 58 19.373 58 26H82Z" fill="url(#paint36_linear_46243_50172)"></path></g></g></g><g filter="url(#filter2_d_46243_50172)"><g filter="url(#filter3_d_46243_50172)"><g clip-path="url(#clip1_46243_50172)"><g filter="url(#filter4_d_46243_50172)"><path d="M66 26C66 35.9411 57.9411 44 48 44C38.0589 44 30 35.9411 30 26C30 16.0589 38.0589 8 48 8C57.9411 8 66 16.0589 66 26Z" fill="url(#paint37_linear_46243_50172)"></path><path fill-rule="evenodd" clip-rule="evenodd" d="M64.701 25.9328C64.701 16.7428 57.2217 9.29175 47.997 9.29175C38.7723 9.29175 31.293 16.7428 31.293 25.9328H64.701Z" fill="url(#paint38_linear_46243_50172)"></path><path fill-rule="evenodd" clip-rule="evenodd" d="M38.2057 10.8954L45.1885 18.7231L44.5954 8.32154C45.6979 8.11046 46.836 8 48 8C49.264 8 50.4975 8.13029 51.6879 8.37814L51.0981 18.7231L57.9748 11.0142C59.9577 12.3367 61.6633 14.0424 62.9858 16.0253L55.277 22.902L65.6219 22.3121C65.8697 23.5025 66 24.7361 66 26C66 27.1639 65.8895 28.3022 65.6785 29.4046L55.2783 28.8116L63.1046 35.7942C61.8013 37.8001 60.1092 39.5302 58.1351 40.8776L51.098 32.9888L51.7041 43.6185C50.5087 43.8685 49.2697 44 48 44C46.8303 44 45.6867 43.8884 44.5792 43.6754L45.1885 32.9903L38.0446 40.9986C36.0472 39.6702 34.3303 37.9535 33.0018 35.9561L41.0099 28.8115L30.3247 29.4208C30.1116 28.3133 30 27.1697 30 26C30 24.7303 30.1315 23.4913 30.3815 22.2959L41.0099 22.902L33.1224 15.8649C34.4698 13.8909 36.1998 12.1988 38.2057 10.8954ZM51.9741 27.4424L49.7289 29.6876H46.5562L44.3124 27.4438V24.2697L46.5562 22.0259H49.7303L51.9741 24.2697V27.4424Z" fill="url(#paint39_linear_46243_50172)"></path><path d="M62.3996 26.0006C62.3996 33.9534 55.9525 40.4005 47.9996 40.4005C40.0467 40.4005 33.5996 33.9534 33.5996 26.0006C33.5996 18.0477 40.0467 11.6006 47.9996 11.6006C55.9525 11.6006 62.3996 18.0477 62.3996 26.0006Z" fill="url(#paint40_linear_46243_50172)"></path><path fill-rule="evenodd" clip-rule="evenodd" d="M48 43.0966C57.4473 43.0966 65.1 35.439 65.1 26C65.1 16.561 57.4473 8.90341 48 8.90341C38.5527 8.90341 30.9 16.561 30.9 26C30.9 35.439 38.5527 43.0966 48 43.0966ZM48 44C57.9411 44 66 35.9411 66 26C66 16.0589 57.9411 8 48 8C38.0589 8 30 16.0589 30 26C30 35.9411 38.0589 44 48 44Z" fill="url(#paint41_linear_46243_50172)"></path><path d="M62.3996 26.0001C62.3996 33.953 55.9525 40.4001 47.9996 40.4001C40.0467 40.4001 33.5996 33.953 33.5996 26.0001C33.5996 18.0472 40.0467 11.6001 47.9996 11.6001C55.9525 11.6001 62.3996 18.0472 62.3996 26.0001Z" fill="url(#paint42_linear_46243_50172)"></path><path fill-rule="evenodd" clip-rule="evenodd" d="M48.0004 15.2L57.6004 20.5923V31.4076L48.0004 36.7999L38.4004 31.4076V20.5923L48.0004 15.2ZM56.6711 21.1296L48.0004 16.2592L39.3297 21.1296V30.8703L48.0004 35.7407L56.6711 30.8703V21.1296Z" fill="url(#paint43_linear_46243_50172)"></path><path d="M48.0026 18.906L54.3684 22.4529V29.5467L48.0026 33.0937L41.6367 29.5467V22.4529L48.0026 18.906Z" fill="url(#paint44_linear_46243_50172)"></path><path d="M54.3672 22.4534L56.6721 21.1299V30.8707L54.3672 29.5472V22.4534Z" fill="url(#paint45_linear_46243_50172)"></path><path d="M41.6367 22.4534L39.3318 21.1299V30.8707L41.6367 29.5472V22.4534Z" fill="url(#paint46_linear_46243_50172)"></path><path d="M48.0059 18.906V16.259L56.6766 21.1294L54.3717 22.4529L48.0059 18.906Z" fill="url(#paint47_linear_46243_50172)"></path><path d="M48.0059 33.0935V35.7405L56.6766 30.8701L54.3717 29.5466L48.0059 33.0935Z" fill="url(#paint48_linear_46243_50172)"></path><path d="M48.0059 18.906V16.259L39.3351 21.1294L41.64 22.4529L48.0059 18.906Z" fill="url(#paint49_linear_46243_50172)"></path><path d="M47.1865 17.3972L40.4277 21.2896L41.2303 21.5767L47.2029 18.2467L47.1865 17.3972Z" fill="url(#paint50_linear_46243_50172)"></path><path d="M48.0059 33.0935V35.7405L39.3351 30.8701L41.64 29.5466L48.0059 33.0935Z" fill="url(#paint51_linear_46243_50172)"></path><path fill-rule="evenodd" clip-rule="evenodd" d="M48.0004 39.7279C55.5821 39.7279 61.7284 33.5817 61.7284 25.9999C61.7284 18.4181 55.5821 12.2719 48.0004 12.2719C40.4186 12.2719 34.2724 18.4181 34.2724 25.9999C34.2724 33.5817 40.4186 39.7279 48.0004 39.7279ZM48.0004 41.5999C56.616 41.5999 63.6004 34.6155 63.6004 25.9999C63.6004 17.3843 56.616 10.3999 48.0004 10.3999C39.3847 10.3999 32.4004 17.3843 32.4004 25.9999C32.4004 34.6155 39.3847 41.5999 48.0004 41.5999Z" fill="url(#paint52_linear_46243_50172)"></path><path fill-rule="evenodd" clip-rule="evenodd" d="M48.0004 41.2879C56.4437 41.2879 63.2884 34.4432 63.2884 25.9999C63.2884 17.5566 56.4437 10.7119 48.0004 10.7119C39.5571 10.7119 32.7124 17.5566 32.7124 25.9999C32.7124 34.4432 39.5571 41.2879 48.0004 41.2879ZM48.0004 41.5999C56.616 41.5999 63.6004 34.6155 63.6004 25.9999C63.6004 17.3843 56.616 10.3999 48.0004 10.3999C39.3847 10.3999 32.4004 17.3843 32.4004 25.9999C32.4004 34.6155 39.3847 41.5999 48.0004 41.5999Z" fill="url(#paint53_linear_46243_50172)"></path><path fill-rule="evenodd" clip-rule="evenodd" d="M61.6015 28.3999C61.7328 27.6333 61.8012 26.845 61.8012 26.0408C61.8012 18.3967 55.6227 12.2 48.0012 12.2C40.3796 12.2 34.2012 18.3967 34.2012 26.0408C34.2012 26.845 34.2696 27.6333 34.4008 28.3999C35.5172 21.8797 41.1815 16.9182 48.0012 16.9182C54.8208 16.9182 60.4851 21.8797 61.6015 28.3999Z" fill="url(#paint54_linear_46243_50172)"></path><path fill-rule="evenodd" clip-rule="evenodd" d="M61.3307 25.9999C61.3307 33.3617 55.3629 39.3295 48.0012 39.3295C40.6395 39.3295 34.6716 33.3617 34.6716 25.9999C34.6716 18.6382 40.6395 12.6704 48.0012 12.6704C55.3629 12.6704 61.3307 18.6382 61.3307 25.9999ZM61.8012 25.9999C61.8012 33.6215 55.6227 39.7999 48.0012 39.7999C40.3796 39.7999 34.2012 33.6215 34.2012 25.9999C34.2012 18.3784 40.3796 12.2 48.0012 12.2C55.6227 12.2 61.8012 18.3784 61.8012 25.9999Z" fill="url(#paint55_linear_46243_50172)"></path><path d="M54 26C54 29.3137 51.3137 32 48 32C44.6863 32 42 29.3137 42 26C42 22.6863 44.6863 20 48 20C51.3137 20 54 22.6863 54 26Z" fill="url(#paint56_linear_46243_50172)"></path><path fill-rule="evenodd" clip-rule="evenodd" d="M48 31.4C50.9823 31.4 53.4 28.9823 53.4 26C53.4 23.0177 50.9823 20.6 48 20.6C45.0177 20.6 42.6 23.0177 42.6 26C42.6 28.9823 45.0177 31.4 48 31.4ZM48 32C51.3137 32 54 29.3137 54 26C54 22.6863 51.3137 20 48 20C44.6863 20 42 22.6863 42 26C42 29.3137 44.6863 32 48 32Z" fill="url(#paint57_linear_46243_50172)"></path><path d="M47.953 29.5999C47.5092 29.5999 47.112 29.5132 46.7613 29.3398C46.4107 29.1641 46.1322 28.9236 45.9258 28.6184C45.7217 28.3132 45.6129 27.9641 45.5996 27.571H46.7979C46.8201 27.8623 46.9411 28.1005 47.1608 28.2854C47.3805 28.4681 47.6445 28.5594 47.953 28.5594C48.1949 28.5594 48.4102 28.5016 48.5988 28.386C48.7874 28.2704 48.9361 28.1097 49.0448 27.9039C49.1536 27.6982 49.2068 27.4635 49.2046 27.1999C49.2068 26.9317 49.1525 26.6935 49.0415 26.4855C48.9305 26.2774 48.7785 26.1144 48.5855 25.9964C48.3924 25.8762 48.1705 25.8161 47.9197 25.8161C47.7156 25.8138 47.5147 25.8531 47.3172 25.934C47.1197 26.0149 46.9633 26.1213 46.8479 26.2531L45.7328 26.0623L46.0889 22.3999H50.0434V23.475H47.1108L46.9144 25.3583H46.9544C47.0809 25.2034 47.2595 25.075 47.4903 24.9733C47.7211 24.8693 47.9741 24.8172 48.2493 24.8172C48.662 24.8172 49.0304 24.919 49.3544 25.1224C49.6784 25.3236 49.9336 25.6011 50.12 25.9548C50.3064 26.3086 50.3996 26.7132 50.3996 27.1687C50.3996 27.6381 50.2953 28.0565 50.0867 28.4242C49.8803 28.7895 49.593 29.0774 49.2246 29.2878C48.8584 29.4959 48.4346 29.5999 47.953 29.5999Z" fill="url(#paint58_linear_46243_50172)"></path><path fill-rule="evenodd" clip-rule="evenodd" d="M52.8012 26C52.8012 23.3492 50.652 21.2 48.0012 21.2C45.3504 21.2 43.2012 23.3492 43.2012 26H52.8012Z" fill="url(#paint59_linear_46243_50172)"></path><path fill-rule="evenodd" clip-rule="evenodd" d="M60 26C60 19.373 54.627 14 48 14C41.373 14 36 19.373 36 26H60Z" fill="url(#paint60_linear_46243_50172)"></path></g></g></g></g><g filter="url(#filter5_d_46243_50172)"><g filter="url(#filter6_d_46243_50172)"><g clip-path="url(#clip2_46243_50172)"><g filter="url(#filter7_d_46243_50172)"><path d="M44 26C44 35.9411 35.9411 44 26 44C16.0589 44 8 35.9411 8 26C8 16.0589 16.0589 8 26 8C35.9411 8 44 16.0589 44 26Z" fill="url(#paint61_linear_46243_50172)"></path><path fill-rule="evenodd" clip-rule="evenodd" d="M42.701 25.9328C42.701 16.7428 35.2217 9.29175 25.997 9.29175C16.7723 9.29175 9.29297 16.7428 9.29297 25.9328H42.701Z" fill="url(#paint62_linear_46243_50172)"></path><path fill-rule="evenodd" clip-rule="evenodd" d="M29.708 8.37997C28.5148 8.13092 27.2783 8 26.0112 8C24.7441 8 23.5076 8.13092 22.3144 8.37997L23.0693 21.1032L12.3129 14.3223C10.7758 16.1236 9.5878 18.2318 8.85352 20.5422L20.1279 26.0006L8.85355 31.4579C9.58796 33.7687 10.7762 35.8771 12.3137 37.6786L23.0693 30.8982L22.3144 43.62C23.5076 43.8691 24.7441 44 26.0112 44C27.2783 44 28.5148 43.8691 29.708 43.62L28.9531 30.8982L39.7087 37.6786C41.2462 35.8771 42.4345 33.7687 43.1689 31.4579L31.8945 26.0006L43.1689 20.5422C42.4346 18.2318 41.2466 16.1236 39.7095 14.3223L28.9531 21.1032L29.708 8.37997ZM28.3119 22.1699L30.6132 26.0007L28.3118 29.8316H23.7106L21.4092 26.0007L23.7105 22.1699H28.3119Z" fill="url(#paint63_linear_46243_50172)"></path><path fill-rule="evenodd" clip-rule="evenodd" d="M26 43.0966C35.4473 43.0966 43.1 35.439 43.1 26C43.1 16.561 35.4473 8.90341 26 8.90341C16.5527 8.90341 8.9 16.561 8.9 26C8.9 35.439 16.5527 43.0966 26 43.0966ZM26 44C35.9411 44 44 35.9411 44 26C44 16.0589 35.9411 8 26 8C16.0589 8 8 16.0589 8 26C8 35.9411 16.0589 44 26 44Z" fill="url(#paint64_linear_46243_50172)"></path><path d="M40.3918 25.9326C40.3918 33.8555 33.9447 40.2783 25.9918 40.2783C18.0389 40.2783 11.5918 33.8555 11.5918 25.9326C11.5918 18.0097 18.0389 11.5869 25.9918 11.5869C33.9447 11.5869 40.3918 18.0097 40.3918 25.9326Z" fill="url(#paint65_linear_46243_50172)"></path><path fill-rule="evenodd" clip-rule="evenodd" d="M26.0004 39.7279C33.5821 39.7279 39.7284 33.5817 39.7284 25.9999C39.7284 18.4181 33.5821 12.2719 26.0004 12.2719C18.4186 12.2719 12.2724 18.4181 12.2724 25.9999C12.2724 33.5817 18.4186 39.7279 26.0004 39.7279ZM26.0004 41.5999C34.616 41.5999 41.6004 34.6155 41.6004 25.9999C41.6004 17.3843 34.616 10.3999 26.0004 10.3999C17.3847 10.3999 10.4004 17.3843 10.4004 25.9999C10.4004 34.6155 17.3847 41.5999 26.0004 41.5999Z" fill="url(#paint66_linear_46243_50172)"></path><path fill-rule="evenodd" clip-rule="evenodd" d="M26.0004 41.2879C34.4437 41.2879 41.2884 34.4432 41.2884 25.9999C41.2884 17.5566 34.4437 10.7119 26.0004 10.7119C17.5571 10.7119 10.7124 17.5566 10.7124 25.9999C10.7124 34.4432 17.5571 41.2879 26.0004 41.2879ZM26.0004 41.5999C34.616 41.5999 41.6004 34.6155 41.6004 25.9999C41.6004 17.3843 34.616 10.3999 26.0004 10.3999C17.3847 10.3999 10.4004 17.3843 10.4004 25.9999C10.4004 34.6155 17.3847 41.5999 26.0004 41.5999Z" fill="url(#paint67_linear_46243_50172)"></path><rect x="15.502" y="25.9956" width="14.8335" height="14.8335" transform="rotate(-45 15.502 25.9956)" fill="#D9D9D9"></rect><path d="M25.9877 15.5067L36.4766 25.9956L25.9877 25.9956L25.9877 15.5067Z" fill="url(#paint68_linear_46243_50172)"></path><path d="M15.5092 25.9933L25.998 36.4822L25.998 25.9933L15.5092 25.9933Z" fill="url(#paint69_linear_46243_50172)"></path><path d="M25.9908 15.5067L15.502 25.9956H25.9908V15.5067Z" fill="#FFE926"></path><path d="M36.4869 25.9933L25.998 36.4822V25.9933H36.4869Z" fill="url(#paint70_linear_46243_50172)"></path><path d="M22.3945 25.9956L25.9904 22.3998L29.5862 25.9956L25.9904 29.5914L22.3945 25.9956Z" fill="url(#paint71_linear_46243_50172)"></path><path fill-rule="evenodd" clip-rule="evenodd" d="M14 26L26 14L38 26L26 38L14 26ZM15.5088 26L26 15.5088L36.4912 26L26 36.4912L15.5088 26Z" fill="url(#paint72_linear_46243_50172)"></path><path d="M32 26C32 29.3137 29.3137 32 26 32C22.6863 32 20 29.3137 20 26C20 22.6863 22.6863 20 26 20C29.3137 20 32 22.6863 32 26Z" fill="url(#paint73_linear_46243_50172)"></path><path fill-rule="evenodd" clip-rule="evenodd" d="M26 31.4C28.9823 31.4 31.4 28.9823 31.4 26C31.4 23.0177 28.9823 20.6 26 20.6C23.0177 20.6 20.6 23.0177 20.6 26C20.6 28.9823 23.0177 31.4 26 31.4ZM26 32C29.3137 32 32 29.3137 32 26C32 22.6863 29.3137 20 26 20C22.6863 20 20 22.6863 20 26C20 29.3137 22.6863 32 26 32Z" fill="url(#paint74_linear_46243_50172)"></path><path d="M25.9916 29.5999C25.533 29.5999 25.1253 29.5155 24.7685 29.3467C24.4139 29.1778 24.1336 28.9429 23.9277 28.6417C23.7217 28.3406 23.6123 27.9927 23.5996 27.598H24.7972C24.8078 27.7874 24.8662 27.9528 24.9724 28.0942C25.0786 28.2334 25.2198 28.3417 25.396 28.4193C25.5723 28.4969 25.7697 28.5356 25.9884 28.5356C26.222 28.5356 26.4291 28.4923 26.6095 28.4056C26.79 28.3166 26.9312 28.1934 27.0332 28.036C27.1351 27.8786 27.185 27.6972 27.1829 27.4919C27.185 27.2797 27.134 27.0927 27.03 26.9307C26.9259 26.7687 26.7752 26.6421 26.5777 26.5509C26.3823 26.4596 26.1466 26.414 25.8706 26.414H25.2941V25.4353H25.8706C26.0978 25.4353 26.2963 25.3931 26.4662 25.3086C26.6382 25.2242 26.773 25.1056 26.8707 24.9528C26.9684 24.7976 27.0162 24.6185 27.0141 24.4155C27.0162 24.217 26.9748 24.0448 26.8898 23.8988C26.807 23.7505 26.6892 23.6353 26.5363 23.5531C26.3855 23.471 26.2082 23.4299 26.0044 23.4299C25.8048 23.4299 25.62 23.4687 25.4502 23.5463C25.2803 23.6239 25.1433 23.7345 25.0393 23.8782C24.9352 24.0197 24.88 24.1885 24.8737 24.3847H23.7366C23.7451 23.9923 23.8502 23.6478 24.0519 23.3512C24.2557 23.0524 24.5275 22.8197 24.8673 22.6531C25.207 22.4843 25.5882 22.3999 26.0107 22.3999C26.446 22.3999 26.824 22.4877 27.1446 22.6634C27.4674 22.8368 27.7169 23.0706 27.8931 23.3649C28.0694 23.6592 28.1575 23.9843 28.1575 24.3402C28.1596 24.7349 28.0513 25.0657 27.8326 25.3326C27.616 25.5995 27.3315 25.774 26.979 25.8562V25.9109C27.4377 25.9794 27.7891 26.1619 28.0333 26.4585C28.2796 26.7528 28.4017 27.1189 28.3996 27.5569C28.3996 27.9493 28.2955 28.3007 28.0874 28.6109C27.8815 28.9189 27.5969 29.1607 27.2338 29.3364C26.8728 29.5121 26.4588 29.5999 25.9916 29.5999Z" fill="url(#paint75_linear_46243_50172)"></path><path fill-rule="evenodd" clip-rule="evenodd" d="M30.7992 26C30.7992 23.3492 28.65 21.2 25.9992 21.2C23.3484 21.2 21.1992 23.3492 21.1992 26H30.7992Z" fill="url(#paint76_linear_46243_50172)"></path><path fill-rule="evenodd" clip-rule="evenodd" d="M39.6015 28.3999C39.7328 27.6333 39.8012 26.845 39.8012 26.0408C39.8012 18.3967 33.6227 12.2 26.0012 12.2C18.3796 12.2 12.2012 18.3967 12.2012 26.0408C12.2012 26.845 12.2696 27.6333 12.4008 28.3999C13.5172 21.8797 19.1815 16.9182 26.0012 16.9182C32.8208 16.9182 38.4851 21.8797 39.6015 28.3999Z" fill="url(#paint77_linear_46243_50172)"></path><path fill-rule="evenodd" clip-rule="evenodd" d="M38 26C38 19.373 32.627 14 26 14C19.373 14 14 19.373 14 26H38Z" fill="url(#paint78_linear_46243_50172)"></path><path fill-rule="evenodd" clip-rule="evenodd" d="M39.3307 25.9999C39.3307 33.3617 33.3629 39.3295 26.0012 39.3295C18.6395 39.3295 12.6716 33.3617 12.6716 25.9999C12.6716 18.6382 18.6395 12.6704 26.0012 12.6704C33.3629 12.6704 39.3307 18.6382 39.3307 25.9999ZM39.8012 25.9999C39.8012 33.6215 33.6227 39.7999 26.0012 39.7999C18.3796 39.7999 12.2012 33.6215 12.2012 25.9999C12.2012 18.3784 18.3796 12.2 26.0012 12.2C33.6227 12.2 39.8012 18.3784 39.8012 25.9999Z" fill="url(#paint79_linear_46243_50172)"></path></g></g></g></g><defs><filter id="filter0_d_46243_50172" x="52" y="5.59684" width="42.4084" height="42.4084" filterUnits="userSpaceOnUse" color-interpolation-filters="sRGB"><feFlood flood-opacity="0" result="BackgroundImageFix"></feFlood><feColorMatrix in="SourceAlpha" type="matrix" values="0 0 0 0 0 0 0 0 0 0 0 0 0 0 0 0 0 0 127 0" result="hardAlpha"></feColorMatrix><feOffset dx="3.20421" dy="0.801053"></feOffset><feGaussianBlur stdDeviation="1.60211"></feGaussianBlur><feComposite in2="hardAlpha" operator="out"></feComposite><feColorMatrix type="matrix" values="0 0 0 0 0 0 0 0 0 0 0 0 0 0 0 0 0 0 0.32 0"></feColorMatrix><feBlend mode="normal" in2="BackgroundImageFix" result="effect1_dropShadow_46243_50172"></feBlend><feBlend mode="normal" in="SourceGraphic" in2="effect1_dropShadow_46243_50172" result="shape"></feBlend></filter><filter id="filter1_d_46243_50172" x="37" y="-2" width="66" height="66" filterUnits="userSpaceOnUse" color-interpolation-filters="sRGB"><feFlood flood-opacity="0" result="BackgroundImageFix"></feFlood><feColorMatrix in="SourceAlpha" type="matrix" values="0 0 0 0 0 0 0 0 0 0 0 0 0 0 0 0 0 0 127 0" result="hardAlpha"></feColorMatrix><feOffset dy="5"></feOffset><feGaussianBlur stdDeviation="7.5"></feGaussianBlur><feComposite in2="hardAlpha" operator="out"></feComposite><feColorMatrix type="matrix" values="0 0 0 0 0 0 0 0 0 0 0 0 0 0 0 0 0 0 0.15 0"></feColorMatrix><feBlend mode="normal" in2="BackgroundImageFix" result="effect1_dropShadow_46243_50172"></feBlend><feBlend mode="normal" in="SourceGraphic" in2="effect1_dropShadow_46243_50172" result="shape"></feBlend></filter><filter id="filter2_d_46243_50172" x="30" y="5.59684" width="42.4084" height="42.4084" filterUnits="userSpaceOnUse" color-interpolation-filters="sRGB"><feFlood flood-opacity="0" result="BackgroundImageFix"></feFlood><feColorMatrix in="SourceAlpha" type="matrix" values="0 0 0 0 0 0 0 0 0 0 0 0 0 0 0 0 0 0 127 0" result="hardAlpha"></feColorMatrix><feOffset dx="3.20421" dy="0.801053"></feOffset><feGaussianBlur stdDeviation="1.60211"></feGaussianBlur><feComposite in2="hardAlpha" operator="out"></feComposite><feColorMatrix type="matrix" values="0 0 0 0 0 0 0 0 0 0 0 0 0 0 0 0 0 0 0.32 0"></feColorMatrix><feBlend mode="normal" in2="BackgroundImageFix" result="effect1_dropShadow_46243_50172"></feBlend><feBlend mode="normal" in="SourceGraphic" in2="effect1_dropShadow_46243_50172" result="shape"></feBlend></filter><filter id="filter3_d_46243_50172" x="15" y="-2" width="66" height="66" filterUnits="userSpaceOnUse" color-interpolation-filters="sRGB"><feFlood flood-opacity="0" result="BackgroundImageFix"></feFlood><feColorMatrix in="SourceAlpha" type="matrix" values="0 0 0 0 0 0 0 0 0 0 0 0 0 0 0 0 0 0 127 0" result="hardAlpha"></feColorMatrix><feOffset dy="5"></feOffset><feGaussianBlur stdDeviation="7.5"></feGaussianBlur><feComposite in2="hardAlpha" operator="out"></feComposite><feColorMatrix type="matrix" values="0 0 0 0 0 0 0 0 0 0 0 0 0 0 0 0 0 0 0.15 0"></feColorMatrix><feBlend mode="normal" in2="BackgroundImageFix" result="effect1_dropShadow_46243_50172"></feBlend><feBlend mode="normal" in="SourceGraphic" in2="effect1_dropShadow_46243_50172" result="shape"></feBlend></filter><filter id="filter4_d_46243_50172" x="26" y="5" width="44" height="44" filterUnits="userSpaceOnUse" color-interpolation-filters="sRGB"><feFlood flood-opacity="0" result="BackgroundImageFix"></feFlood><feColorMatrix in="SourceAlpha" type="matrix" values="0 0 0 0 0 0 0 0 0 0 0 0 0 0 0 0 0 0 127 0" result="hardAlpha"></feColorMatrix><feOffset dy="1"></feOffset><feGaussianBlur stdDeviation="2"></feGaussianBlur><feComposite in2="hardAlpha" operator="out"></feComposite><feColorMatrix type="matrix" values="0 0 0 0 0 0 0 0 0 0 0 0 0 0 0 0 0 0 0.1 0"></feColorMatrix><feBlend mode="normal" in2="BackgroundImageFix" result="effect1_dropShadow_46243_50172"></feBlend><feBlend mode="normal" in="SourceGraphic" in2="effect1_dropShadow_46243_50172" result="shape"></feBlend></filter><filter id="filter5_d_46243_50172" x="8" y="5.59684" width="42.4084" height="42.4084" filterUnits="userSpaceOnUse" color-interpolation-filters="sRGB"><feFlood flood-opacity="0" result="BackgroundImageFix"></feFlood><feColorMatrix in="SourceAlpha" type="matrix" values="0 0 0 0 0 0 0 0 0 0 0 0 0 0 0 0 0 0 127 0" result="hardAlpha"></feColorMatrix><feOffset dx="3.20421" dy="0.801053"></feOffset><feGaussianBlur stdDeviation="1.60211"></feGaussianBlur><feComposite in2="hardAlpha" operator="out"></feComposite><feColorMatrix type="matrix" values="0 0 0 0 0 0 0 0 0 0 0 0 0 0 0 0 0 0 0.32 0"></feColorMatrix><feBlend mode="normal" in2="BackgroundImageFix" result="effect1_dropShadow_46243_50172"></feBlend><feBlend mode="normal" in="SourceGraphic" in2="effect1_dropShadow_46243_50172" result="shape"></feBlend></filter><filter id="filter6_d_46243_50172" x="-7" y="-2" width="66" height="66" filterUnits="userSpaceOnUse" color-interpolation-filters="sRGB"><feFlood flood-opacity="0" result="BackgroundImageFix"></feFlood><feColorMatrix in="SourceAlpha" type="matrix" values="0 0 0 0 0 0 0 0 0 0 0 0 0 0 0 0 0 0 127 0" result="hardAlpha"></feColorMatrix><feOffset dy="5"></feOffset><feGaussianBlur stdDeviation="7.5"></feGaussianBlur><feComposite in2="hardAlpha" operator="out"></feComposite><feColorMatrix type="matrix" values="0 0 0 0 0 0 0 0 0 0 0 0 0 0 0 0 0 0 0.15 0"></feColorMatrix><feBlend mode="normal" in2="BackgroundImageFix" result="effect1_dropShadow_46243_50172"></feBlend><feBlend mode="normal" in="SourceGraphic" in2="effect1_dropShadow_46243_50172" result="shape"></feBlend></filter><filter id="filter7_d_46243_50172" x="4" y="5" width="44" height="44" filterUnits="userSpaceOnUse" color-interpolation-filters="sRGB"><feFlood flood-opacity="0" result="BackgroundImageFix"></feFlood><feColorMatrix in="SourceAlpha" type="matrix" values="0 0 0 0 0 0 0 0 0 0 0 0 0 0 0 0 0 0 127 0" result="hardAlpha"></feColorMatrix><feOffset dy="1"></feOffset><feGaussianBlur stdDeviation="2"></feGaussianBlur><feComposite in2="hardAlpha" operator="out"></feComposite><feColorMatrix type="matrix" values="0 0 0 0 0 0 0 0 0 0 0 0 0 0 0 0 0 0 0.1 0"></feColorMatrix><feBlend mode="normal" in2="BackgroundImageFix" result="effect1_dropShadow_46243_50172"></feBlend><feBlend mode="normal" in="SourceGraphic" in2="effect1_dropShadow_46243_50172" result="shape"></feBlend></filter><linearGradient id="paint0_linear_46243_50172" x1="70" y1="8.78261" x2="70" y2="44" gradientUnits="userSpaceOnUse"><stop stop-color="#008F53"></stop><stop offset="1" stop-color="#003425"></stop></linearGradient><linearGradient id="paint1_linear_46243_50172" x1="70.0004" y1="41.5999" x2="70.0004" y2="10.3999" gradientUnits="userSpaceOnUse"><stop stop-color="#007A72"></stop><stop offset="1" stop-color="#026800"></stop></linearGradient><linearGradient id="paint2_linear_46243_50172" x1="83.8004" y1="16.1696" x2="83.8004" y2="36.7755" gradientUnits="userSpaceOnUse"><stop stop-color="#FDB600"></stop><stop offset="1" stop-color="#FFC738"></stop></linearGradient><linearGradient id="paint3_linear_46243_50172" x1="70" y1="16.9995" x2="70" y2="41.7495" gradientUnits="userSpaceOnUse"><stop stop-color="#FFD736"></stop><stop offset="1" stop-color="#AB7710"></stop></linearGradient><linearGradient id="paint4_linear_46243_50172" x1="70" y1="8" x2="70" y2="44" gradientUnits="userSpaceOnUse"><stop stop-color="#65FF9F"></stop><stop offset="1" stop-color="#04E022"></stop></linearGradient><linearGradient id="paint5_linear_46243_50172" x1="59.2889" y1="16" x2="59.2889" y2="14.3111" gradientUnits="userSpaceOnUse"><stop stop-color="#9F6600"></stop><stop offset="1" stop-color="#FBE18C"></stop></linearGradient><linearGradient id="paint6_linear_46243_50172" x1="59.2889" y1="37.6001" x2="59.2889" y2="35.9112" gradientUnits="userSpaceOnUse"><stop stop-color="#9F6600"></stop><stop offset="1" stop-color="#FBE18C"></stop></linearGradient><linearGradient id="paint7_linear_46243_50172" x1="80.8885" y1="16" x2="80.8885" y2="14.3111" gradientUnits="userSpaceOnUse"><stop stop-color="#9F6600"></stop><stop offset="1" stop-color="#FBE18C"></stop></linearGradient><linearGradient id="paint8_linear_46243_50172" x1="80.8885" y1="37.6001" x2="80.8885" y2="35.9112" gradientUnits="userSpaceOnUse"><stop stop-color="#9F6600"></stop><stop offset="1" stop-color="#FBE18C"></stop></linearGradient><radialGradient id="paint9_radial_46243_50172" cx="0" cy="0" r="1" gradientUnits="userSpaceOnUse" gradientTransform="translate(70.059 10.63) rotate(-141.906) scale(0.761671 0.708987)"><stop stop-color="#F1FF4E"></stop><stop offset="1" stop-color="#FDB600"></stop></radialGradient><linearGradient id="paint10_linear_46243_50172" x1="69.9988" y1="9.8" x2="69.9988" y2="11.6" gradientUnits="userSpaceOnUse"><stop stop-color="#C37901"></stop><stop offset="1" stop-color="#FFD90D"></stop></linearGradient><radialGradient id="paint11_radial_46243_50172" cx="0" cy="0" r="1" gradientUnits="userSpaceOnUse" gradientTransform="translate(54.7583 25.63) rotate(-141.906) scale(0.761671 0.708986)"><stop stop-color="#F1FF4E"></stop><stop offset="1" stop-color="#FDB600"></stop></radialGradient><linearGradient id="paint12_linear_46243_50172" x1="54.7" y1="24.8" x2="54.7" y2="26.6" gradientUnits="userSpaceOnUse"><stop stop-color="#C37901"></stop><stop offset="1" stop-color="#FFD90D"></stop></linearGradient><radialGradient id="paint13_radial_46243_50172" cx="0" cy="0" r="1" gradientUnits="userSpaceOnUse" gradientTransform="translate(85.3598 25.63) rotate(-141.906) scale(0.761672 0.708987)"><stop stop-color="#F1FF4E"></stop><stop offset="1" stop-color="#FDB600"></stop></radialGradient><linearGradient id="paint14_linear_46243_50172" x1="85.2996" y1="24.8" x2="85.2996" y2="26.6" gradientUnits="userSpaceOnUse"><stop stop-color="#C37901"></stop><stop offset="1" stop-color="#FFD90D"></stop></linearGradient><linearGradient id="paint15_linear_46243_50172" x1="68.7992" y1="9.19995" x2="68.7992" y2="26.3818" gradientUnits="userSpaceOnUse"><stop stop-color="white" stop-opacity="0.8"></stop><stop offset="1" stop-color="white" stop-opacity="0"></stop></linearGradient><radialGradient id="paint16_radial_46243_50172" cx="0" cy="0" r="1" gradientUnits="userSpaceOnUse" gradientTransform="translate(70.059 41.2298) rotate(-141.906) scale(0.761671 0.708987)"><stop stop-color="#F1FF4E"></stop><stop offset="1" stop-color="#FDB600"></stop></radialGradient><linearGradient id="paint17_linear_46243_50172" x1="69.9988" y1="40.4001" x2="69.9988" y2="42.2001" gradientUnits="userSpaceOnUse"><stop stop-color="#C37901"></stop><stop offset="1" stop-color="#FFD90D"></stop></linearGradient><linearGradient id="paint18_linear_46243_50172" x1="85.9231" y1="9.87892" x2="85.9231" y2="43.4631" gradientUnits="userSpaceOnUse"><stop stop-color="#FFF0C9"></stop><stop offset="0.5" stop-color="#FFD977"></stop><stop offset="1" stop-color="#FFA100" stop-opacity="0.6"></stop></linearGradient><linearGradient id="paint19_linear_46243_50172" x1="70.0012" y1="12.8" x2="70.0012" y2="39.7999" gradientUnits="userSpaceOnUse"><stop stop-color="#008F53"></stop><stop offset="1" stop-color="#003425"></stop></linearGradient><linearGradient id="paint20_linear_46243_50172" x1="70.0008" y1="16.7941" x2="70.0008" y2="35.206" gradientUnits="userSpaceOnUse"><stop stop-color="#CC9F3E"></stop><stop offset="1" stop-color="#B58800"></stop></linearGradient><linearGradient id="paint21_linear_46243_50172" x1="69.9244" y1="17.9475" x2="64.0959" y2="20.4016" gradientUnits="userSpaceOnUse"><stop stop-color="#007C57"></stop><stop offset="1" stop-color="#3DFF88"></stop></linearGradient><linearGradient id="paint22_linear_46243_50172" x1="69.0775" y1="26.9862" x2="62.3813" y2="28.8302" gradientUnits="userSpaceOnUse"><stop stop-color="#007C57"></stop><stop offset="1" stop-color="#0EC858"></stop></linearGradient><linearGradient id="paint23_linear_46243_50172" x1="69.3762" y1="28.6151" x2="61.2501" y2="28.7176" gradientUnits="userSpaceOnUse"><stop stop-color="#00B353"></stop><stop offset="1" stop-color="#01796C"></stop></linearGradient><linearGradient id="paint24_linear_46243_50172" x1="79.2831" y1="25.9726" x2="79.2734" y2="19.5038" gradientUnits="userSpaceOnUse"><stop stop-color="#15E55C"></stop><stop offset="1" stop-color="#01796B"></stop></linearGradient><linearGradient id="paint25_linear_46243_50172" x1="69.9241" y1="17.9475" x2="75.7527" y2="20.4016" gradientUnits="userSpaceOnUse"><stop stop-color="#10C95A"></stop><stop offset="1" stop-color="#6FFFA0"></stop></linearGradient><linearGradient id="paint26_linear_46243_50172" x1="70.0017" y1="28.3556" x2="77.7818" y2="30.4812" gradientUnits="userSpaceOnUse"><stop stop-color="#10C618"></stop><stop offset="1" stop-color="#019A87"></stop></linearGradient><linearGradient id="paint27_linear_46243_50172" x1="63.2079" y1="19.9529" x2="65.1968" y2="26.6809" gradientUnits="userSpaceOnUse"><stop stop-color="#00AA4E"></stop><stop offset="1" stop-color="#84FFBD"></stop></linearGradient><linearGradient id="paint28_linear_46243_50172" x1="78.4628" y1="28.6085" x2="70.3354" y2="28.6085" gradientUnits="userSpaceOnUse"><stop stop-color="#1FFF79"></stop><stop offset="1" stop-color="#6FFFA0"></stop></linearGradient><linearGradient id="paint29_linear_46243_50172" x1="78.2422" y1="29.4136" x2="64.211" y2="20.8665" gradientUnits="userSpaceOnUse"><stop stop-color="#01796D"></stop><stop offset="1" stop-color="#7CFFB0"></stop></linearGradient><linearGradient id="paint30_linear_46243_50172" x1="70" y1="31.255" x2="70" y2="21.055" gradientUnits="userSpaceOnUse"><stop stop-color="#00B31D"></stop><stop offset="1" stop-color="#005B56"></stop></linearGradient><linearGradient id="paint31_linear_46243_50172" x1="70" y1="19.855" x2="70" y2="31.855" gradientUnits="userSpaceOnUse"><stop stop-color="#00CA5D"></stop><stop offset="1" stop-color="#4BFFBE"></stop></linearGradient><linearGradient id="paint32_linear_46243_50172" x1="69.9996" y1="22.3999" x2="69.9996" y2="29.5999" gradientUnits="userSpaceOnUse"><stop stop-color="#FFF500"></stop><stop offset="1" stop-color="#FBFF45" stop-opacity="0.6"></stop></linearGradient><linearGradient id="paint33_linear_46243_50172" x1="69.6564" y1="21.0662" x2="69.6564" y2="25.4703" gradientUnits="userSpaceOnUse"><stop stop-color="white" stop-opacity="0.7"></stop><stop offset="1" stop-color="white" stop-opacity="0"></stop></linearGradient><linearGradient id="paint34_linear_46243_50172" x1="70.0012" y1="12.2" x2="70.0012" y2="26.9635" gradientUnits="userSpaceOnUse"><stop stop-color="#003F2C"></stop><stop offset="1" stop-color="#009087" stop-opacity="0"></stop></linearGradient><linearGradient id="paint35_linear_46243_50172" x1="70.0012" y1="12.2" x2="70.0012" y2="39.7999" gradientUnits="userSpaceOnUse"><stop stop-color="#A65A00"></stop><stop offset="1" stop-color="#FFDA7D"></stop></linearGradient><linearGradient id="paint36_linear_46243_50172" x1="69.1429" y1="14" x2="69.1429" y2="22.1" gradientUnits="userSpaceOnUse"><stop stop-color="white" stop-opacity="0.9"></stop><stop offset="1" stop-color="white" stop-opacity="0"></stop></linearGradient><linearGradient id="paint37_linear_46243_50172" x1="48" y1="8" x2="48" y2="44" gradientUnits="userSpaceOnUse"><stop stop-color="#F0CA00"></stop><stop offset="0.5" stop-color="#EA9F03"></stop><stop offset="1" stop-color="#9D6800" stop-opacity="0.8"></stop></linearGradient><linearGradient id="paint38_linear_46243_50172" x1="46.8038" y1="9.29175" x2="46.8038" y2="26.311" gradientUnits="userSpaceOnUse"><stop stop-color="white"></stop><stop offset="1" stop-color="white" stop-opacity="0"></stop></linearGradient><linearGradient id="paint39_linear_46243_50172" x1="48" y1="8" x2="48" y2="44" gradientUnits="userSpaceOnUse"><stop stop-color="#FF5F5F"></stop><stop offset="0.5" stop-color="#D4001A"></stop><stop offset="1" stop-color="#B50021"></stop></linearGradient><linearGradient id="paint40_linear_46243_50172" x1="47.9996" y1="18.8001" x2="47.9996" y2="38.6001" gradientUnits="userSpaceOnUse"><stop stop-color="#FFD736"></stop><stop offset="1" stop-color="#AB7710"></stop></linearGradient><linearGradient id="paint41_linear_46243_50172" x1="48" y1="8" x2="48" y2="44" gradientUnits="userSpaceOnUse"><stop stop-color="#FF1632"></stop><stop offset="0.5" stop-color="#E2001B"></stop><stop offset="1" stop-color="#960606"></stop></linearGradient><linearGradient id="paint42_linear_46243_50172" x1="47.9996" y1="18.7997" x2="47.9996" y2="38.5997" gradientUnits="userSpaceOnUse"><stop stop-color="#FFD736"></stop><stop offset="1" stop-color="#AB7710"></stop></linearGradient><linearGradient id="paint43_linear_46243_50172" x1="48.0004" y1="16.2592" x2="48.0004" y2="35.7407" gradientUnits="userSpaceOnUse"><stop stop-color="#FF3B3B"></stop><stop offset="1" stop-color="#FFC000"></stop></linearGradient><linearGradient id="paint44_linear_46243_50172" x1="54.3145" y1="18.7857" x2="40.2594" y2="31.3985" gradientUnits="userSpaceOnUse"><stop stop-color="#FF7C7C"></stop><stop offset="1" stop-color="#FF1717"></stop></linearGradient><linearGradient id="paint45_linear_46243_50172" x1="55.9038" y1="31.4118" x2="50.6831" y2="23.5882" gradientUnits="userSpaceOnUse"><stop stop-color="#FF833D"></stop><stop offset="1" stop-color="#E92828"></stop></linearGradient><linearGradient id="paint46_linear_46243_50172" x1="39.716" y1="30.3295" x2="44.0862" y2="23.7113" gradientUnits="userSpaceOnUse"><stop stop-color="#EA041F"></stop><stop offset="1" stop-color="#B20D00"></stop></linearGradient><linearGradient id="paint47_linear_46243_50172" x1="56.6398" y1="16.2065" x2="48.0058" y2="16.2322" gradientUnits="userSpaceOnUse"><stop stop-color="#FF6565"></stop><stop offset="1" stop-color="#C70018"></stop></linearGradient><linearGradient id="paint48_linear_46243_50172" x1="56.4012" y1="30.5" x2="48.1964" y2="34.7747" gradientUnits="userSpaceOnUse"><stop stop-color="#FF253F"></stop><stop offset="1" stop-color="#910A00"></stop></linearGradient><linearGradient id="paint49_linear_46243_50172" x1="47.4066" y1="17.8817" x2="39.9767" y2="18.2166" gradientUnits="userSpaceOnUse"><stop stop-color="#FF8D8D"></stop><stop offset="1" stop-color="#FF9384"></stop></linearGradient><linearGradient id="paint50_linear_46243_50172" x1="44.0375" y1="16.3944" x2="42.4834" y2="22.7417" gradientUnits="userSpaceOnUse"><stop stop-color="white"></stop><stop offset="1" stop-color="white" stop-opacity="0"></stop></linearGradient><linearGradient id="paint51_linear_46243_50172" x1="40.5012" y1="30.5" x2="48.0012" y2="34.4" gradientUnits="userSpaceOnUse"><stop stop-color="#FF1B1B"></stop><stop offset="1" stop-color="#B6001C"></stop></linearGradient><linearGradient id="paint52_linear_46243_50172" x1="48.0004" y1="10.3999" x2="48.0004" y2="41.5999" gradientUnits="userSpaceOnUse"><stop stop-color="#FF1632"></stop><stop offset="0.5" stop-color="#E2001B"></stop><stop offset="1" stop-color="#960606"></stop></linearGradient><linearGradient id="paint53_linear_46243_50172" x1="61.8004" y1="16.1696" x2="61.8004" y2="36.7755" gradientUnits="userSpaceOnUse"><stop stop-color="#F0C501"></stop><stop offset="1" stop-color="#D19C32"></stop></linearGradient><linearGradient id="paint54_linear_46243_50172" x1="48.0012" y1="12.2" x2="48.0012" y2="26.9635" gradientUnits="userSpaceOnUse"><stop stop-color="#794B03"></stop><stop offset="1" stop-color="#A87107" stop-opacity="0"></stop></linearGradient><linearGradient id="paint55_linear_46243_50172" x1="48.0012" y1="12.2" x2="48.0012" y2="39.7999" gradientUnits="userSpaceOnUse"><stop stop-color="#A65A00"></stop><stop offset="1" stop-color="#FFDA7D"></stop></linearGradient><linearGradient id="paint56_linear_46243_50172" x1="48" y1="31.4" x2="48" y2="21.2" gradientUnits="userSpaceOnUse"><stop stop-color="#FF2425"></stop><stop offset="1" stop-color="#8B0119"></stop></linearGradient><linearGradient id="paint57_linear_46243_50172" x1="48" y1="20" x2="48" y2="32" gradientUnits="userSpaceOnUse"><stop stop-color="#F81A1C"></stop><stop offset="1" stop-color="#FFE27B"></stop></linearGradient><linearGradient id="paint58_linear_46243_50172" x1="47.9996" y1="22.3999" x2="47.9996" y2="29.5999" gradientUnits="userSpaceOnUse"><stop stop-color="#FFF500"></stop><stop offset="1" stop-color="#FBFF45" stop-opacity="0.5"></stop></linearGradient><linearGradient id="paint59_linear_46243_50172" x1="47.6583" y1="21.2" x2="47.6583" y2="25.5636" gradientUnits="userSpaceOnUse"><stop stop-color="white" stop-opacity="0.7"></stop><stop offset="1" stop-color="white" stop-opacity="0"></stop></linearGradient><linearGradient id="paint60_linear_46243_50172" x1="47.1429" y1="14" x2="47.1429" y2="22.1" gradientUnits="userSpaceOnUse"><stop stop-color="white" stop-opacity="0.9"></stop><stop offset="1" stop-color="white" stop-opacity="0"></stop></linearGradient><linearGradient id="paint61_linear_46243_50172" x1="27.2476" y1="44" x2="27.2476" y2="9.2" gradientUnits="userSpaceOnUse"><stop stop-color="#F3A000"></stop><stop offset="1" stop-color="#FFC700"></stop></linearGradient><linearGradient id="paint62_linear_46243_50172" x1="24.8038" y1="9.29175" x2="24.8038" y2="26.311" gradientUnits="userSpaceOnUse"><stop stop-color="white"></stop><stop offset="1" stop-color="white" stop-opacity="0"></stop></linearGradient><linearGradient id="paint63_linear_46243_50172" x1="26.0112" y1="8" x2="26.0112" y2="44" gradientUnits="userSpaceOnUse"><stop stop-color="#ECCF76" stop-opacity="0.8"></stop><stop offset="0.5" stop-color="#AC8637"></stop><stop offset="1" stop-color="#6E531F" stop-opacity="0.8"></stop></linearGradient><linearGradient id="paint64_linear_46243_50172" x1="26" y1="8" x2="26" y2="44" gradientUnits="userSpaceOnUse"><stop stop-color="#FFF59D"></stop><stop offset="1" stop-color="#FFC753" stop-opacity="0.6"></stop></linearGradient><linearGradient id="paint65_linear_46243_50172" x1="25.9918" y1="39.2001" x2="25.9918" y2="11.5869" gradientUnits="userSpaceOnUse"><stop stop-color="#A16700"></stop><stop offset="1" stop-color="#FFF06E"></stop></linearGradient><linearGradient id="paint66_linear_46243_50172" x1="26.0004" y1="10.3999" x2="26.0004" y2="41.5999" gradientUnits="userSpaceOnUse"><stop stop-color="#BB8511"></stop><stop offset="1" stop-color="#FCD81D"></stop></linearGradient><linearGradient id="paint67_linear_46243_50172" x1="26.0004" y1="10.3999" x2="26.0004" y2="41.5999" gradientUnits="userSpaceOnUse"><stop stop-color="#FFFEFC"></stop><stop offset="1" stop-color="#FFDC87"></stop></linearGradient><linearGradient id="paint68_linear_46243_50172" x1="26.2988" y1="17.0003" x2="34.6988" y2="25.4003" gradientUnits="userSpaceOnUse"><stop stop-color="#FFFEF1"></stop><stop offset="1" stop-color="#FAAC04"></stop></linearGradient><linearGradient id="paint69_linear_46243_50172" x1="26.6004" y1="35.3" x2="17.9004" y2="25.1" gradientUnits="userSpaceOnUse"><stop stop-color="#FBB213"></stop><stop offset="1" stop-color="#DBA000"></stop></linearGradient><linearGradient id="paint70_linear_46243_50172" x1="35.0016" y1="26.6009" x2="25.7016" y2="36.2009" gradientUnits="userSpaceOnUse"><stop stop-color="#F6DE00"></stop><stop offset="1" stop-color="#C78402"></stop></linearGradient><linearGradient id="paint71_linear_46243_50172" x1="26.0864" y1="23.1145" x2="23.2067" y2="25.9942" gradientUnits="userSpaceOnUse"><stop stop-color="#F05EFF"></stop><stop offset="1" stop-color="#B043C5"></stop></linearGradient><linearGradient id="paint72_linear_46243_50172" x1="26.1685" y1="14" x2="26.1685" y2="38" gradientUnits="userSpaceOnUse"><stop stop-color="#FFDB7C"></stop><stop offset="1" stop-color="#824E00"></stop></linearGradient><linearGradient id="paint73_linear_46243_50172" x1="26" y1="31.4" x2="26" y2="21.2" gradientUnits="userSpaceOnUse"><stop stop-color="#DC9F00"></stop><stop offset="1" stop-color="#503200"></stop></linearGradient><linearGradient id="paint74_linear_46243_50172" x1="26" y1="20" x2="26" y2="32" gradientUnits="userSpaceOnUse"><stop stop-color="#DD9800"></stop><stop offset="1" stop-color="#FFE27B"></stop></linearGradient><linearGradient id="paint75_linear_46243_50172" x1="25.9996" y1="22.3999" x2="25.9996" y2="29.5999" gradientUnits="userSpaceOnUse"><stop stop-color="#FFF500"></stop><stop offset="1" stop-color="#FBFF45" stop-opacity="0.5"></stop></linearGradient><linearGradient id="paint76_linear_46243_50172" x1="25.6564" y1="21.2" x2="25.6564" y2="25.5636" gradientUnits="userSpaceOnUse"><stop stop-color="white" stop-opacity="0.7"></stop><stop offset="1" stop-color="white" stop-opacity="0"></stop></linearGradient><linearGradient id="paint77_linear_46243_50172" x1="26.0012" y1="12.2" x2="26.0012" y2="26.9635" gradientUnits="userSpaceOnUse"><stop stop-color="#794B03"></stop><stop offset="1" stop-color="#A87107" stop-opacity="0"></stop></linearGradient><linearGradient id="paint78_linear_46243_50172" x1="25.1429" y1="14" x2="25.1429" y2="22.1" gradientUnits="userSpaceOnUse"><stop stop-color="white" stop-opacity="0.9"></stop><stop offset="1" stop-color="white" stop-opacity="0"></stop></linearGradient><linearGradient id="paint79_linear_46243_50172" x1="26.0012" y1="12.2" x2="26.0012" y2="39.7999" gradientUnits="userSpaceOnUse"><stop stop-color="#9F6A01"></stop><stop offset="1" stop-color="#FFEC87"></stop></linearGradient><clipPath id="clip0_46243_50172"><rect x="52" y="8" width="36" height="36" rx="18" fill="white"></rect></clipPath><clipPath id="clip1_46243_50172"><rect x="30" y="8" width="36" height="36" rx="18" fill="white"></rect></clipPath><clipPath id="clip2_46243_50172"><rect x="8" y="8" width="36" height="36" rx="18" fill="white"></rect></clipPath></defs></svg>