<svg width="30" height="30" viewBox="0 0 30 30" fill="none" xmlns="http://www.w3.org/2000/svg">
<path fill-rule="evenodd" clip-rule="evenodd" d="M7.42948 14.3099L9.25867 15.4287L7.90502 16.529C7.51816 16.8433 7.1521 17.1864 6.81093 17.5532C6.81082 17.5533 6.81104 17.5531 6.81093 17.5532L6.01615 18.4106L3.46534 16.6875C2.94327 16.3933 2.8004 15.585 3.34984 15.155L4.01578 14.6017C4.96451 13.7875 6.36627 13.6193 7.42948 14.3099ZM6.89092 15.178C6.23532 14.7493 5.31087 14.8314 4.66377 15.3885L4.65704 15.3943L4.08201 15.8719L5.86571 17.0769L6.0774 16.8485C6.45032 16.4475 6.85143 16.0714 7.27547 15.7268C7.27545 15.7269 7.27549 15.7268 7.27547 15.7268L7.49549 15.548L6.89726 15.1821L6.89092 15.178Z" fill="#999999"/>
<path fill-rule="evenodd" clip-rule="evenodd" d="M22.5839 10.7449L23.3203 12.2457C23.4444 12.4336 23.6895 12.4962 23.8741 12.3699C24.55 11.87 25.471 10.8701 25.2259 10.3702C24.9797 9.86918 23.628 9.99545 22.8301 10.2449C22.5839 10.3075 22.4609 10.557 22.5839 10.7449Z" fill="#999999"/>
<path fill-rule="evenodd" clip-rule="evenodd" d="M25.9011 15.7463C25.655 15.2464 23.9966 11.2447 24.2417 11.1205C24.4878 10.9953 26.577 14.7464 26.8231 15.2464C27.0682 15.7463 27.0682 16.2462 26.7616 16.3715C26.4539 16.4967 26.1472 16.1836 25.9011 15.7463Z" fill="#999999"/>
<path fill-rule="evenodd" clip-rule="evenodd" d="M22.2149 5.68031C22.461 6.18025 24.1194 10.1819 23.8743 10.3071C23.6281 10.4324 21.539 6.68123 21.2929 6.18025C21.0477 5.68031 21.0477 5.18036 21.2929 5.05512C21.6005 4.86725 21.9687 5.18036 22.2149 5.68031Z" fill="#999999"/>
<path d="M23.5289 11.1453C23.0066 10.0509 22.4123 9.00032 21.6311 8.36615C21.2291 8.03988 20.7667 7.81415 20.2348 7.75597C19.7044 7.69796 19.1467 7.8111 18.5599 8.09236L18.5467 8.09872L18.5338 8.10586C13.2082 11.0552 8.12842 15.1903 5.70744 17.565L5.68757 17.5845L5.66991 17.6061C5.35294 17.9934 4.59916 18.9814 5.23541 20.2846C5.54038 20.9407 5.99737 21.2954 6.46678 21.4719C6.90528 21.6367 7.33404 21.6366 7.57814 21.6365L7.61943 21.6365L7.64492 21.6338C8.57636 21.5373 9.96399 21.2138 11.517 20.7851L12.0449 19.5707C10.2228 20.0956 8.58668 20.5004 7.56789 20.6099C7.32516 20.6095 7.06599 20.6027 6.81631 20.5089C6.58037 20.4202 6.33208 20.245 6.14578 19.8421L6.1405 19.8313C5.80558 19.1489 6.13576 18.6446 6.42771 18.2844C8.79809 15.964 13.7858 11.9062 19.0027 9.01494C19.4541 8.80078 19.8214 8.74326 20.127 8.77668C20.434 8.81026 20.7204 8.94011 21.002 9.16871C21.5879 9.64428 22.0997 10.5005 22.6215 11.5938C23.145 12.6913 23.5108 13.6479 23.5306 14.4234C23.5401 14.7961 23.4684 15.1046 23.3108 15.3644C23.1529 15.6245 22.8837 15.877 22.4297 16.0943L22.4174 16.1006C22.3942 16.1125 22.3833 16.1168 22.3605 16.1257L22.3605 16.1257L22.3604 16.1257C22.3485 16.1304 22.3332 16.1363 22.3113 16.1452L21.9834 16.3078C21.9019 16.337 21.7818 16.38 21.6275 16.4349C21.319 16.5448 20.8739 16.7021 20.3284 16.8922C19.4694 17.1915 18.3619 17.5716 17.1466 17.9746L16.6172 19.2278C18.1655 18.7223 19.5982 18.2317 20.6552 17.8634C21.203 17.6725 21.6502 17.5144 21.9605 17.404C22.1157 17.3488 22.2367 17.3055 22.319 17.2759L22.4006 17.2466L22.7281 17.0818L22.7516 17.0723C22.7834 17.0593 22.8214 17.0427 22.8649 17.0207C23.4526 16.7384 23.8881 16.3669 24.1691 15.9038C24.4512 15.4387 24.5524 14.9228 24.539 14.3967C24.5129 13.3747 24.0494 12.2365 23.5289 11.1453Z" fill="#999999"/>
<path fill-rule="evenodd" clip-rule="evenodd" d="M18.0861 14.4511L14.393 16.3303C14.3929 16.3303 14.3932 16.3302 14.393 16.3303C14.1352 16.462 13.899 16.6874 13.6953 17.0425L10.7138 23.9013L13.9359 22.2922C14.6292 21.9094 15.1646 21.3117 15.4877 20.6013L18.0861 14.4511ZM19.234 14.3331C19.4105 13.9534 19.2457 13.5889 19.0206 13.3982C18.8002 13.2113 18.4498 13.119 18.1204 13.2859L13.9414 15.4123C13.4683 15.6537 13.0928 16.0463 12.8071 16.5551L12.7942 16.578L9.7034 23.6883L9.69583 23.7114C9.56696 24.1048 9.69754 24.498 9.95164 24.7406C10.2135 24.9907 10.6219 25.0938 11.0114 24.8963L14.3979 23.205L14.4063 23.2003C15.3049 22.7073 15.9943 21.9356 16.4065 21.0252L19.234 14.3331Z" fill="#999999"/>
<path fill-rule="evenodd" clip-rule="evenodd" d="M20.0509 20.2072C20.0509 21.3412 19.1476 22.2604 18.0334 22.2604C16.9191 22.2604 16.0159 21.3412 16.0159 20.2072C16.0159 19.0733 16.9191 18.1541 18.0334 18.1541C19.1476 18.1541 20.0509 19.0733 20.0509 20.2072ZM18.0334 21.2338C18.5905 21.2338 19.0421 20.7742 19.0421 20.2072C19.0421 19.6403 18.5905 19.1806 18.0334 19.1806C17.4763 19.1806 17.0246 19.6403 17.0246 20.2072C17.0246 20.7742 17.4763 21.2338 18.0334 21.2338Z" fill="#999999"/>
</svg>
