<svg width="30" height="30" viewBox="0 0 30 30" fill="none" xmlns="http://www.w3.org/2000/svg">
<path fill-rule="evenodd" clip-rule="evenodd"
      d="M11.6442 5.57679C11.0754 5.38855 10.4347 5.54288 9.95737 6.07955C9.48425 6.61017 9.42929 7.24877 9.51549 7.80677C9.55813 8.08279 9.6339 8.32529 9.69999 8.49989H14.1539C13.7636 7.41429 13.3432 6.76588 12.9541 6.36089C12.5017 5.89004 12.0586 5.71309 11.6442 5.57679ZM15 7.95036C15.4062 6.88307 15.8636 6.16155 16.344 5.66156C16.9573 5.02315 17.5736 4.78323 18.0527 4.62563C19.0047 4.31071 20.0446 4.59225 20.7703 5.40805C21.5157 6.24421 21.5671 7.23395 21.4546 7.96216C21.4243 8.15837 21.3817 8.33973 21.3357 8.5H23.6793C24.6636 8.5 25.5 9.26873 25.5 10.2624V11.7386C25.5 12.7328 24.663 13.5 23.6793 13.5H23.5V21.5101C23.5 23.7503 21.5479 25.5 19.2238 25.5H10.7762C8.45208 25.5 6.5 23.7503 6.5 21.5101V13.5H6.32068C5.33698 13.5 4.5 12.7328 4.5 11.7386V10.2624C4.5 9.26873 5.33643 8.5 6.32068 8.5H8.66428C8.61828 8.33973 8.57568 8.15837 8.54537 7.96216C8.43288 7.23395 8.48429 6.24421 9.22967 5.40805C9.95536 4.59225 10.9953 4.31071 11.9473 4.62563C12.4264 4.78323 13.0427 5.02315 13.656 5.66156C14.1364 6.16155 14.5938 6.88306 15 7.95036ZM5.5 10.2624C5.5 9.86275 5.84604 9.5 6.32068 9.5H23.6793C24.154 9.5 24.5 9.86275 24.5 10.2624V11.7386C24.5 12.1378 24.1545 12.5 23.6793 12.5H23.5H18H12H6.5H6.32068C5.84549 12.5 5.5 12.1378 5.5 11.7386V10.2624ZM7.5 13.5V21.5101C7.5 23.1253 8.92866 24.5 10.7762 24.5H19.2238C21.0713 24.5 22.5 23.1253 22.5 21.5101V13.5H18.5V22C18.5 22.185 18.3978 22.3549 18.2344 22.4417C18.0709 22.5284 17.8729 22.5178 17.7197 22.414L15 20.5728L12.2803 22.414C12.1271 22.5178 11.9291 22.5284 11.7656 22.4417C11.6022 22.3549 11.5 22.185 11.5 22V13.5H7.5ZM12.5 13.5V21.0577L14.7197 19.5549C14.889 19.4403 15.111 19.4403 15.2803 19.5549L17.5 21.0577V13.5H12.5ZM20.0426 6.07955C19.5653 5.54288 18.9246 5.38855 18.3558 5.57679C17.9414 5.71309 17.4983 5.89004 17.0459 6.36089C16.6568 6.76588 16.2364 7.41429 15.8461 8.49989H20.3C20.3661 8.32529 20.4419 8.08279 20.4845 7.80677C20.5707 7.24877 20.5157 6.61017 20.0426 6.07955Z" fill="#999999"/>
</svg>
