<svg xmlns="http://www.w3.org/2000/svg" width="26" height="26" viewBox="0 0 26 26">
    <g fill="none" fill-rule="evenodd">
        <path fill="#FFF" fill-opacity="0" d="M0 26h26V0H0z"/>
        <path fill="#FFE7E1" d="M18.124 5.222c1.263-.29 2.56-.423 3.855-.376"/>
        <path stroke="#FF4848" stroke-linecap="round" d="M18.124 5.222c1.263-.29 2.56-.423 3.855-.376"/>
        <path fill="#FFE7E1" d="M9.439 12.056a9.88 9.88 0 0 1 2.624-3.79"/>
        <path stroke="#FF4848" d="M9.439 12.056a9.88 9.88 0 0 1 2.624-3.79M16.73 11.972s-.719-4.586 1.703-6.855"/>
        <path fill="#FFE7E1" d="M18.328 5.117s-5.177-5.895-12.302.855c0 0 6.72 6.15 12.302-.855"/>
        <path stroke="#FF4848" d="M18.328 5.117s-5.177-5.895-12.302.855c0 0 6.72 6.15 12.302-.855z"/>
        <path fill="#FFE7E1" d="M13.75 17.475a5.354 5.354 0 1 1-10.708 0 5.354 5.354 0 0 1 10.708 0"/>
        <path stroke="#FF4848" d="M13.75 17.475a5.354 5.354 0 1 1-10.708 0 5.354 5.354 0 0 1 10.708 0z"/>
        <path fill="#FFE7E1" d="M17.532 12.121c-1.917 0-3.586 1.016-4.532 2.53 1.115 1.656 1.122 4.023.022 5.69a5.34 5.34 0 0 0 4.51 2.488 5.354 5.354 0 1 0 0-10.708"/>
        <path stroke="#FF4848" d="M17.532 12.121c-1.917 0-3.586 1.016-4.532 2.53 1.115 1.656 1.122 4.023.022 5.69a5.34 5.34 0 0 0 4.51 2.488 5.354 5.354 0 1 0 0-10.708z"/>
    </g>
</svg>
