<svg width="173" height="34" viewBox="0 0 173 34" fill="none" xmlns="http://www.w3.org/2000/svg">
<g clip-path="url(#clip0_24626_243257)">
<path d="M33.9763 30.108C33.9763 32.2336 32.25 33.9601 30.1246 33.9601C27.9993 33.9601 26.273 32.2336 26.273 30.108C26.273 27.9824 27.9993 26.2559 30.1246 26.2559C32.25 26.2559 33.9763 27.9824 33.9763 30.108ZM23.8782 23.8808C23.3194 27.3836 21.2539 30.4373 18.1806 32.2835C14.9975 34.1996 11.2456 34.5289 7.61348 33.2016C3.06335 31.5451 0 27.0643 0 22.0546V0H22.0522C27.0613 0 31.5416 3.06369 33.198 7.61432C34.5251 11.2568 34.1958 15.0091 32.28 18.1826C30.424 21.2562 27.3806 23.322 23.8782 23.8808ZM28.139 12.0153C28.139 8.16319 25.0058 5.85794 21.9823 5.85794H5.85729V21.9847C5.85729 25.0085 8.16229 28.1421 12.0139 28.1421C14.758 28.1421 18.0109 26.246 18.0608 22.833C18.1107 19.6396 14.3988 18.7514 12.9619 20.9269C11.076 23.7711 14.6782 25.278 14.6782 25.278C14.6782 25.278 12.0539 27.4235 9.28985 24.6592C6.915 22.2841 7.56359 19.1606 9.11024 17.5239C10.8764 15.6677 12.6526 15.6378 13.0916 15.6977C12.6825 15.6278 11.2157 15.2885 10.0781 14.1509C7.92281 11.9953 8.16229 8.16319 8.16229 8.16319C8.16229 8.16319 11.994 7.92369 14.1493 10.0792C15.2868 11.2169 15.6261 12.6839 15.6959 13.093C15.6261 12.6539 15.656 10.8776 17.522 9.11124C19.1485 7.56443 22.2817 6.91576 24.6565 9.29087C27.4205 12.0552 25.2752 14.6798 25.2752 14.6798C25.2752 14.6798 23.7684 11.0772 20.9246 12.9633C18.7493 14.4004 19.6374 18.1127 22.8305 18.0628C26.2431 18.0129 28.139 14.7596 28.139 12.0153Z" fill="url(#paint0_linear_24626_243257)"/>
<path fill-rule="evenodd" clip-rule="evenodd" d="M48.6753 10.3423H55.8344V26.2643H60.5097V6H44V26.2643H48.6753V10.3423ZM72.2405 19.7507C72.2405 21.5167 71.1009 22.5588 69.6106 22.5588C68.1204 22.5588 66.9807 21.4006 66.9807 19.7507C66.9807 17.9847 68.2081 16.9426 69.6106 16.9426C71.0715 16.9426 72.2405 18.0717 72.2405 19.7507ZM76.9161 19.7507C76.9161 15.8427 74.1111 12.8899 69.6109 12.8899C65.1106 12.8899 62.3057 15.8427 62.3057 19.7507C62.3057 23.6587 65.1106 26.6116 69.6109 26.6116C74.1111 26.6116 76.9161 23.6587 76.9161 19.7507ZM78.4795 13.2371H82.8625V19.2589L86.4276 13.2371H91.9214L87.655 19.4323L92.5637 26.2645H86.8949L82.8625 20.1849V26.2645H78.4795V13.2371ZM101.169 18.3029H96.4355C96.8445 17.1452 97.5752 16.5083 99.036 16.5083C100.439 16.5083 101.169 17.4056 101.169 18.3029ZM99.1829 26.6116C101.053 26.6116 102.923 26.1481 104.296 25.1352L103.098 22.0667C102.397 22.501 101.169 22.9932 99.6497 22.9932C98.2183 22.9932 96.9909 22.4427 96.5819 21.1985H105.29C105.465 20.6189 105.553 20.0403 105.553 19.0274C105.553 15.3215 102.572 12.8894 99.1829 12.8894C94.8577 12.8894 92.0527 15.9584 92.0527 19.7508C92.0527 23.8613 94.8577 26.6116 99.1829 26.6116ZM111.611 18.1006V22.0664C112.254 22.4429 112.722 22.5591 113.657 22.5591C115.556 22.5591 116.462 21.2274 116.462 19.6348C116.462 18.1298 115.556 16.9424 113.891 16.9424C113.043 16.9424 112.342 17.2897 111.611 18.1006ZM107.229 13.237H111.612V14.2218C112.342 13.4974 113.657 12.8896 115.264 12.8896C118.8 12.8896 121.138 15.6982 121.138 19.5479C121.138 23.5142 118.332 26.6118 114.066 26.6118C113.16 26.6118 112.225 26.4665 111.612 26.2061V32.054H107.229V13.237ZM131.175 22.2115H127.844C128.37 21.4006 128.896 19.9825 129.159 17.8113L129.217 17.29H131.175V22.2115ZM123.256 22.2115H121.562V29.1593H125.652V26.2642H133.659V29.1593H137.75V22.2115H135.558V13.2373H125.127L124.951 16.0454C124.805 18.3322 124.25 20.9085 123.256 22.2115ZM145.697 22.5588C147.187 22.5588 148.327 21.5167 148.327 19.7507C148.327 18.0717 147.158 16.9426 145.697 16.9426C144.295 16.9426 143.067 17.9847 143.067 19.7507C143.067 21.4006 144.207 22.5588 145.697 22.5588ZM145.697 12.8899C150.198 12.8899 153.002 15.8427 153.002 19.7507C153.002 23.6587 150.198 26.6116 145.697 26.6116C141.197 26.6116 138.393 23.6587 138.393 19.7507C138.393 15.8427 141.197 12.8899 145.697 12.8899ZM158.379 13.2371H154.435V26.2645H158.818V19.8661L162.149 23.4851H162.237L165.421 19.8661V26.2645H169.805V13.2371H165.977L162.324 17.6663L158.379 13.2371Z" fill="white"/>
</g>
<defs>
<linearGradient id="paint0_linear_24626_243257" x1="29.955" y1="2.88406" x2="2.88075" y2="29.9553" gradientUnits="userSpaceOnUse">
<stop stop-color="#2EFF71"/>
<stop offset="1" stop-color="#009148"/>
</linearGradient>
<clipPath id="clip0_24626_243257">
<rect width="173" height="34" fill="white"/>
</clipPath>
</defs>
</svg>
