<svg xmlns="http://www.w3.org/2000/svg" width="26" height="26" viewBox="0 0 26 26" fill="none">
  <path fill-rule="evenodd" clip-rule="evenodd" d="M11.048 13C11.2579 14.3404 10.2999 17.0213 8.41082 17.9149C7.8651 18.1135 6.82402 18.8085 7.02552 20H11.937H12.063H16.9745C17.176 18.8085 16.1349 18.1135 15.5892 17.9149C13.7001 17.0213 12.7421 14.3404 12.952 13H12.063H11.937H11.048Z" fill="#FFFCEB" stroke="#FFA300"/>
  <path fill-rule="evenodd" clip-rule="evenodd" d="M12.4844 1.2993C12.2867 0.900234 11.7133 0.900234 11.5156 1.2993L9.39109 5.58754C9.31195 5.7473 9.15797 5.85759 8.98023 5.88185L4.46683 6.49774C4.02011 6.5587 3.84119 7.10406 4.16617 7.41423L7.45936 10.5574C7.58652 10.6788 7.64586 10.8541 7.61829 11.027L6.92421 15.3797C6.85622 15.8061 7.29853 16.133 7.69081 15.9463L11.7665 14.0064C11.9141 13.9362 12.0859 13.9362 12.2335 14.0064L16.3092 15.9463C16.7015 16.133 17.1438 15.8061 17.0758 15.3797L16.3817 11.027C16.3541 10.8541 16.4135 10.6788 16.5406 10.5574L19.8338 7.41423C20.1588 7.10406 19.9799 6.5587 19.5332 6.49774L15.0198 5.88185C14.842 5.85759 14.6881 5.7473 14.6089 5.58754L12.4844 1.2993Z" fill="#FFFCEB" stroke="#FFA300"/>
  <path d="M17.5 19.5C18.6046 19.5 19.5 20.3954 19.5 21.5C19.5 22.6046 18.6046 23.5 17.5 23.5H6.5C5.39543 23.5 4.5 22.6046 4.5 21.5C4.5 20.3954 5.39543 19.5 6.5 19.5H17.5Z" fill="#FFFCEB" stroke="#FFA300"/>
  <path fill-rule="evenodd" clip-rule="evenodd" d="M5.85085 3.79191C5.63523 4.04904 5.26547 4.07095 5.0249 3.84048L3.19482 2.09105C2.95425 1.86058 2.93376 1.46536 3.14849 1.20823C3.36411 0.951104 3.73387 0.9292 3.97443 1.15871L5.80452 2.9091C6.04597 3.13957 6.06647 3.53383 5.85085 3.79191Z" fill="#FFA300"/>
  <path fill-rule="evenodd" clip-rule="evenodd" d="M4.85085 12.2081C4.63523 11.951 4.26547 11.9291 4.0249 12.1595L2.19482 13.909C1.95425 14.1394 1.93376 14.5346 2.14849 14.7918C2.36411 15.0489 2.73387 15.0708 2.97443 14.8413L4.80452 13.0909C5.04597 12.8604 5.06647 12.4662 4.85085 12.2081Z" fill="#FFA300"/>
  <path fill-rule="evenodd" clip-rule="evenodd" d="M18.1492 3.79191C18.3648 4.04904 18.7345 4.07095 18.9751 3.84048L20.8052 2.09105C21.0457 1.86058 21.0662 1.46536 20.8515 1.20823C20.6359 0.951104 20.2661 0.9292 20.0256 1.15871L18.1955 2.9091C17.954 3.13957 17.9335 3.53383 18.1492 3.79191Z" fill="#FFA300"/>
  <path fill-rule="evenodd" clip-rule="evenodd" d="M19.1492 12.2081C19.3648 11.951 19.7345 11.9291 19.9751 12.1595L21.8052 13.909C22.0457 14.1394 22.0662 14.5346 21.8515 14.7918C21.6359 15.0489 21.2661 15.0708 21.0256 14.8413L19.1955 13.0909C18.954 12.8604 18.9335 12.4662 19.1492 12.2081Z" fill="#FFA300"/>
  <path d="M6.5 21.5H17.5" stroke="#FFA300" stroke-linecap="round"/>
</svg>
