<svg width="60" height="60" viewBox="0 0 60 60" fill="none" xmlns="http://www.w3.org/2000/svg">
  <g clip-path="url(#clip0_42194_324584)">
    <path d="M60 30C60 46.5685 46.5685 60 30 60C13.4315 60 0 46.5685 0 30C0 13.4315 13.4315 0 30 0C46.5685 0 60 13.4315 60 30Z" fill="url(#paint0_linear_42194_324584)"/>
    <path fill-rule="evenodd" clip-rule="evenodd" d="M30 58.4211C45.6965 58.4211 58.4211 45.6965 58.4211 30C58.4211 14.3035 45.6965 1.57895 30 1.57895C14.3035 1.57895 1.57895 14.3035 1.57895 30C1.57895 45.6965 14.3035 58.4211 30 58.4211ZM30 60C46.5685 60 60 46.5685 60 30C60 13.4315 46.5685 0 30 0C13.4315 0 0 13.4315 0 30C0 46.5685 13.4315 60 30 60Z" fill="url(#paint1_linear_42194_324584)"/>
    <path fill-rule="evenodd" clip-rule="evenodd" d="M37.0428 0.831328C34.784 0.28793 32.4256 0 30 0C27.5744 0 25.216 0.28793 22.9572 0.831328L24.2982 24.2982L0.831299 22.9573C0.287871 25.2161 0 27.5745 0 30C0 32.4255 0.287871 34.7839 0.831299 37.0427L24.2982 35.7018L22.9572 59.1687C25.216 59.7121 27.5744 60 30 60C32.4256 60 34.784 59.7121 37.0428 59.1687L35.7018 35.7018L59.1687 37.0427C59.7121 34.7839 60 32.4255 60 30C60 27.5745 59.7121 25.2161 59.1687 22.9573L35.7018 24.2982L37.0428 0.831328ZM28.32 28.32H31.68V31.68H28.32V28.32Z" fill="url(#paint2_linear_42194_324584)"/>
    <path fill-rule="evenodd" clip-rule="evenodd" d="M57.8363 30.0041C57.8363 14.6295 45.3708 2.16406 29.9963 2.16406C14.6217 2.16406 2.15625 14.6295 2.15625 30.0041H57.8363Z" fill="url(#paint3_linear_42194_324584)"/>
    <path d="M53.9999 30C53.9999 43.2548 43.2548 53.9999 30 53.9999C16.7451 53.9999 6 43.2548 6 30C6 16.7451 16.7451 6 30 6C43.2548 6 53.9999 16.7451 53.9999 30Z" fill="url(#paint4_linear_42194_324584)"/>
    <path fill-rule="evenodd" clip-rule="evenodd" d="M19.2934 20.6499C19.1312 20.6499 19 20.7815 19 20.9432V34.9347C19 39.1714 22.4671 42.6383 26.7045 42.6383C30.586 42.6383 33.819 39.7291 34.3352 35.984C38.0805 35.4678 40.9896 32.2347 40.9896 28.3539C40.9896 24.1168 37.5229 20.6499 33.2854 20.6499H19.2934ZM23.2499 34.9346V25.0476C23.2499 24.9666 23.3155 24.901 23.3966 24.901H33.284C35.0626 24.901 36.7371 26.2934 36.7371 28.3539C36.7371 30.1048 35.4291 31.7724 33.2919 31.7724L30.43 31.789C30.2693 31.7898 30.1393 31.9199 30.1381 32.0805L30.1219 34.9422C30.1219 37.0796 28.4542 38.3872 26.7031 38.3872C24.6428 38.3872 23.2499 36.7131 23.2499 34.9346ZM35.9308 40.1155C35.9308 41.515 37.0653 42.6499 38.4654 42.6499C39.865 42.6499 41 41.515 41 40.1155C41 38.7155 39.865 37.581 38.4654 37.581C37.0653 37.581 35.9308 38.7155 35.9308 40.1155Z" fill="#656072"/>
    <path fill-rule="evenodd" clip-rule="evenodd" d="M19.2934 19C19.1312 19 19 19.1316 19 19.2933V33.2848C19 37.5215 22.4671 40.9884 26.7045 40.9884C30.586 40.9884 33.819 38.0792 34.3352 34.3341C38.0805 33.8179 40.9896 30.5848 40.9896 26.704C40.9896 22.4668 37.5229 19 33.2854 19H19.2934ZM23.2499 33.2847V23.3977C23.2499 23.3167 23.3155 23.2511 23.3966 23.2511H33.284C35.0626 23.2511 36.7371 24.6434 36.7371 26.704C36.7371 28.4549 35.4291 30.1225 33.2919 30.1225L30.43 30.1391C30.2693 30.1399 30.1393 30.27 30.1381 30.4306L30.1219 33.2923C30.1219 35.4297 28.4542 36.7373 26.7031 36.7373C24.6428 36.7373 23.2499 35.0632 23.2499 33.2847ZM35.9308 38.4656C35.9308 39.8651 37.0653 41 38.4654 41C39.865 41 41 39.8651 41 38.4656C41 37.0656 39.865 35.9311 38.4654 35.9311C37.0653 35.9311 35.9308 37.0656 35.9308 38.4656Z" fill="url(#paint5_linear_42194_324584)"/>
    <path fill-rule="evenodd" clip-rule="evenodd" d="M22.7629 39.8956C21.415 39.0866 20.3314 37.8776 19.6797 36.4359L23.2515 30.2494V33.2847C23.2515 34.4651 23.865 35.5994 24.8799 36.2289L22.7629 39.8956ZM34.7464 19.1396C34.2735 19.048 33.7856 19 33.287 19H29.7463L27.292 23.2511H32.3726L34.7464 19.1396Z" fill="url(#paint6_linear_42194_324584)"/>
    <path fill-rule="evenodd" clip-rule="evenodd" d="M52.6672 34C52.886 32.7222 53 31.4085 53 30.0681C53 17.3279 42.7025 7 30 7C17.2975 7 7 17.3279 7 30.0681C7 31.4085 7.11399 32.7222 7.33277 34C9.19344 23.1328 18.6339 14.8638 30 14.8638C41.3661 14.8638 50.8066 23.1328 52.6672 34Z" fill="url(#paint7_linear_42194_324584)"/>
    <path fill-rule="evenodd" clip-rule="evenodd" d="M52.2159 30C52.2159 42.2695 42.2695 52.2159 30 52.2159C17.7305 52.2159 7.78409 42.2695 7.78409 30C7.78409 17.7305 17.7305 7.78409 30 7.78409C42.2695 7.78409 52.2159 17.7305 52.2159 30ZM53 30C53 42.7025 42.7025 53 30 53C17.2975 53 7 42.7025 7 30C7 17.2975 17.2975 7 30 7C42.7025 7 53 17.2975 53 30Z" fill="url(#paint8_linear_42194_324584)"/>
    <path fill-rule="evenodd" clip-rule="evenodd" d="M30 52.88C42.6363 52.88 52.88 42.6363 52.88 30C52.88 17.3637 42.6363 7.12 30 7.12C17.3637 7.12 7.12 17.3637 7.12 30C7.12 42.6363 17.3637 52.88 30 52.88ZM30 56C44.3594 56 56 44.3594 56 30C56 15.6406 44.3594 4 30 4C15.6406 4 4 15.6406 4 30C4 44.3594 15.6406 56 30 56Z" fill="url(#paint9_linear_42194_324584)"/>
    <path fill-rule="evenodd" clip-rule="evenodd" d="M30 55.48C44.0722 55.48 55.48 44.0722 55.48 30C55.48 15.9278 44.0722 4.52 30 4.52C15.9278 4.52 4.52 15.9278 4.52 30C4.52 44.0722 15.9278 55.48 30 55.48ZM30 56C44.3594 56 56 44.3594 56 30C56 15.6406 44.3594 4 30 4C15.6406 4 4 15.6406 4 30C4 44.3594 15.6406 56 30 56Z" fill="url(#paint10_linear_42194_324584)"/>
    <path fill-rule="evenodd" clip-rule="evenodd" d="M50 30C50 18.9551 41.0449 10 30 10C18.9551 10 10 18.9551 10 30H50Z" fill="url(#paint11_linear_42194_324584)"/>
  </g>
  <defs>
    <linearGradient id="paint0_linear_42194_324584" x1="30" y1="0" x2="30" y2="60" gradientUnits="userSpaceOnUse">
      <stop stop-color="#C4BFD0"/>
      <stop offset="1" stop-color="#605A6D"/>
    </linearGradient>
    <linearGradient id="paint1_linear_42194_324584" x1="30" y1="0" x2="30" y2="60" gradientUnits="userSpaceOnUse">
      <stop stop-color="#E6E6E6"/>
      <stop offset="1" stop-color="#888198"/>
    </linearGradient>
    <linearGradient id="paint2_linear_42194_324584" x1="34" y1="-2.35447e-09" x2="34" y2="60" gradientUnits="userSpaceOnUse">
      <stop stop-color="#009148"/>
      <stop offset="1" stop-color="#2EFF71"/>
    </linearGradient>
    <linearGradient id="paint3_linear_42194_324584" x1="28.0077" y1="2.16406" x2="28.0077" y2="30.6368" gradientUnits="userSpaceOnUse">
      <stop stop-color="white"/>
      <stop offset="1" stop-color="white" stop-opacity="0"/>
    </linearGradient>
    <linearGradient id="paint4_linear_42194_324584" x1="30" y1="6" x2="30" y2="53.9999" gradientUnits="userSpaceOnUse">
      <stop stop-color="#BFB4C7"/>
      <stop offset="1" stop-color="#74678F"/>
    </linearGradient>
    <linearGradient id="paint5_linear_42194_324584" x1="38.2514" y1="20.0968" x2="20.1612" y2="40.9897" gradientUnits="userSpaceOnUse">
      <stop stop-color="#2EFF71"/>
      <stop offset="1" stop-color="#009148"/>
    </linearGradient>
    <linearGradient id="paint6_linear_42194_324584" x1="33.3008" y1="19" x2="18.4508" y2="43.75" gradientUnits="userSpaceOnUse">
      <stop stop-color="white" stop-opacity="0.9"/>
      <stop offset="1" stop-color="white" stop-opacity="0"/>
    </linearGradient>
    <linearGradient id="paint7_linear_42194_324584" x1="30" y1="7" x2="30" y2="31.606" gradientUnits="userSpaceOnUse">
      <stop stop-color="#4A445E"/>
      <stop offset="1" stop-color="#848189" stop-opacity="0"/>
    </linearGradient>
    <linearGradient id="paint8_linear_42194_324584" x1="30" y1="7" x2="30" y2="53" gradientUnits="userSpaceOnUse">
      <stop stop-color="#444058"/>
      <stop offset="1" stop-color="#F3F3F3"/>
    </linearGradient>
    <linearGradient id="paint9_linear_42194_324584" x1="30" y1="4" x2="30" y2="56" gradientUnits="userSpaceOnUse">
      <stop stop-color="#8E8196"/>
      <stop offset="1" stop-color="#ABA5BC"/>
    </linearGradient>
    <linearGradient id="paint10_linear_42194_324584" x1="30" y1="4" x2="30" y2="56" gradientUnits="userSpaceOnUse">
      <stop stop-color="white"/>
      <stop offset="1" stop-color="#CDC8DA"/>
    </linearGradient>
    <linearGradient id="paint11_linear_42194_324584" x1="28.5714" y1="10" x2="28.5714" y2="23.5" gradientUnits="userSpaceOnUse">
      <stop stop-color="white" stop-opacity="0.9"/>
      <stop offset="1" stop-color="white" stop-opacity="0"/>
    </linearGradient>
    <clipPath id="clip0_42194_324584">
      <rect width="60" height="60" rx="30" fill="white"/>
    </clipPath>
  </defs>
</svg>
