<svg xmlns="http://www.w3.org/2000/svg" width="26" height="26" viewBox="0 0 26 26">
    <g fill="none" fill-rule="evenodd">
        <path fill="#FFF" fill-opacity="0" d="M0 26h26V0H0z"/>
        <path fill="#F5FFF5" d="M9.63 21.847c.781-.808 1.746-1.834 2.188-2.424a.769.769 0 0 0 .078-.81.8.8 0 0 0-1.079-.35 4.455 4.455 0 0 1-2.02.478 4.922 4.922 0 0 1-1.71-.314c-1.683-.62-2.78-2.28-2.729-4.13 0-.112.003-.212.008-.317.152-2.873 3.354-5.914 5.928-8.357 1.147-1.09 2.14-2.03 2.777-2.86a.18.18 0 0 1 .294 0c.64.83 1.631 1.77 2.78 2.86 2.572 2.444 5.775 5.484 5.926 8.356.005.105.008.207.01.307.05 1.86-1.048 3.52-2.73 4.14a4.918 4.918 0 0 1-1.71.315 4.456 4.456 0 0 1-2.022-.478.8.8 0 0 0-1.078.351c-.13.26-.1.57.078.809.444.592 1.408 1.617 2.19 2.424H9.63z"/>
        <path fill="#54CC70" d="M13.22 2.188a.681.681 0 0 0-.544.27c-2.082 2.704-8.579 7.135-8.809 11.495a7.6 7.6 0 0 0-.009.33c-.055 2.012 1.14 3.907 3.056 4.613a5.43 5.43 0 0 0 1.883.345c.808 0 1.572-.191 2.246-.531a.316.316 0 0 1 .142-.035c.22 0 .386.245.233.448-.468.624-1.562 1.775-2.287 2.52-.259.266-.065.704.31.704h7.557c.374 0 .568-.438.31-.704-.726-.745-1.82-1.896-2.289-2.52-.152-.203.015-.448.234-.448.045 0 .093.01.141.035a4.995 4.995 0 0 0 2.247.53c.608 0 1.242-.108 1.882-.344 1.916-.706 3.112-2.601 3.056-4.612 0-.107-.003-.217-.008-.331-.23-4.36-6.728-8.791-8.809-11.495a.683.683 0 0 0-.543-.27m0 1.19c.653.779 1.555 1.635 2.58 2.608 2.51 2.382 5.632 5.346 5.773 8.018.005.098.007.19.008.307.045 1.635-.92 3.1-2.403 3.648a4.449 4.449 0 0 1-1.536.282 3.97 3.97 0 0 1-1.797-.424 1.32 1.32 0 0 0-.59-.142c-.488 0-.942.28-1.16.716-.215.43-.167.942.125 1.332.311.413.856 1.022 1.421 1.624h-4.843c.565-.602 1.11-1.21 1.422-1.624.292-.39.34-.901.125-1.332a1.305 1.305 0 0 0-1.159-.716c-.203 0-.407.049-.59.142a3.97 3.97 0 0 1-1.798.424 4.44 4.44 0 0 1-1.536-.282c-1.482-.547-2.448-2.013-2.403-3.673 0-.091.003-.184.008-.281.141-2.673 3.263-5.637 5.772-8.02 1.026-.972 1.928-1.828 2.581-2.607"/>
    </g>
</svg>
