<svg xmlns="http://www.w3.org/2000/svg" width="26" height="26" viewBox="0 0 26 26">
    <g fill="none" fill-rule="evenodd">
        <path fill="#FFF" fill-opacity="0" d="M0 26h26V0H0z"/>
        <path fill="#FFF0FF" d="M13.977 4.983l1.793 3.63c.25.511.739.865 1.302.947l4.006.582a1.09 1.09 0 0 1 .605 1.859l-2.9 2.826a1.73 1.73 0 0 0-.498 1.531l.684 3.99c.153.89-.782 1.57-1.58 1.149l-3.584-1.884a1.732 1.732 0 0 0-1.61 0L8.61 21.497a1.09 1.09 0 0 1-1.58-1.149l.683-3.99a1.73 1.73 0 0 0-.498-1.531l-2.898-2.826a1.09 1.09 0 0 1 .604-1.859l4.006-.582a1.73 1.73 0 0 0 1.302-.947l1.792-3.63a1.09 1.09 0 0 1 1.955 0"/>
        <path stroke="#EB60EF" d="M13.977 4.983l1.793 3.63c.25.511.739.865 1.302.947l4.006.582a1.09 1.09 0 0 1 .605 1.859l-2.9 2.826a1.73 1.73 0 0 0-.498 1.531l.684 3.99c.153.89-.782 1.57-1.58 1.149l-3.584-1.884a1.732 1.732 0 0 0-1.61 0L8.61 21.497a1.09 1.09 0 0 1-1.58-1.149l.683-3.99a1.73 1.73 0 0 0-.498-1.531l-2.898-2.826a1.09 1.09 0 0 1 .604-1.859l4.006-.582a1.73 1.73 0 0 0 1.302-.947l1.792-3.63a1.09 1.09 0 0 1 1.955 0z"/>
    </g>
</svg>
