<svg width="24" height="24" viewBox="0 0 24 24" fill="none" xmlns="http://www.w3.org/2000/svg">
<path d="M16 6.5C16 8.98528 13.9853 11 11.5 11C9.01472 11 7 8.98528 7 6.5C7 4.01472 9.01472 2 11.5 2C13.9853 2 16 4.01472 16 6.5Z" fill="#E1FFD6"/>
<path fill-rule="evenodd" clip-rule="evenodd" d="M11.5 10C13.433 10 15 8.433 15 6.5C15 4.567 13.433 3 11.5 3C9.567 3 8 4.567 8 6.5C8 8.433 9.567 10 11.5 10ZM11.5 11C13.9853 11 16 8.98528 16 6.5C16 4.01472 13.9853 2 11.5 2C9.01472 2 7 4.01472 7 6.5C7 8.98528 9.01472 11 11.5 11Z" fill="#7AE056"/>
<path d="M16.634 10.5C17.0189 9.83333 17.9812 9.83333 18.3661 10.5L22.2632 17.25C22.6481 17.9167 22.167 18.75 21.3972 18.75H13.6029C12.8331 18.75 12.352 17.9167 12.7369 17.25L16.634 10.5Z" fill="#FFD7E3"/>
<path fill-rule="evenodd" clip-rule="evenodd" d="M21.3972 17.75L17.5 11L13.6029 17.75H21.3972ZM18.3661 10.5C17.9812 9.83333 17.0189 9.83333 16.634 10.5L12.7369 17.25C12.352 17.9167 12.8331 18.75 13.6029 18.75H21.3972C22.167 18.75 22.6481 17.9167 22.2632 17.25L18.3661 10.5Z" fill="#FF2E6D"/>
<path d="M3 15C3 13.8954 3.89543 13 5 13H9C10.1046 13 11 13.8954 11 15V19C11 20.1046 10.1046 21 9 21H5C3.89543 21 3 20.1046 3 19V15Z" fill="#EFE3FF"/>
<path fill-rule="evenodd" clip-rule="evenodd" d="M9 14H5C4.44772 14 4 14.4477 4 15V19C4 19.5523 4.44772 20 5 20H9C9.55228 20 10 19.5523 10 19V15C10 14.4477 9.55228 14 9 14ZM5 13C3.89543 13 3 13.8954 3 15V19C3 20.1046 3.89543 21 5 21H9C10.1046 21 11 20.1046 11 19V15C11 13.8954 10.1046 13 9 13H5Z" fill="#A35BFF"/>
</svg>
