<svg width="30" height="30" viewBox="0 0 30 30" fill="none" xmlns="http://www.w3.org/2000/svg">
<path d="M17.9588 18.1904C18.344 17.8092 18.9651 17.7987 19.3631 18.1667L24.2361 22.6719C24.6538 23.058 24.665 23.7098 24.2609 24.1098C23.8757 24.491 23.2546 24.5014 22.8566 24.1334L17.9835 19.6282C17.5659 19.2421 17.5547 18.5903 17.9588 18.1904Z" fill="#999999"/>
<path fill-rule="evenodd" clip-rule="evenodd" d="M17.9496 17.9495L17.9497 17.9494C20.6834 15.2163 20.6834 10.7829 17.9497 8.04988C15.2158 5.31671 10.7842 5.31671 8.05033 8.04988C5.31656 10.7829 5.31656 15.2163 8.05033 17.9494L8.05044 17.9495C10.7843 20.6835 15.2157 20.6835 17.9496 17.9495ZM18.6567 18.6566C21.7811 15.533 21.7811 10.4663 18.6567 7.34268C15.5323 4.21911 10.4677 4.21911 7.34331 7.34268C4.2189 10.4663 4.2189 15.533 7.34331 18.6566C10.4677 21.7811 15.5323 21.7811 18.6567 18.6566Z" fill="#999999"/>
</svg>
