<svg xmlns="http://www.w3.org/2000/svg" width="26" height="26" viewBox="0 0 26 26">
    <g fill="none" fill-rule="evenodd">
        <path fill="#FFF" fill-opacity="0" d="M0 26h26V0H0z"/>
        <path fill="#EBF3FF" d="M4.666 13c0-4.833 3.901-8.75 8.712-8.75 4.812 0 8.713 3.917 8.713 8.75s-3.9 8.75-8.713 8.75c-4.81 0-8.712-3.917-8.712-8.75"/>
        <path stroke="#6CA1FF" d="M4.666 13c0-4.833 3.901-8.75 8.712-8.75 4.812 0 8.713 3.917 8.713 8.75s-3.9 8.75-8.713 8.75c-4.81 0-8.712-3.917-8.712-8.75z"/>
        <path fill="#6CA1FF" d="M21.166 8.522c-.51.62-2.8 3.295-2.865 3.385.023.02-.006 3.603 0 3.61 0 0 1.354 1.676 2.282 2.588.135-.06 1.622-1.357 1.731-4.725.087-2.678-1.149-4.87-1.148-4.858M4.649 11.313c.418.4 2.34 1.94 2.396 2-.011.02.557 2.898.554 2.904 0 0-.545 1.457-.96 2.275-.091-.026-1.225-.804-1.866-3.34-.51-2.017-.125-3.848-.124-3.839M11.107 21.756c1.454.478 3.913.225 4.248-.267.534-.785.622-2.322.71-3.458.004 0 .008-.004.01-.004-.037-.11-3.705-1.722-3.705-1.722-.164.031-2.907 1.817-2.907 1.817-.06.074.252 3.176 1.644 3.634M14.01 6.999c-1.388-.07-2.496-.01-3.846.266-.97.197-2.19 3.358-2.2 4.255.059.114 2.687 2.185 3.717 2.642.182.09.36-.008.359-.041 0 0 3.166-2.213 3.614-3.225-.174-.773-.881-3.86-1.644-3.897"/>
        <path stroke="#6CA1FF" d="M8.44 5.79s1.454 1.214 1.724 2.128M13.973 7.265c.835-1.018 1.948-1.895 3.278-2.106M15.48 10.894c1.1.25 2.174.69 3.108 1.325M15.437 18.183a21.218 21.218 0 0 0 3.243-2.701M11.92 13.728c.128 1.05.326 2.094.61 3.114M8.547 11.37a11.054 11.054 0 0 0-1.92 1.779M7.037 16.31c.9.757 1.89 1.405 2.91 1.984"/>
    </g>
</svg>
