<svg width="22" height="22" viewBox="0 0 22 22" fill="none" xmlns="http://www.w3.org/2000/svg">
<path d="M22 11C22 17.0751 17.0751 22 11 22C4.92487 22 0 17.0751 0 11C0 4.92487 4.92487 0 11 0C17.0751 0 22 4.92487 22 11Z" fill="#FFFADD"/>
<path fill-rule="evenodd" clip-rule="evenodd" d="M11 20.9C16.4676 20.9 20.9 16.4676 20.9 11C20.9 5.53238 16.4676 1.1 11 1.1C5.53238 1.1 1.1 5.53238 1.1 11C1.1 16.4676 5.53238 20.9 11 20.9ZM11 22C17.0751 22 22 17.0751 22 11C22 4.92487 17.0751 0 11 0C4.92487 0 0 4.92487 0 11C0 17.0751 4.92487 22 11 22Z" fill="#F5B100"/>
<rect x="18.5901" y="12.1" width="1.1" height="1.1" rx="0.55" fill="#F5B100"/>
<rect x="2.30994" y="12.1" width="1.1" height="1.1" rx="0.55" fill="#F5B100"/>
<rect x="17.71" y="14.3" width="1.1" height="1.1" rx="0.55" fill="#F5B100"/>
<rect x="15.95" y="16.5" width="1.1" height="1.1" rx="0.55" fill="#F5B100"/>
<path fill-rule="evenodd" clip-rule="evenodd" d="M18.6806 10.4499C18.7019 10.7529 18.9461 11 19.2499 11C19.5537 11 19.8017 10.753 19.783 10.4499C19.499 5.84594 15.6753 2.19995 10.9999 2.19995C6.32455 2.19995 2.50077 5.84594 2.21681 10.4499C2.19811 10.753 2.44614 11 2.7499 11C3.05366 11 3.29786 10.7529 3.31925 10.4499C3.6013 6.45403 6.93229 3.29995 10.9999 3.29995C15.0675 3.29995 18.3985 6.45403 18.6806 10.4499Z" fill="#F5B100"/>
<path fill-rule="evenodd" clip-rule="evenodd" d="M13.5274 13.9438C13.5106 13.9782 13.4757 14 13.4375 14H8.56252C8.52426 14 8.48936 13.9782 8.47261 13.9438L6.18038 9.23712C6.13448 9.14287 6.24611 9.05049 6.33012 9.11321L8.20987 10.5168C8.37456 10.6397 8.60564 10.6179 8.74435 10.4662L10.9262 8.08073C10.9658 8.03738 11.0341 8.03738 11.0738 8.08073L13.2556 10.4662C13.3943 10.6179 13.6254 10.6397 13.7901 10.5168L15.6699 9.11321C15.7539 9.05049 15.8655 9.14287 15.8196 9.23712L13.5274 13.9438ZM7.57356 14.3817L5.28133 9.67497C4.77638 8.63814 6.00431 7.62194 6.9284 8.31193L8.37299 9.39055L10.1883 7.40582C10.6244 6.92902 11.3756 6.92902 11.8117 7.40582L13.627 9.39055L15.0716 8.31193C15.9957 7.62194 17.2236 8.63814 16.7186 9.67497L14.4264 14.3817C14.2422 14.76 13.8582 15 13.4375 15H8.56252C8.14172 15 7.7578 14.76 7.57356 14.3817Z" fill="#F5B100"/>
<path fill-rule="evenodd" clip-rule="evenodd" d="M15 13H7V12H15V13Z" fill="#F5B100"/>
<path fill-rule="evenodd" clip-rule="evenodd" d="M4.37885 15.4C3.93395 15.4 3.66202 15.8793 3.92703 16.2367C5.53041 18.3988 8.1016 19.8 11.0001 19.8C12.0012 19.8 12.9633 19.6328 13.86 19.3248C14.3024 19.1729 14.3273 18.5903 13.9221 18.3567C13.7713 18.2697 13.59 18.2557 13.4247 18.3105C12.6624 18.5632 11.8472 18.7 11.0001 18.7C8.49162 18.7 6.26331 17.5005 4.85744 15.6438C4.74345 15.4933 4.56769 15.4 4.37885 15.4Z" fill="#F5B100"/>
</svg>
