<svg xmlns="http://www.w3.org/2000/svg" xmlns:xlink="http://www.w3.org/1999/xlink" width="26" height="26" viewBox="0 0 26 26">
    <defs>
        <path id="a" d="M0 26h26V0H0z"/>
    </defs>
    <g fill="none" fill-rule="evenodd">
        <path fill="#FFF" d="M0 26h26V0H0z"/>
        <g>
            <path fill="#FFFCEB" d="M12.842 18.102c-3.208 0-5.832-2.625-5.832-5.832V5.526c0-.592.48-1.072 1.072-1.072h9.52c.592 0 1.072.48 1.072 1.072v6.744c0 3.207-2.624 5.832-5.832 5.832"/>
            <path stroke="#FFA608" d="M12.842 18.102c-3.208 0-5.832-2.625-5.832-5.832V5.526c0-.592.48-1.072 1.072-1.072h9.52c.592 0 1.072.48 1.072 1.072v6.744c0 3.207-2.624 5.832-5.832 5.832z"/>
            <path stroke="#FFA608" d="M18.674 8.283c0-.937.76-1.697 1.697-1.697h1.22c.687 0 1.244.557 1.244 1.244 0 0-.402 4.26-1.221 5.173l-.021.022c-1.026 1.13-2.92.347-2.92-1.18V8.284zM6.932 8.283c0-.937-.76-1.697-1.697-1.697h-1.22c-.687 0-1.244.557-1.244 1.244 0 0 .402 4.26 1.221 5.173l.021.022c1.026 1.13 2.92.347 2.92-1.18V8.284z"/>
            <mask id="b" fill="#fff">
                <use xlink:href="#a"/>
            </mask>
            <path fill="#FFFCEB" d="M11.68 21.37h2.168v-3.267H11.68z" mask="url(#b)"/>
            <path stroke="#FFA608" d="M11.68 21.37h2.168v-3.267H11.68z" mask="url(#b)"/>
            <path fill="#FFFCEB" d="M16.03 23.541H9.706c-.812 0-1.47-1.214-1.47-2.026 0-.08.065-.146.146-.146h8.972c.08 0 .146.066.146.146 0 .812-.658 2.026-1.47 2.026" mask="url(#b)"/>
            <path stroke="#FFA608" stroke-linejoin="round" d="M16.03 23.541H9.706c-.812 0-1.47-1.214-1.47-2.026 0-.08.065-.146.146-.146h8.972c.08 0 .146.066.146.146 0 .812-.658 2.026-1.47 2.026z" mask="url(#b)"/>
        </g>
    </g>
</svg>
