<svg width="22" height="22" viewBox="0 0 22 22" fill="none" xmlns="http://www.w3.org/2000/svg">
<rect width="22" height="22" rx="3" fill="white"/>
<path fill-rule="evenodd" clip-rule="evenodd" d="M4.77333 3.5H10.8659C13.9365 3.5 16.555 5.31814 17.5598 8.09564C17.3662 7.93232 17.1207 7.79388 16.8103 7.70411C16.5875 7.63813 16.3582 7.60785 16.1267 7.60785H8.40204C8.28739 7.60785 8.19438 7.70303 8.19438 7.81984V8.56072C8.19438 8.67753 8.28739 8.77163 8.40204 8.77163H15.7817C16.1072 8.77163 16.3463 8.80516 16.5756 8.87438C17.2775 9.08745 17.6409 9.54496 17.8269 9.95921C17.9427 10.2166 18 10.4957 18 10.7769V17.5725C18 18.0083 17.6528 18.3631 17.2245 18.3631H11.1341C8.02673 18.3631 5.38551 16.4995 4.40559 13.6734C4.60785 13.8497 4.87067 14.0032 5.20921 14.0984C5.42553 14.159 5.64833 14.1893 5.87222 14.1893H13.5882C13.7072 14.1893 13.8045 14.0898 13.8045 13.9676V13.2451C13.8045 13.1239 13.7072 13.0244 13.5882 13.0244H6.21724C5.89277 13.0244 5.65374 12.9909 5.42444 12.9227C4.55377 12.6588 4.2055 12.0185 4.06598 11.5502C4.02163 11.3999 4 11.243 4 11.0873V4.28956C4 3.85368 4.34611 3.5 4.77333 3.5Z" fill="url(#paint0_linear_35906_286707)"/>
<defs>
<linearGradient id="paint0_linear_35906_286707" x1="3.38187" y1="19.1439" x2="18.8527" y2="19.1439" gradientUnits="userSpaceOnUse">
<stop stop-color="#0DDFFF"/>
<stop offset="0.465517" stop-color="#735AFF"/>
<stop offset="1" stop-color="#CE3CC3"/>
</linearGradient>
</defs>
</svg>
