<svg width="36" height="36" viewBox="0 0 36 36" fill="none" xmlns="http://www.w3.org/2000/svg">
<path d="M18.0124 33.6751C17.8643 33.6751 17.7163 33.6422 17.6011 33.5599L14.9194 32.0138C14.541 31.8 14.1132 31.6849 13.6854 31.6849H10.5924C10.2962 31.6849 10.0165 31.5204 9.86848 31.2737L8.32195 28.5926C8.10807 28.2143 7.79548 27.9018 7.41707 27.688L4.73534 26.1419C4.4721 25.9938 4.32403 25.7142 4.32403 25.4181V22.3259C4.32403 21.8983 4.20886 21.4706 3.99498 21.0923L2.44846 18.4113C2.30038 18.1481 2.30038 17.8356 2.44846 17.5724L3.99498 14.8914C4.20886 14.5131 4.32403 14.0854 4.32403 13.6578V10.582C4.32403 10.2859 4.48855 10.0063 4.73534 9.85828L7.41707 8.31217C7.79548 8.09834 8.10807 7.78583 8.32195 7.40752L9.86848 4.72649C10.0165 4.46332 10.2962 4.31529 10.5924 4.31529H13.6854C14.1132 4.31529 14.541 4.20015 14.9194 3.98633L17.6011 2.44021C17.7327 2.37442 17.8643 2.32507 18.0124 2.32507C18.1605 2.32507 18.3085 2.35797 18.4237 2.44021L21.1054 3.98633C21.4839 4.20015 21.9116 4.31529 22.3394 4.31529H25.4324C25.7286 4.31529 26.0083 4.47977 26.1563 4.72649L27.7029 7.40752C27.9167 7.78583 28.2293 8.09834 28.6077 8.31217L31.2895 9.85828C31.5527 10.0063 31.7008 10.2859 31.7008 10.582V13.6742C31.7008 14.1019 31.8159 14.5295 32.0298 14.9078L33.5763 17.5889C33.7244 17.852 33.7244 18.1646 33.5763 18.4277L32.0298 21.1088C31.8159 21.4871 31.7008 21.9147 31.7008 22.3424V25.4346C31.7008 25.7307 31.5363 26.0103 31.2895 26.1583L28.6077 27.7044C28.2293 27.9182 27.9167 28.2308 27.7029 28.6091L26.1563 31.2901C26.0083 31.5533 25.7286 31.7013 25.4324 31.7013H22.3394C21.9116 31.7013 21.4839 31.8164 21.1054 32.0303L18.4237 33.5764C18.3085 33.6422 18.1605 33.6751 18.0124 33.6751Z" fill="#F5FFF3"/>
<path d="M18.0165 3.14506L20.6992 4.69142C21.193 4.98754 21.7691 5.13559 22.3451 5.13559H25.4394L26.9865 7.81705C27.2828 8.31057 27.6943 8.73828 28.188 9.01794L30.8708 10.5643V13.657C30.8708 14.2328 31.0189 14.8086 31.3152 15.3021L32.8788 18L31.3317 20.6815C31.0354 21.175 30.8873 21.7507 30.8873 22.3265V25.4192L28.2045 26.9656C27.7107 27.2617 27.2828 27.673 27.003 28.1665L25.4559 30.8479H22.3616C21.7855 30.8479 21.2095 30.996 20.7157 31.2921L18.0165 32.8549L15.3337 31.3086C14.8399 31.0125 14.2638 30.8644 13.6878 30.8644H10.5935L9.04638 28.1829C8.75012 27.6894 8.33865 27.2617 7.84489 26.982L5.16209 25.4357V22.343C5.16209 21.7672 5.01396 21.1914 4.71771 20.6979L3.15411 18L4.70125 15.3185C4.99751 14.825 5.14564 14.2492 5.14564 13.6735V10.5808L7.82843 9.0344C8.32219 8.73828 8.75012 8.32702 9.02992 7.8335L10.5771 5.15204H13.6713C14.2474 5.15204 14.8234 5.00399 15.3172 4.70788L18.0165 3.14506ZM18.0165 1.5C17.7367 1.5 17.4404 1.5658 17.1935 1.71386L14.5107 3.26022C14.2638 3.40827 13.9676 3.47408 13.6878 3.47408H10.5935C10.001 3.47408 9.45785 3.78664 9.1616 4.29661L7.61446 6.99452C7.46633 7.24127 7.25237 7.45513 7.00549 7.60319L4.32269 9.14955C3.81247 9.44566 3.49975 9.98853 3.49975 10.5808V13.6735C3.49975 13.9696 3.41746 14.2492 3.28579 14.496L1.72219 17.1775C1.42594 17.6874 1.42594 18.3126 1.72219 18.839L3.26933 21.5204C3.41746 21.7672 3.48329 22.0633 3.48329 22.343V25.4357C3.48329 26.0279 3.79601 26.5708 4.30623 26.8669L6.98903 28.4133C7.23591 28.5613 7.44987 28.7752 7.598 29.0219L9.14514 31.7034C9.4414 32.2134 9.98454 32.5259 10.5771 32.5259H13.6713C13.9676 32.5259 14.2474 32.6082 14.4943 32.7398L17.1771 34.2861C17.4404 34.4342 17.7202 34.5 18 34.5C18.2798 34.5 18.5761 34.4342 18.8229 34.2861L21.5057 32.7398C21.7526 32.5917 22.0489 32.5259 22.3287 32.5259H25.4229C26.0155 32.5259 26.5586 32.2134 26.8549 31.7034L28.402 29.0219C28.5501 28.7752 28.7641 28.5613 29.011 28.4133L31.6938 26.8669C32.204 26.5708 32.5167 26.0279 32.5167 25.4357V22.343C32.5167 22.0469 32.599 21.7672 32.7307 21.5204L34.2778 18.839C34.5741 18.329 34.5741 17.7039 34.2778 17.1775L32.7307 14.496C32.5825 14.2492 32.5167 13.9531 32.5167 13.6735V10.5808C32.5167 9.98853 32.204 9.44566 31.6938 9.14955L29.011 7.60319C28.7641 7.45513 28.5501 7.24127 28.402 6.99452L26.8549 4.31306C26.5586 3.80309 26.0155 3.49053 25.4229 3.49053H22.3287C22.0324 3.49053 21.7526 3.40828 21.5057 3.27667L18.8394 1.71386C18.5925 1.5658 18.2963 1.5 18.0165 1.5Z" fill="#4CD165"/>
<path d="M12.2982 21.2999L9.40152 17.3478V21.2999H8.09985V14.7197H9.21819L12.1149 18.6915V14.7197H13.4165V21.2999H12.2982Z" fill="#4CD165"/>
<path d="M14.9746 14.7001H18.6046V16.1031H16.3863V17.2689H18.3479V18.6719H16.3863V19.8576H18.6963V21.2606H14.9929V14.7001H14.9746Z" fill="#4CD165"/>
<path d="M26.2133 21.2999H24.875L23.61 17.0712L22.345 21.2999H21.0066L19.1917 14.7197H20.7683L21.795 18.8694L22.9316 14.7197H24.3433L25.5166 18.8694L26.5616 14.7197H27.9L26.2133 21.2999Z" fill="#4CD165"/>
</svg>
