<svg width="22" height="22" viewBox="0 0 22 22" fill="none" xmlns="http://www.w3.org/2000/svg">
<rect width="22" height="22" rx="3" fill="white"/>
<path d="M5.0128 18.007V5.31823L15.7238 10.6737L9.65816 13.7076V10.6737C9.65816 9.99772 9.11191 9.45148 8.43594 9.45148C7.75996 9.45148 7.21371 9.99772 7.21371 10.6737V15.6832C7.21371 16.1088 7.43221 16.5003 7.7941 16.7234C8.15599 16.9464 8.60209 16.9669 8.98218 16.778L19.0035 11.7685C19.4177 11.5614 19.6795 11.1403 19.6795 10.676C19.6795 10.2117 19.4177 9.79061 19.0035 9.58349L4.33683 2.24788C3.95673 2.05897 3.50836 2.07718 3.14874 2.3025C2.78686 2.52555 2.56836 2.91703 2.56836 3.34264V18.007C2.56836 18.683 3.1146 19.2293 3.79058 19.2293C4.46656 19.2293 5.0128 18.683 5.0128 18.007Z" fill="#FF002A"/>
</svg>
