<svg width="24" height="24" viewBox="0 0 24 24" fill="none" xmlns="http://www.w3.org/2000/svg">
<g clip-path="url(#clip0_47659_144673)">
<path d="M10.7745 12.5535C11.1152 10.8473 11.4078 9.29075 11.8385 8.6372C13.6579 6.54046 15.4898 6.93534 16.7111 7.19859C19.1536 7.72525 19.7776 10.8747 19.7842 12.3836C18.731 20.5556 11.8213 22.3503 8.49816 22.2261C4.99776 22.291 1.81538 20.3132 0.846114 18.6768C0.5691 18.1246 0.733729 17.7545 0.966306 17.5941C1.21452 17.423 1.62122 17.4319 1.99385 17.6926C2.8012 18.2573 4.12358 18.7 5.01455 18.6954C8.645 18.6765 10.3672 14.593 10.7745 12.5535Z" fill="#FFE7E1"/>
<path fill-rule="evenodd" clip-rule="evenodd" d="M16.7947 6.70528L16.8164 6.70996C18.2544 7.02001 19.1213 8.10001 19.6182 9.22017C20.1145 10.3392 20.2807 11.5752 20.2842 12.3816L20.2844 12.4148L20.2801 12.4477C19.7339 16.6859 17.6562 19.3059 15.2618 20.8373C12.894 22.3516 10.2393 22.7888 8.49349 22.7264C6.65382 22.7578 4.90765 22.2552 3.49576 21.535C2.09146 20.8186 0.965279 19.8593 0.415924 18.9318L0.407023 18.9168L0.399192 18.9012C0.222918 18.5497 0.162957 18.2062 0.224462 17.8925C0.286079 17.5782 0.462615 17.3342 0.682481 17.1826C1.14781 16.8618 1.78662 16.9376 2.28045 17.283C2.63535 17.5313 3.12158 17.7638 3.63075 17.9332C4.14242 18.1035 4.6391 18.1975 5.01196 18.1955C6.61409 18.1872 7.82032 17.2888 8.69969 16.087C9.58276 14.8802 10.0913 13.4213 10.2842 12.4558C10.3027 12.3629 10.3211 12.2703 10.3395 12.178C10.4887 11.4285 10.6334 10.7021 10.7875 10.0805C10.9562 9.39994 11.1529 8.76902 11.421 8.36224L11.4392 8.33462L11.4609 8.30965C12.4427 7.17819 13.4596 6.68885 14.4222 6.53899C15.3522 6.39421 16.1916 6.57522 16.7947 6.70528ZM12.2395 8.93826C12.0823 9.19152 11.9228 9.65661 11.7581 10.3211C11.61 10.9185 11.4702 11.6203 11.32 12.3746C11.3018 12.4662 11.2834 12.5586 11.2648 12.6516C11.0503 13.7255 10.4942 15.328 9.50672 16.6776C8.51556 18.0321 7.04548 19.185 5.01716 19.1955C4.49904 19.1982 3.88905 19.0731 3.31495 18.8821C2.73834 18.6901 2.15971 18.4189 1.70726 18.1024C1.45584 17.9266 1.28125 17.9844 1.25015 18.0059C1.23744 18.0147 1.21537 18.0359 1.20578 18.0848C1.19633 18.1331 1.19251 18.246 1.2856 18.4377C1.71011 19.1435 2.65539 19.9837 3.95018 20.6442C5.24332 21.3039 6.83329 21.757 8.48889 21.7263L8.50287 21.726L8.51684 21.7266C10.0944 21.7855 12.5482 21.3857 14.723 19.9948C16.8714 18.6208 18.7705 16.2671 19.284 12.3533C19.2765 11.6498 19.1254 10.5754 18.7041 9.62565C18.2767 8.66219 17.6103 7.90412 16.6057 7.68751M12.2395 8.93826C13.0688 7.99305 13.8691 7.63714 14.576 7.52709C15.3109 7.41269 15.9891 7.55459 16.6057 7.68751" fill="#FF4848"/>
<path d="M14.1749 9.1485C14.0962 8.92757 13.8602 8.82814 13.6832 8.94138L9.82988 10.879C10.2962 6.68261 13.9552 6.46755 15.1199 6.42326C15.1952 6.42039 15.2544 6.35745 15.2604 6.27423C15.3501 5.02843 15.934 3.52979 16.3599 2.84511C17.2167 1.54017 18.3177 1.25085 18.7204 1.19473C19.3689 1.17689 19.6001 1.65489 19.6556 2.0698C19.6845 2.28551 19.5397 2.45573 19.3565 2.51776C17.2019 3.24731 16.7002 5.32165 16.7202 6.41843C16.7216 6.49399 16.7715 6.56676 16.84 6.57847C19.0248 6.95133 21.322 8.65015 20.8793 12.31L17.7066 9.79638C17.5551 9.67635 17.3523 9.70585 17.2482 9.86306L15.4152 12.632L14.1749 9.1485Z" fill="#FFE7E1"/>
<path fill-rule="evenodd" clip-rule="evenodd" d="M8.63238 12.6004L8.83594 10.7685C9.10747 8.3251 10.3493 6.93875 11.7502 6.20754C12.6853 5.71951 13.6553 5.54169 14.357 5.4712C14.5776 4.2448 15.0941 2.98664 15.5108 2.31682L15.5172 2.30643L15.524 2.29621C16.5793 0.68898 17.9761 0.288729 18.5824 0.204258L18.6374 0.196596L18.6929 0.195069C19.3016 0.178324 19.8155 0.408379 20.1678 0.817022C20.4854 1.18552 20.6043 1.61953 20.6468 1.93717C20.7537 2.73684 20.1992 3.28815 19.6772 3.46489C18.4462 3.8817 17.9285 4.91422 17.7734 5.77007C18.802 6.07336 19.8245 6.64647 20.6058 7.5627C21.6013 8.73008 22.1226 10.3584 21.872 12.4301L21.6576 14.2025L17.6675 11.0412L15.1443 14.8526L13.4753 10.1652L8.63238 12.6004ZM14.1748 9.14846C14.0962 8.92753 13.8602 8.8281 13.6832 8.94134L9.82983 10.879C9.88144 10.4145 9.97218 9.99876 10.0943 9.62666C11.0756 6.63705 14.0841 6.4626 15.1198 6.42322C15.1952 6.42035 15.2544 6.35741 15.2604 6.27419C15.3501 5.02839 15.9339 3.52975 16.3599 2.84507C17.2167 1.54013 18.3177 1.2508 18.7204 1.19469C19.3689 1.17685 19.6001 1.65485 19.6556 2.06976C19.6844 2.28547 19.5397 2.45569 19.3565 2.51771C17.2018 3.24727 16.7002 5.32161 16.7201 6.41839C16.7215 6.49395 16.7714 6.56672 16.84 6.57842C18.7613 6.90633 20.7695 8.25965 20.9249 11.0703C20.9462 11.4558 20.9326 11.8686 20.8793 12.31L17.7066 9.79634C17.5551 9.67631 17.3522 9.70581 17.2481 9.86302L15.4151 12.6319L14.1748 9.14846Z" fill="#FF4848"/>
</g>
<defs>
<clipPath id="clip0_47659_144673">
<rect width="24" height="24" fill="white"/>
</clipPath>
</defs>
</svg>
