<svg width="24" height="24" viewBox="0 0 24 24" fill="none" xmlns="http://www.w3.org/2000/svg">
<path d="M23 12.0001C23 18.0753 18.0751 23.0002 12 23.0002C5.92487 23.0002 1 18.0753 1 12.0001C1 5.9249 5.92487 1 12 1C18.0751 1 23 5.9249 23 12.0001Z" fill="#E7F5FF" stroke="#0081DE"/>
<circle cx="12" cy="12" r="7" fill="#E7F5FF" stroke="#0081DE"/>
<circle cx="12" cy="12" r="2" fill="#E7F5FF" stroke="#0081DE"/>
<circle cx="12" cy="12" r="1" fill="#0081DE"/>
<path d="M16.5 12.5C16.7761 12.5 17 12.2761 17 12C17 11.7239 16.7761 11.5 16.5 11.5L16.5 12.5ZM16.5 11.5L14 11.5L14 12.5L16.5 12.5L16.5 11.5Z" fill="#0081DE"/>
<path d="M7.5 12.5C7.22386 12.5 7 12.2761 7 12C7 11.7239 7.22386 11.5 7.5 11.5L7.5 12.5ZM7.5 11.5L10 11.5L10 12.5L7.5 12.5L7.5 11.5Z" fill="#0081DE"/>
<path d="M12.5 7.5C12.5 7.22386 12.2761 7 12 7C11.7239 7 11.5 7.22386 11.5 7.5H12.5ZM11.5 7.5V10H12.5V7.5H11.5Z" fill="#0081DE"/>
<path d="M12.5 16.5C12.5 16.7761 12.2761 17 12 17C11.7239 17 11.5 16.7761 11.5 16.5H12.5ZM11.5 16.5V14H12.5V16.5H11.5Z" fill="#0081DE"/>
<circle cx="15" cy="15" r="1" fill="#0081DE"/>
</svg>
