<svg width="22" height="22" viewBox="0 0 22 22" fill="none" xmlns="http://www.w3.org/2000/svg">
<rect width="22" height="22" rx="3" fill="white"/>
<path fill-rule="evenodd" clip-rule="evenodd" d="M14.0707 8.6883C14.0634 8.90773 14.0808 9.15319 13.7418 9.26537C13.5411 9.33183 13.2943 9.05437 13.2811 8.86096C13.3814 8.72577 13.5187 8.62321 13.6761 8.56592C13.9914 8.44566 14.0662 8.4228 14.0707 8.6883ZM8.24877 9.2653C7.90983 9.15277 7.92723 8.90766 7.91992 8.68823C7.92445 8.42273 7.99892 8.44559 8.31454 8.5662C8.47178 8.62348 8.60897 8.72605 8.70916 8.86124C8.69559 9.05571 8.44921 9.33211 8.24842 9.26565L8.24877 9.2653ZM15.9274 15.681C16.1349 15.5814 16.3233 15.4458 16.4842 15.2802C17.2752 14.4267 17.429 13.4434 17.5237 12.3055C17.5484 12.009 17.5431 11.7101 17.5585 11.406C17.5605 11.3592 17.5679 11.1482 17.5891 11.1485C17.6511 11.2175 17.7004 11.2972 17.7345 11.3838C17.8315 11.6489 17.8932 11.9259 17.9179 12.2074C18.0085 12.7609 18.0242 13.3242 17.9646 13.882C17.9375 14.0761 17.8737 14.2632 17.7767 14.433C17.2822 15.27 16.7355 16.0461 16.2131 16.8696C16.17 16.9375 16.1383 16.807 16.1087 16.7849L16.067 16.7423C15.9483 16.6776 15.9024 16.6699 15.8453 16.7093C15.8269 16.7444 15.8105 16.7796 15.7931 16.8148C15.671 17.0884 15.4503 17.5255 15.2965 17.8079C15.2763 17.8437 15.2347 17.8614 15.1952 17.8508C15.1557 17.8402 15.1281 17.8041 15.1281 17.7628C15.1281 17.4488 15.1302 17.1348 15.126 16.8208C15.1236 16.6249 15.1281 16.3858 14.8595 16.3861C14.5974 16.3861 14.5894 16.6175 14.5863 16.8183C14.5835 17.0015 14.5863 17.1851 14.5863 17.3961C14.5867 17.4297 14.5689 17.4608 14.5398 17.4772C14.5108 17.4937 14.4752 17.4927 14.4471 17.4748C14.2265 17.307 13.9831 17.1725 13.7243 17.0754C13.3058 16.906 12.8314 16.9588 12.4594 17.216L12.5157 17.1643C12.8323 16.8737 13.2685 16.7558 13.6864 16.8478C13.8006 16.8729 13.9176 16.8824 14.0344 16.876C14.0629 16.8744 14.089 16.8593 14.1047 16.8351C14.1204 16.8109 14.1237 16.7807 14.1137 16.7536C13.9515 16.3179 13.4449 14.721 14.4864 14.1788C14.5138 14.1653 14.5329 14.1389 14.5372 14.1084C14.5738 13.8152 15.1027 12.5474 13.6651 11.7203C13.4397 11.9229 13.1616 12.3959 12.807 12.6986C13.4334 12.8347 13.764 12.4525 14.0671 12.1891C13.9428 12.9276 13.3739 12.9803 12.9204 13.2486C13.3109 13.0791 13.6996 13.3091 14.1635 13.0616C13.828 13.7107 13.1637 13.3904 12.7555 13.7329C13.147 13.9885 13.5086 13.8489 13.8673 13.8095C13.9687 13.7956 14.0717 13.7995 14.1718 13.8211C14.0873 13.9448 13.9894 14.0585 13.8799 14.1601C13.741 14.2661 13.5836 14.3448 13.416 14.3922C13.2453 14.4467 13.0629 14.4517 12.8895 14.4066C12.3765 14.2445 11.873 14.0515 11.3726 13.8524C11.2754 13.8054 11.203 13.7182 11.1742 13.6133C11.1429 13.4487 11.1805 13.2725 11.1648 13.103C11.125 12.8876 11.265 12.6802 11.478 12.6392C11.9492 12.5071 12.3629 12.2191 12.6528 11.8213C12.7499 11.679 12.8197 11.5197 12.8585 11.3514C12.8583 11.3483 12.8583 11.3451 12.8585 11.342C12.8595 11.1868 12.8327 11.0328 12.7795 10.8873C12.7497 10.7715 12.7527 10.6497 12.7882 10.5356L12.7969 10.498C12.7969 10.4962 12.7969 10.4945 12.7969 10.4927H12.799L12.901 10.05C12.9347 9.91286 13.0161 9.79256 13.1303 9.71097L13.1613 9.69198C13.1734 9.68212 13.1865 9.67341 13.2002 9.66596C13.3918 9.56475 13.5923 9.48176 13.7991 9.41804C14.5281 9.12754 15.0872 8.51825 15.3188 7.76174C15.4064 7.51033 15.4279 7.24022 15.3811 6.9779C15.3115 7.12102 15.204 7.40797 15.1375 7.55251C15.0556 7.78372 14.8275 7.9281 14.5859 7.9017C13.9195 7.90662 13.2775 8.02021 12.9128 8.72211C12.7579 9.09801 12.4764 9.40635 12.118 9.59246C12.1119 9.38868 12.1427 9.18549 12.2088 8.99289C11.8991 8.86418 12.0212 8.68203 12.1865 8.50057C12.4117 8.25441 12.6389 8.01107 12.8776 7.754C12.6763 7.70329 12.4918 7.59968 12.3428 7.45369H13.6457C13.6457 7.44033 13.6477 7.42732 13.6491 7.41395C13.2507 7.34071 12.8669 7.20183 12.513 7.00287C13.1181 6.62554 14.3761 6.81297 14.5884 6.7444C14.5908 6.69341 14.4144 6.65543 14.2338 6.596C13.8162 6.48699 13.6592 6.45288 13.2427 6.33894C12.8291 6.22547 12.4304 6.06218 12.0553 5.8526H13.7661C13.1842 5.51833 12.5428 5.30324 11.8786 5.21962C11.5031 5.19535 11.2323 5.19606 11.0009 5.19993L10.9992 5.08915V5.19993C10.7674 5.19606 10.497 5.19535 10.1216 5.21962C9.45724 5.30324 8.81574 5.51833 8.23372 5.8526H9.94444C9.56926 6.06223 9.1705 6.22552 8.75675 6.33894C8.33916 6.45253 8.18326 6.48664 7.76602 6.596C7.58507 6.65543 7.40898 6.69341 7.41142 6.7444C7.62369 6.81473 8.88168 6.62589 9.48683 7.00287C9.13305 7.20183 8.74933 7.34071 8.35099 7.41395C8.35099 7.42732 8.35308 7.44033 8.35447 7.45369H9.65735C9.50852 7.5997 9.3241 7.70331 9.12283 7.754C9.36121 8.01107 9.58914 8.25441 9.81394 8.50057C9.97924 8.68132 10.1014 8.86348 9.79167 8.99289C9.85801 9.18545 9.88891 9.38866 9.88284 9.59246C9.52434 9.40642 9.24263 9.09807 9.08769 8.72211C8.72334 8.0188 8.08095 7.90627 7.41455 7.9017C7.17293 7.9281 6.94489 7.78372 6.86299 7.55251C6.79687 7.40797 6.68899 7.12138 6.61939 6.9779C6.57255 7.24024 6.59414 7.51039 6.68203 7.76174C6.91349 8.51835 7.47259 9.12771 8.2017 9.41804C8.40838 9.48179 8.60875 9.56479 8.80025 9.66596C8.814 9.67341 8.82704 9.68212 8.83922 9.69198C8.84931 9.69796 8.85975 9.70394 8.87019 9.71097C8.98436 9.79256 9.06573 9.91286 9.09952 10.05L9.20148 10.4927H9.20322C9.20339 10.4945 9.20339 10.4962 9.20322 10.498L9.21192 10.5356C9.24724 10.6497 9.25014 10.7716 9.22027 10.8873C9.16716 11.0328 9.1404 11.1868 9.14128 11.342C9.14178 11.3451 9.14178 11.3483 9.14128 11.3514C9.18025 11.5197 9.25013 11.6791 9.34729 11.8213C9.63706 12.2192 10.0507 12.5072 10.5218 12.6392C10.7348 12.6802 10.8748 12.8876 10.8349 13.103C10.8196 13.2722 10.8569 13.4487 10.8255 13.6133C10.7968 13.7182 10.7244 13.8054 10.6272 13.8524C10.1268 14.0515 9.6229 14.2445 9.11031 14.4066C8.93696 14.4518 8.75454 14.4469 8.5838 14.3926C8.4162 14.3451 8.25886 14.2664 8.11993 14.1605C8.01048 14.0589 7.91266 13.9452 7.82831 13.8215C7.92827 13.7999 8.03117 13.796 8.13245 13.8099C8.49158 13.8493 8.85245 13.9889 9.24602 13.7332C8.83748 13.3907 8.17317 13.7111 7.83806 13.0619C8.30193 13.3081 8.69063 13.0795 9.08073 13.249C8.62834 12.9807 8.05833 12.9272 7.9341 12.1894C8.23755 12.4525 8.56918 12.8351 9.19452 12.699C8.83992 12.3962 8.56187 11.9232 8.33603 11.7207C6.89848 12.5478 7.42708 13.8159 7.46397 14.1088C7.46824 14.1393 7.48729 14.1657 7.51477 14.1791C8.55631 14.7214 8.04929 16.3182 7.88712 16.7539C7.87732 16.7811 7.88067 16.8113 7.89617 16.8355C7.91167 16.8595 7.93745 16.8748 7.96577 16.8767C8.08249 16.8831 8.19953 16.8736 8.31376 16.8485C8.73166 16.7565 9.1678 16.8744 9.4844 17.165L9.54112 17.2167C9.16921 16.9596 8.69488 16.9068 8.27652 17.0761C8.01758 17.1731 7.77399 17.3076 7.5534 17.4755C7.52525 17.4934 7.48967 17.4944 7.46064 17.4779C7.43162 17.4615 7.41381 17.4304 7.4142 17.3968C7.4142 17.1858 7.4142 17.0022 7.4142 16.819C7.41107 16.6179 7.40307 16.3875 7.14103 16.3868C6.87238 16.3868 6.87691 16.6256 6.87412 16.8215C6.86995 17.1355 6.87134 17.4495 6.87204 17.7635C6.87199 17.8048 6.84446 17.8409 6.80495 17.8515C6.76544 17.8621 6.72385 17.8444 6.70361 17.8086C6.55014 17.5272 6.32952 17.0891 6.20703 16.8155C6.19137 16.7803 6.17223 16.7452 6.15483 16.71C6.09776 16.6702 6.05043 16.678 5.93316 16.743L5.8914 16.7856C5.86217 16.8077 5.83015 16.9382 5.787 16.8703C5.26502 16.0464 4.71763 15.2707 4.22348 14.4337C4.12624 14.264 4.06243 14.0769 4.03557 13.8827C3.97575 13.3249 3.99144 12.7615 4.0822 12.2081C4.10686 11.9265 4.16853 11.6496 4.26559 11.3845C4.29955 11.2979 4.34871 11.2182 4.4107 11.1492C4.43193 11.1492 4.43924 11.3602 4.44132 11.4067C4.45664 11.7108 4.45142 12.0097 4.47612 12.3062C4.57078 13.4442 4.72459 14.4274 5.51557 15.2809C5.67645 15.4466 5.86491 15.5824 6.07235 15.6821C6.10704 15.696 6.14663 15.687 6.17204 15.6594C6.19745 15.6318 6.20347 15.5912 6.18719 15.5573C5.94603 15.0611 5.68574 14.5726 5.49121 14.0581C5.2932 13.5338 5.16062 12.9835 5.00855 12.4405C4.99912 12.4082 5.00822 12.3732 5.03218 12.3498C5.05613 12.3263 5.09099 12.3182 5.12269 12.3287C5.23544 12.3681 5.38647 12.4303 5.50548 12.4767C5.53741 12.489 5.57348 12.482 5.59861 12.4586C5.62375 12.4352 5.63364 12.3995 5.62414 12.3663C5.47346 11.8424 4.98384 10.3095 4.98384 10.3095C5.01342 10.3447 5.29982 10.7666 5.32 10.8043C5.54996 11.1783 5.75179 11.5693 5.92376 11.9739C6.00554 12.1877 6.07235 12.3421 6.10855 12.4229C6.1249 12.4581 6.13116 12.5 6.10124 12.5256C5.69478 12.8738 6.02364 13.5377 6.19589 13.7445C6.43387 14.0336 6.60527 14.3726 6.69769 14.7368C6.72205 14.8114 6.75372 14.9179 6.78852 15.0301C6.8037 15.0717 6.84641 15.0961 6.88951 15.0879C6.93262 15.0796 6.96349 15.041 6.96251 14.9967C6.93189 14.528 6.85011 13.8918 6.697 13.7462C6.46106 13.5219 6.51082 12.7486 6.77529 12.6107C7.02132 12.4827 7.07665 12.3466 6.95242 12.1283C6.9399 12.107 6.93631 12.0815 6.94245 12.0575C6.9486 12.0336 6.96396 12.0131 6.98513 12.0006L8.1168 11.3462C8.15025 11.327 8.16808 11.2886 8.16127 11.2504C8.15446 11.2122 8.12448 11.1825 8.08652 11.1763C7.69405 11.1402 7.3027 11.2565 6.99209 11.5016C6.86143 11.5799 6.70255 11.5936 6.56066 11.5388C6.41878 11.484 6.30943 11.3667 6.26375 11.2203C6.23983 11.1623 6.21983 11.1027 6.20389 11.042C6.19067 10.9924 6.23521 10.9506 6.28393 10.9365C6.84072 10.7958 6.92423 10.767 6.95207 10.5964C6.95611 10.5702 6.94869 10.5435 6.93173 10.5233C6.91476 10.503 6.88993 10.4912 6.86368 10.4909C6.66985 10.5194 6.47201 10.4951 6.29054 10.4206C6.18293 10.3098 6.11277 10.1673 6.0901 10.0137C6.08063 9.98 6.0911 9.94375 6.11705 9.92045C6.143 9.89715 6.17985 9.89091 6.2119 9.90438C6.40816 9.98878 6.46176 9.98597 6.56963 9.90227C6.58941 9.88682 6.60215 9.86393 6.60497 9.83883C6.60779 9.81372 6.60044 9.78854 6.5846 9.76899C6.56049 9.73801 6.53306 9.70983 6.50282 9.68495C6.09463 9.36318 5.46755 7.58591 5.48843 7.06124C5.3245 7.20288 5.202 7.38711 5.13417 7.594C4.70301 7.41606 4.37416 7.36015 4.43541 6.74581L4.91285 6.99548C4.91285 6.99548 4.93791 6.80875 4.68179 6.59248C4.13266 6.12865 4.04949 5.51184 4.03209 4.84159C4.01307 4.61985 4.11906 4.40615 4.30624 4.28884C4.49341 4.17154 4.72996 4.17056 4.91807 4.28632C5.98396 4.79271 7.45283 5.30261 8.66558 5.14542L8.70525 5.13698L8.70907 5.13487L8.70629 5.13663C9.46084 4.97933 10.2288 4.89689 10.9992 4.89047H11.0058C11.7762 4.89688 12.5442 4.97932 13.2987 5.13663L13.2959 5.13487L13.2994 5.13698L13.3394 5.14542C14.5518 5.30261 16.019 4.79376 17.0866 4.28632C17.2747 4.17036 17.5114 4.17123 17.6987 4.28856C17.886 4.4059 17.992 4.61974 17.9729 4.84159C17.9555 5.51184 17.8723 6.129 17.3229 6.59248C17.0668 6.80875 17.0922 6.99548 17.0922 6.99548L17.5696 6.74581C17.6308 7.36015 17.3016 7.41606 16.8708 7.594C16.803 7.38711 16.6805 7.20288 16.5166 7.06124C16.5375 7.58591 15.9107 9.36318 15.5025 9.68495C15.4722 9.70988 15.4447 9.73806 15.4204 9.76899C15.4042 9.78856 15.3968 9.81402 15.3999 9.83933C15.4026 9.8643 15.4151 9.88713 15.4347 9.90262C15.5426 9.98632 15.5958 9.98913 15.7928 9.90473C15.8248 9.89115 15.8617 9.89736 15.8876 9.92071C15.9135 9.94406 15.9239 9.98039 15.9142 10.0141C15.8915 10.1676 15.8215 10.31 15.7141 10.421C15.5325 10.4955 15.3346 10.5198 15.1406 10.4913C15.1144 10.4917 15.0897 10.5035 15.0727 10.5238C15.0558 10.544 15.0483 10.5706 15.0522 10.5968C15.0801 10.7673 15.1622 10.7958 15.72 10.9368C15.7687 10.9492 15.8133 10.9914 15.8001 11.0423C15.7841 11.1031 15.7641 11.1626 15.7402 11.2206C15.6944 11.3669 15.5851 11.4841 15.4432 11.5389C15.3014 11.5937 15.1426 11.5801 15.0119 11.502C14.7013 11.2568 14.3099 11.1405 13.9174 11.1767C13.8795 11.1829 13.8497 11.2127 13.8429 11.2509C13.8362 11.2891 13.8541 11.3274 13.8875 11.3465L15.0192 12.001C15.0403 12.0135 15.0556 12.034 15.0617 12.0579C15.0679 12.0819 15.0643 12.1073 15.0519 12.1286C14.9277 12.3473 14.9823 12.4834 15.2287 12.6111C15.4935 12.7486 15.5419 13.5222 15.3073 13.7466C15.1542 13.8922 15.0724 14.5287 15.0414 14.9971C15.0405 15.0414 15.0713 15.0799 15.1144 15.0882C15.1576 15.0965 15.2003 15.0721 15.2154 15.0305C15.2502 14.9183 15.2819 14.8121 15.3063 14.7372C15.3989 14.373 15.5703 14.0341 15.8081 13.7448C15.9821 13.538 16.3095 12.8741 15.9031 12.526C15.8773 12.4977 15.8741 12.4552 15.8954 12.4233C15.9302 12.3424 15.9998 12.188 16.0802 11.9742C16.2524 11.5697 16.4542 11.1788 16.684 10.8046C16.7045 10.7656 16.9909 10.3436 17.0201 10.3098C17.0201 10.3098 16.5308 11.8427 16.3802 12.3667C16.3708 12.3998 16.3806 12.4354 16.4056 12.4587C16.4307 12.4821 16.4666 12.4892 16.4985 12.4771C16.6175 12.4307 16.7685 12.3684 16.8813 12.3291C16.913 12.3183 16.948 12.3263 16.9721 12.3498C16.9961 12.3734 17.0051 12.4085 16.9954 12.4409C16.8433 12.9831 16.7111 13.5335 16.5128 14.0585C16.3179 14.5726 16.0576 15.0614 15.8168 15.5576C15.8001 15.5916 15.8059 15.6324 15.8315 15.6602C15.857 15.6879 15.8969 15.6968 15.9316 15.6824L15.9274 15.681ZM8.48776 11.6237L8.438 11.6494C8.4561 11.6406 8.47315 11.6325 8.48811 11.6237H8.48776ZM6.44436 4.93558C6.53854 4.95902 6.62914 4.98035 6.71614 4.99958C6.62728 4.97173 6.53657 4.95034 6.4447 4.93558H6.44436ZM6.32817 5.06861C5.07158 4.9691 5.30438 5.90556 5.54797 6.46188L5.75085 6.80122C5.76284 6.8148 5.77259 6.83024 5.77974 6.84694C5.77974 6.8501 5.78252 6.85327 5.78356 6.85643C6.09676 7.603 6.35705 9.19073 7.86454 9.79945C7.80678 9.76569 7.74936 9.72829 7.69229 9.68727C7.25756 9.31518 6.90175 8.85814 6.64623 8.34359C5.97322 6.97529 6.14965 6.11725 6.06787 5.7765C6.19802 5.82221 6.65945 5.92208 6.74993 5.95444C6.75863 5.93334 5.94016 5.57465 5.70596 5.45016C5.80964 5.38481 5.92589 5.3425 6.04699 5.32603C6.57803 5.27047 6.77777 5.44067 7.12159 5.49025C7.3516 5.51108 7.58345 5.49278 7.80747 5.4361L6.32817 5.06861ZM13.5046 11.6256C13.5195 11.6344 13.5366 11.6429 13.5543 11.6513L13.5046 11.6256ZM15.2744 4.99958C15.3614 4.97988 15.4516 4.95843 15.5462 4.93558C15.4542 4.95018 15.3634 4.97145 15.2744 4.99923V4.99958ZM16.207 6.85643C16.207 6.85327 16.2098 6.8501 16.2112 6.84694C16.2183 6.8302 16.228 6.81476 16.2401 6.80122L16.4426 6.46188C16.6862 5.90556 16.919 4.9691 15.6628 5.06861L14.1824 5.43539C14.4064 5.49207 14.6383 5.51037 14.8683 5.48955C15.2121 5.43961 15.4119 5.26976 15.9429 5.32532C16.064 5.34182 16.1802 5.38413 16.2839 5.44946C16.0504 5.57394 15.232 5.93263 15.24 5.95373C15.3315 5.92173 15.7922 5.82151 15.922 5.7758C15.8399 6.11831 16.0163 6.976 15.3433 8.34289C15.0879 8.85747 14.732 9.31453 14.2973 9.68656C14.2402 9.72771 14.1828 9.76498 14.125 9.79874C15.6335 9.18897 15.8938 7.603 16.207 6.85608V6.85643ZM10.9947 11.7096C10.8141 11.7096 10.6189 11.7096 10.3683 11.7051C10.1407 11.7085 9.91474 11.6645 9.7047 11.5756C9.58724 11.4927 9.52871 11.348 9.55507 11.2057C9.56794 11.0141 9.81467 10.8787 9.81467 10.8787C9.80562 11.327 10.1905 11.4473 10.994 11.4543H11.0013C11.8048 11.4469 12.1897 11.327 12.1807 10.8787C12.1807 10.8787 12.427 11.0141 12.4399 11.2057C12.4661 11.3481 12.4074 11.4928 12.2899 11.5756C12.0799 11.6645 11.854 11.7086 11.6263 11.7051C11.3768 11.7096 11.1816 11.711 10.9999 11.7096L10.9964 11.6896L10.9947 11.7096ZM10.9956 16.5229C11.0193 17.1144 10.0136 17.1654 9.16412 16.6513C9.11609 16.4684 9.20936 16.1537 9.11087 16.0848C8.96437 15.9825 8.73122 16.1175 8.58367 16.2124C8.43612 16.3074 8.34008 16.4899 8.19531 16.6038C8.25795 15.6895 9.15994 14.8603 10.5467 14.7823C10.6988 14.7738 10.8529 14.7636 10.9959 14.7643C11.139 14.765 11.2931 14.7738 11.4452 14.7823C12.8316 14.86 13.7339 15.6902 13.7966 16.6038C13.6504 16.4899 13.5564 16.3077 13.4082 16.2124C13.26 16.1171 13.0272 15.9828 12.881 16.0848C12.7825 16.1551 12.8754 16.4684 12.8278 16.6513C11.9776 17.1654 10.9719 17.1144 10.9956 16.5229Z" fill="#D71920"/>
</svg>
