<svg width="22" height="22" viewBox="0 0 22 22" fill="none" xmlns="http://www.w3.org/2000/svg">
<rect width="22" height="22" rx="3" fill="white"/>
<path fill-rule="evenodd" clip-rule="evenodd" d="M6.53922 6.35625C6.23063 6.63747 6.07218 6.90581 6.01995 7.16165C5.8752 7.87086 6.54712 8.48389 7.10248 9.0082C7.84456 9.70879 8.1745 10.4048 8.16837 11.0297C8.1745 11.6545 7.84456 12.3506 7.10248 13.0512C6.54716 13.5754 5.87527 14.1884 6.01992 14.8976C6.07211 15.1535 6.23059 15.4219 6.53922 15.7031C7.70327 16.7639 9.72156 17.7965 12.3454 17.2849C14.9692 16.7733 16 14.941 16 14.941C14.792 16.0282 13.1809 16.4729 11.7164 16.5667C10.252 16.6606 9.28974 16.3039 8.90017 15.736C8.5106 15.168 8.47773 14.5813 8.93772 13.7881C9.39771 12.9948 10.9138 11.9857 10.9138 11.9857C10.9138 11.9857 11.7821 11.521 11.7821 11.061C11.7821 11.0505 11.7817 11.0401 11.7811 11.0297C11.7817 11.0193 11.7821 11.0088 11.7821 10.9983C11.7821 10.5384 10.9138 10.0737 10.9138 10.0737C10.9138 10.0737 10.9126 10.0729 10.9107 10.0717C10.8389 10.0236 9.38631 9.04485 8.93772 8.27129C8.47773 7.47806 8.5106 6.89135 8.90017 6.3234C9.28974 5.75547 10.252 5.39873 11.7164 5.49261C13.1809 5.58649 14.792 6.0312 16 7.11838C16 7.11838 14.9692 5.28608 12.3454 4.77446C11.8681 4.68141 11.4109 4.63945 10.9752 4.63943C9.01556 4.63942 7.49154 5.4884 6.53922 6.35625Z" fill="#132647"/>
<path fill-rule="evenodd" clip-rule="evenodd" d="M7.85542 13.4123C7.85542 13.4123 6.04243 14.1187 6.01953 14.899C6.07172 15.1549 6.2302 15.4233 6.53883 15.7045C7.70288 16.7653 9.72117 17.7979 12.345 17.2863C14.9688 16.7747 15.9996 14.9424 15.9996 14.9424C14.7916 16.0296 13.1805 16.4743 11.716 16.5681C10.2516 16.662 9.28934 16.3053 8.89978 15.7374C8.70575 15.4545 8.60021 15.167 8.59996 14.8516C8.59972 14.5338 8.70644 14.1876 8.93733 13.7895C9.39732 12.9962 10.9134 11.9871 10.9134 11.9871L7.85542 13.4123Z" fill="url(#paint0_linear_35882_448480)"/>
<path fill-rule="evenodd" clip-rule="evenodd" d="M7.73362 5.49284C7.27006 5.75511 6.86989 6.05455 6.5388 6.35625C6.23021 6.63747 6.07176 6.90581 6.01953 7.16165C6.04313 7.94179 7.85539 8.64785 7.85539 8.64785L10.9103 10.0717C10.8385 10.0236 9.38588 9.04485 8.9373 8.27129C8.70641 7.87313 8.59969 7.52699 8.59993 7.20915C8.60018 6.89379 8.70572 6.60626 8.89975 6.3234C9.28932 5.75547 10.2516 5.39873 11.716 5.49261C13.1804 5.58649 14.7915 6.0312 15.9996 7.11838C15.9996 7.11838 14.9687 5.28608 12.3449 4.77446C12.172 4.74075 12.0018 4.71374 11.8342 4.693C11.6269 4.66736 11.4237 4.65131 11.2248 4.64403C11.1407 4.64094 11.0574 4.63943 10.9748 4.63943C9.69643 4.63942 8.60347 5.00072 7.73362 5.49284Z" fill="url(#paint1_linear_35882_448480)"/>
<path fill-rule="evenodd" clip-rule="evenodd" d="M6.01995 7.15985C6.00638 7.22634 5.99999 7.29197 6 7.35679C6.00015 7.98322 6.59918 8.53124 7.10248 9.0064C7.83731 9.70015 8.16801 10.3894 8.16846 11.0096C8.16846 11.0157 8.16843 11.0218 8.16837 11.0279C8.16843 11.034 8.16846 11.0401 8.16846 11.0462C8.16801 11.6663 7.83731 12.3556 7.10248 13.0494C6.59922 13.5245 6.00023 14.0725 6 14.6989C5.99997 14.7637 6.00636 14.8293 6.01992 14.8958C6.04282 14.1155 7.85581 13.4091 7.85581 13.4091L10.9138 11.9839C10.9138 11.9839 11.7821 11.5192 11.7821 11.0592C11.7821 11.0487 11.7817 11.0383 11.7811 11.0279C11.7817 11.0175 11.7821 11.007 11.7821 10.9965C11.7821 10.5366 10.9138 10.0719 10.9138 10.0719C10.9138 10.0719 10.9126 10.0711 10.9107 10.0699L7.85581 8.64605C7.85581 8.64605 6.04355 7.93999 6.01995 7.15985Z" fill="url(#paint2_linear_35882_448480)"/>
<path fill-rule="evenodd" clip-rule="evenodd" d="M10.9237 11.0297C10.919 11.493 10.3088 11.9302 10.7049 11.9302C10.8737 11.9302 11.6301 11.4481 11.6301 11.0605C11.6301 10.6736 10.5902 10.0514 10.4214 10.0514C9.99718 10.0514 10.9273 10.6716 10.9237 11.0297Z" fill="url(#paint3_linear_35882_448480)"/>
<defs>
<linearGradient id="paint0_linear_35882_448480" x1="13.4197" y1="14.5912" x2="13.0687" y2="11.2511" gradientUnits="userSpaceOnUse">
<stop stop-color="#F8A31B"/>
<stop offset="1" stop-color="#570004"/>
</linearGradient>
<linearGradient id="paint1_linear_35882_448480" x1="5.81732" y1="6.01752" x2="5.81732" y2="10.3154" gradientUnits="userSpaceOnUse">
<stop stop-color="#00ADEE"/>
<stop offset="1" stop-color="#181C62"/>
</linearGradient>
<linearGradient id="paint2_linear_35882_448480" x1="9.87342" y1="8.14792" x2="5.56832" y2="8.14792" gradientUnits="userSpaceOnUse">
<stop stop-color="#DD1A21"/>
<stop offset="1" stop-color="#570004"/>
</linearGradient>
<linearGradient id="paint3_linear_35882_448480" x1="11.6151" y1="11.6782" x2="10.0662" y2="9.21172" gradientUnits="userSpaceOnUse">
<stop stop-color="white" stop-opacity="0.01"/>
<stop offset="1" stop-color="#FEFEFE"/>
</linearGradient>
</defs>
</svg>
