<svg width="22" height="22" viewBox="0 0 22 22" fill="none" xmlns="http://www.w3.org/2000/svg">
<rect width="22" height="22" rx="3" fill="white"/>
<path d="M11 18C9.88541 15.9333 5.94791 15.6195 5.67711 11.9571L5.55732 9.2574C8.24998 7.85001 13.7552 7.85001 16.4479 9.2574L16.3229 11.9571C16.052 15.6142 12.1146 15.9281 11 18Z" fill="url(#paint0_linear_32198_334971)"/>
<path d="M7.17188 6.09208C8.20836 5.8357 9.24999 5.68921 10.2865 5.64214C10.551 4.74063 11.2496 4.36851 11.9345 4.00367L11.9427 3.9993C13.3698 3.11511 12.6406 3.18312 14.0885 3C13.9948 4.15626 13.2344 4.5591 12.4531 4.97246C12.099 5.15554 11.7448 5.34389 11.5156 5.63693C12.6198 5.67352 13.7239 5.83049 14.8281 6.09208C15.9895 6.36937 17 7.0757 17 8.27378C17 8.66096 16.8958 9.02718 16.7187 9.34633L16.7291 9.09522L16.5729 9.01676C16.4323 8.94352 16.2812 8.87549 16.1354 8.81793C15.7604 8.66617 15.3698 8.53017 14.9791 8.42027C12.6875 7.77155 9.31248 7.77155 7.02087 8.42027C6.63023 8.53017 6.23958 8.66096 5.8646 8.81793C5.71874 8.8807 5.56773 8.94352 5.42713 9.01676L5.27086 9.09522L5.28126 9.34633C5.10418 9.02718 5 8.66096 5 8.27378C5 7.0757 6.01041 6.37985 7.17188 6.09208Z" fill="url(#paint1_linear_32198_334971)"/>
<defs>
<linearGradient id="paint0_linear_32198_334971" x1="16.4103" y1="3.58809" x2="6.98869" y2="18.0952" gradientUnits="userSpaceOnUse">
<stop stop-color="#F8B900"/>
<stop offset="1" stop-color="#E67508"/>
</linearGradient>
<linearGradient id="paint1_linear_32198_334971" x1="16.4103" y1="3.58809" x2="6.98869" y2="18.0952" gradientUnits="userSpaceOnUse">
<stop stop-color="#F8B900"/>
<stop offset="1" stop-color="#E67508"/>
</linearGradient>
</defs>
</svg>
