<svg width="22" height="22" viewBox="0 0 22 22" fill="none" xmlns="http://www.w3.org/2000/svg">
<rect width="22" height="22" rx="3" fill="white"/>
<mask id="mask0_35906_286006" style="mask-type:luminance" maskUnits="userSpaceOnUse" x="2" y="5" width="18" height="12">
<path fill-rule="evenodd" clip-rule="evenodd" d="M2 5H20V16.1349H2V5Z" fill="white"/>
</mask>
<g mask="url(#mask0_35906_286006)">
<path fill-rule="evenodd" clip-rule="evenodd" d="M19.9967 7.53002C19.9719 6.99027 19.8062 6.48421 19.4984 6.065C19.0017 5.38832 18.0811 5 17.1587 5H7.52216C5.98364 5 4.41025 6.07881 3.73122 7.53002C3.6596 7.68357 3.59453 7.83993 3.54421 8.00167L2.15221 12.532C2.03284 12.9114 1.98649 13.2904 2.00335 13.6544C2.02863 14.1829 2.1913 14.6777 2.49301 15.0887C2.98151 15.7537 3.78038 16.135 4.68598 16.135H13.7523L14.345 16.127C15.8772 16.127 17.551 15.0801 18.2728 13.6544C18.3697 13.4615 18.4531 13.2623 18.5174 13.0573L19.845 8.66992C19.9658 8.28418 20.0136 7.89938 19.9967 7.53002Z" fill="#170C11"/>
</g>
<path fill-rule="evenodd" clip-rule="evenodd" d="M11.2777 8.28396H6.86935C6.85203 8.28396 6.83658 8.2952 6.83143 8.31158L5.42843 12.797C5.42048 12.8227 5.43944 12.8487 5.46612 12.8487H7.56827C7.58559 12.8487 7.60104 12.8373 7.60595 12.8211L7.99146 11.5534C7.99965 11.5279 7.98046 11.5019 7.95377 11.5019H7.0264C6.99972 11.5019 6.98053 11.4762 6.98872 11.4504L7.55984 9.6797C7.56499 9.66331 7.58044 9.65208 7.59776 9.65208H10.8244C10.851 9.65208 10.8702 9.67782 10.8623 9.70334L9.90355 12.823C9.5061 14.0865 8.2611 15.1215 6.99644 15.1215H4.69838C3.43419 15.1215 2.72474 14.0865 3.12218 12.823L4.56707 8.22591C4.96405 6.96172 6.3001 6.01703 7.56382 6.01703H11.9764C12.0034 6.01703 12.0223 6.04301 12.0144 6.06852L11.3157 8.25611C11.3105 8.27249 11.2951 8.28396 11.2777 8.28396Z" fill="#CE232E"/>
<path fill-rule="evenodd" clip-rule="evenodd" d="M15.2067 12.8532H13.0434C13.0167 12.8532 12.9978 12.8275 13.0057 12.802L14.4122 8.30602C14.4174 8.28963 14.4326 8.2784 14.4499 8.2784H16.5961C16.6228 8.2784 16.6417 8.30415 16.634 8.32989L15.2443 12.8256C15.2392 12.842 15.224 12.8532 15.2067 12.8532ZM17.2989 6.01074H15.1844C13.8832 6.01074 12.5144 6.97041 12.1059 8.27135L10.7296 12.7467C10.3209 14.0469 11.0215 15.1119 12.3229 15.1119H14.4382C15.7379 15.1119 17.1723 14.0402 17.5812 12.7401L18.9402 8.28282C19.3482 6.98165 18.5996 6.01074 17.2989 6.01074Z" fill="#CE232E"/>
</svg>
