<svg width="36" height="36" viewBox="0 0 36 36" fill="none" xmlns="http://www.w3.org/2000/svg">
<path d="M6.68945 22.9947C6.68945 28.5105 11.2859 31.2684 13.5842 31.9579C12.2052 27.8211 14.0438 25.0632 15.6526 24.3737C15.6526 24.3737 15.5599 32.6558 23.2368 31.9579C30.8211 31.2684 30.1316 20.9263 26.6842 16.7895C26.6842 17.4789 26.6842 21.0412 23.2368 21.6158C20.4327 22.0831 18.4105 20.2368 18.4105 17.4789C18.4105 14.721 21.1684 13.3771 21.1684 9.89472C21.1684 6.41235 18.4105 3.68945 14.2737 3.68945C17.721 14.0316 6.68945 12.6526 6.68945 22.9947Z" fill="#FFECE3"/>
<path fill-rule="evenodd" clip-rule="evenodd" d="M13.3623 3H14.3248C18.8183 3 21.9558 5.98192 21.9558 9.89474C21.9558 11.8408 21.1687 13.1885 20.4648 14.3209C20.4338 14.3708 20.4031 14.42 20.3727 14.4688C19.6958 15.5557 19.1809 16.3824 19.1809 17.479C19.1809 18.6874 19.6233 19.6383 20.3136 20.2376C21.0004 20.8339 21.9982 21.1396 23.2292 20.9357C24.6794 20.6955 25.3744 19.8596 25.7366 18.9837C26.1145 18.0698 26.1182 17.1255 26.1182 16.7895V14.8851L27.3448 16.3481C29.2148 18.5783 30.294 22.3908 29.9297 25.7406C29.746 27.4288 29.19 29.0575 28.124 30.3216C27.0456 31.6004 25.4856 32.4567 23.406 32.6446C21.3451 32.8308 19.7454 32.4206 18.521 31.6498C17.3038 30.8835 16.5146 29.7971 16.0038 28.7219C15.494 27.6489 15.2499 26.5638 15.1318 25.7561C15.1259 25.7154 15.1202 25.6754 15.1149 25.6361C14.1204 26.6643 13.2845 28.7443 14.2892 31.7399L14.7118 33L13.4317 32.6183C10.989 31.89 6 28.956 6 22.9948C6 20.2714 6.73518 18.2869 7.79471 16.69C8.69277 15.3365 9.82462 14.2678 10.8512 13.2984C11.0135 13.1452 11.1731 12.9944 11.3288 12.8455C12.4965 11.7279 13.452 10.7016 13.945 9.37564C14.4288 8.07468 14.4988 6.38874 13.6666 3.90751L13.3623 3ZM16.4059 24.3824L16.4059 24.3948C16.406 24.4069 16.4061 24.4265 16.4066 24.4529C16.4077 24.5058 16.4102 24.5863 16.416 24.6901C16.4275 24.898 16.4523 25.1982 16.5049 25.5577C16.6106 26.2811 16.826 27.2229 17.2584 28.1331C17.6898 29.0412 18.3257 29.8945 19.2634 30.4849C20.194 31.0707 21.4793 31.434 23.2804 31.2713C25.0164 31.1144 26.2313 30.4194 27.0606 29.4359C27.9024 28.4376 28.387 27.093 28.5502 25.5924C28.8044 23.2561 28.2659 20.6823 27.2723 18.7525C27.2077 18.9987 27.1252 19.2532 27.02 19.5078C26.515 20.729 25.4758 21.9616 23.4573 22.2959C21.8669 22.5593 20.4367 22.1756 19.4007 21.2761C18.3683 20.3796 17.7934 19.0284 17.7934 17.479C17.7934 15.9762 18.5105 14.8317 19.147 13.816C19.1933 13.7421 19.2392 13.6688 19.2844 13.5962C19.968 12.4965 20.5683 11.431 20.5683 9.89474C20.5683 7.10326 18.5501 4.80375 15.274 4.43161C15.8718 6.65158 15.7921 8.38639 15.2465 9.85365C14.6339 11.501 13.4648 12.7155 12.2912 13.8388C12.1251 13.9977 11.9589 14.1549 11.7934 14.3114C10.7624 15.2866 9.75677 16.2377 8.953 17.4491C8.03974 18.8256 7.38746 20.5471 7.38746 22.9948C7.38746 27.2316 10.3625 29.7308 12.6138 30.8176C11.9057 27.1261 13.6348 24.5085 15.4389 23.74L16.4178 23.323L16.4059 24.3804L16.4059 24.3824Z" fill="#FF6C4A"/>
</svg>
