<svg width="22" height="22" viewBox="0 0 22 22" fill="none" xmlns="http://www.w3.org/2000/svg">
<rect width="22" height="22" rx="3" fill="white"/>
<path d="M16.9944 11.5263C16.9569 11.1137 16.6569 10.7387 16.2818 10.5511L12.6061 8.07569C12.5686 8.03818 12.5311 8.03818 12.4936 8.00068V7.96317L14.7065 4.32503L14.744 4.28753V4.25002C14.9691 3.5749 14.594 2.86228 13.9189 2.67474C13.8064 2.63724 13.6938 2.63724 13.5438 2.59973C13.2813 2.59973 12.9812 2.71225 12.7937 2.86228L5.47989 9.31341C4.91729 9.76349 4.84228 10.5511 5.29236 11.1137C5.40488 11.2638 5.5549 11.3763 5.74244 11.4513L9.41808 13.9267H9.45559C9.4931 13.9267 9.5306 13.9642 9.56811 14.0017L7.35522 17.6774L7.31771 17.7149V17.7524C7.09267 18.4275 7.46774 19.1401 8.14286 19.3277C8.25538 19.3652 8.3679 19.3652 8.51792 19.4027C8.78047 19.4027 9.08052 19.2902 9.30556 19.1401L16.5068 12.689C16.8819 12.4265 17.0319 11.9764 16.9944 11.5263Z" fill="black"/>
</svg>
