<svg width="22" height="22" viewBox="0 0 22 22" fill="none" xmlns="http://www.w3.org/2000/svg">
<rect width="22" height="22" rx="3" fill="white"/>
<path fill-rule="evenodd" clip-rule="evenodd" d="M15.9325 13.4259C15.8738 13.4916 15.9677 13.5793 16.0382 13.5354C18.623 11.9249 20.0328 9.87603 19.4101 8.26545C18.4585 5.77836 13.7825 5.75645 10.1287 6.64391C7.46178 7.29034 1.54047 9.44874 2.5626 13.141C3.63172 16.9867 10.8571 18.0385 19.0459 16.2965C19.1399 16.2745 19.1164 16.143 19.0224 16.154C15.8385 16.395 6.67461 16.7675 5.8992 12.4727C5.5115 10.38 7.42652 8.30928 10.3637 7.30129C13.1011 6.35905 15.956 6.72061 17.0369 8.47362C17.918 9.89794 17.4128 11.8153 15.9325 13.4259ZM14.6675 11C14.6675 12.35 13.0259 13.4444 11.0009 13.4444C8.97586 13.4444 7.3342 12.35 7.3342 11C7.3342 9.64997 8.97586 8.55556 11.0009 8.55556C13.0259 8.55556 14.6675 9.64997 14.6675 11Z" fill="#A6CE39"/>
</svg>
