<svg width="36" height="36" viewBox="0 0 36 36" fill="none" xmlns="http://www.w3.org/2000/svg">
<path d="M6 6C6 3.51472 8.01472 1.5 10.5 1.5H25.5C27.9853 1.5 30 3.51472 30 6V30C30 32.4853 27.9853 34.5 25.5 34.5H10.5C8.01472 34.5 6 32.4853 6 30V6Z" fill="#EEF5FF"/>
<path fill-rule="evenodd" clip-rule="evenodd" d="M25.5 3H10.5C8.84315 3 7.5 4.34315 7.5 6V30C7.5 31.6569 8.84315 33 10.5 33H25.5C27.1569 33 28.5 31.6569 28.5 30V6C28.5 4.34315 27.1569 3 25.5 3ZM10.5 1.5C8.01472 1.5 6 3.51472 6 6V30C6 32.4853 8.01472 34.5 10.5 34.5H25.5C27.9853 34.5 30 32.4853 30 30V6C30 3.51472 27.9853 1.5 25.5 1.5H10.5Z" fill="#568FE2"/>
<path fill-rule="evenodd" clip-rule="evenodd" d="M14.9702 20.7025C15.6856 20.9889 16.3859 20.9155 16.9538 20.6056C17.0875 20.5336 17.224 20.6922 17.1344 20.8215C16.9097 21.146 16.3831 21.7452 16.0344 22.1329C15.9117 22.2709 16.0041 22.5 16.1833 22.5H19.8167C19.9959 22.5 20.0897 22.2709 19.9656 22.1329C19.6169 21.7452 19.0903 21.146 18.8656 20.8215C18.7774 20.6922 18.9125 20.5336 19.0462 20.6056C19.6141 20.9155 20.3144 20.9889 21.0297 20.7025C21.9519 20.3354 22.5253 19.3485 22.4991 18.3C22.4991 18.2442 22.4978 18.1869 22.495 18.1282C22.3847 15.8578 19.2612 13.5493 18.2619 12.141C18.1282 11.953 17.8718 11.953 17.7395 12.141C16.7388 13.5493 13.6153 15.8578 13.505 18.1282C13.5022 18.1869 13.5009 18.2442 13.5009 18.3C13.4747 19.3485 14.0495 20.3354 14.9702 20.7025Z" fill="#568FE2"/>
</svg>
