<svg width="36" height="36" viewBox="0 0 36 36" fill="none" xmlns="http://www.w3.org/2000/svg">
<path d="M34.5 18C34.5 27.1127 27.1127 34.5 18 34.5C8.8873 34.5 1.5 27.1127 1.5 18C1.5 8.8873 8.8873 1.5 18 1.5C27.1127 1.5 34.5 8.8873 34.5 18Z" fill="#FFEBDD"/>
<path fill-rule="evenodd" clip-rule="evenodd" d="M18 32.85C26.2014 32.85 32.85 26.2014 32.85 18C32.85 9.79857 26.2014 3.15 18 3.15C9.79857 3.15 3.15 9.79857 3.15 18C3.15 26.2014 9.79857 32.85 18 32.85ZM18 34.5C27.1127 34.5 34.5 27.1127 34.5 18C34.5 8.8873 27.1127 1.5 18 1.5C8.8873 1.5 1.5 8.8873 1.5 18C1.5 27.1127 8.8873 34.5 18 34.5Z" fill="#FF6C2D"/>
<path d="M9.72473 9.58066C9.96035 8.80645 11.0396 8.80645 11.2753 9.58066L11.76 11.1732C11.865 11.5184 12.1794 11.7539 12.5352 11.7539H14.187C14.9631 11.7539 15.2964 12.7541 14.6796 13.2325L13.2744 14.3224C13.0041 14.5321 12.8913 14.8905 12.9917 15.2204L13.5117 16.9291C13.745 17.6955 12.8717 18.314 12.2438 17.8271L10.9926 16.8565C10.7018 16.6309 10.2982 16.6309 10.0074 16.8565L8.75615 17.8271C8.12834 18.314 7.25503 17.6955 7.48828 16.9291L8.0083 15.2204C8.1087 14.8905 7.99586 14.5321 7.72563 14.3224L6.32043 13.2325C5.70364 12.7541 6.03685 11.7539 6.81303 11.7539H8.46477C8.82064 11.7539 9.13498 11.5184 9.24005 11.1732L9.72473 9.58066Z" fill="#FF6C2D"/>
<path d="M24.7247 9.58066C24.9604 8.80645 26.0396 8.80645 26.2753 9.58066L26.76 11.1732C26.865 11.5184 27.1794 11.7539 27.5352 11.7539H29.187C29.9631 11.7539 30.2964 12.7541 29.6796 13.2325L28.2744 14.3224C28.0041 14.5321 27.8913 14.8905 27.9917 15.2204L28.5117 16.9291C28.745 17.6955 27.8717 18.314 27.2438 17.8271L25.9926 16.8565C25.7018 16.6309 25.2982 16.6309 25.0074 16.8565L23.7562 17.8271C23.1283 18.314 22.255 17.6955 22.4883 16.9291L23.0083 15.2204C23.1087 14.8905 22.9959 14.5321 22.7256 14.3224L21.3204 13.2325C20.7036 12.7541 21.0369 11.7539 21.813 11.7539H23.4648C23.8206 11.7539 24.135 11.5184 24.24 11.1732L24.7247 9.58066Z" fill="#FF6C2D"/>
<path d="M18 27C21.1554 27 23.7419 24.7976 23.9818 22.799C24.0016 22.6345 23.8657 22.5 23.7 22.5H12.3C12.1343 22.5 11.9984 22.6345 12.0182 22.799C12.2581 24.7976 14.8446 27 18 27Z" stroke="#FF6C2D" stroke-width="1.5"/>
</svg>
